<?xml version="1.0" standalone="no"?>
 <!DOCTYPE svg PUBLIC "-//W3C//DTD SVG 1.1//EN" 
 "http://www.w3.org/Graphics/SVG/1.1/DTD/svg11.dtd"> 
<svg xmlns="http://www.w3.org/2000/svg" version="1.1" 
    width="29.7002cm" height="21.0007cm" viewBox="0 0 116930 82680 ">
<title>SVG Picture created as Single_transistor_AMP-F.SilkS.svg date 2018/05/08 13:07:32 </title>
  <desc>Picture generated by PCBNEW </desc>
<g style="fill:#000000; fill-opacity:1;stroke:#000000; stroke-opacity:1;
stroke-linecap:round; stroke-linejoin:round; "
 transform="translate(0 0) scale(1 1)">
</g>
<g style="fill:#000000; fill-opacity:0.0; 
stroke:#000000; stroke-width:-0.000393701; stroke-opacity:1; 
stroke-linecap:round; stroke-linejoin:round;">
</g>
<g style="fill:#000000; fill-opacity:0.0; 
stroke:#000000; stroke-width:39.3701; stroke-opacity:1; 
stroke-linecap:round; stroke-linejoin:round;">
</g>
<g style="fill:#000000; fill-opacity:0.0; 
stroke:#000000; stroke-width:59.0551; stroke-opacity:1; 
stroke-linecap:round; stroke-linejoin:round;">
<rect x="69685.9" y="65357.2" width="42519.7" height="12598.4" rx="0" />
</g>
<g style="fill:#000000; fill-opacity:0.0; 
stroke:#000000; stroke-width:39.3701; stroke-opacity:1; 
stroke-linecap:round; stroke-linejoin:round;">
</g>
<g style="fill:#000000; fill-opacity:0.0; 
stroke:#000000; stroke-width:59.0551; stroke-opacity:1; 
stroke-linecap:round; stroke-linejoin:round;">
<rect x="3937.01" y="3937.01" width="109056" height="74806" rx="0" />
</g>
<g style="fill:#000000; fill-opacity:0.0; 
stroke:#000000; stroke-width:39.3701; stroke-opacity:1; 
stroke-linecap:round; stroke-linejoin:round;">
</g>
<g style="fill:#000000; fill-opacity:0.0; 
stroke:#000000; stroke-width:59.0551; stroke-opacity:1; 
stroke-linecap:round; stroke-linejoin:round;">
<rect x="4724.41" y="4724.41" width="107481" height="73231.2" rx="0" />
</g>
<g style="fill:#000000; fill-opacity:0.0; 
stroke:#000000; stroke-width:39.3701; stroke-opacity:1; 
stroke-linecap:round; stroke-linejoin:round;">
</g>
<g style="fill:#000000; fill-opacity:0.0; 
stroke:#000000; stroke-width:59.0551; stroke-opacity:1; 
stroke-linecap:round; stroke-linejoin:round;">
<path d="M23622 4724
L23622 3937
" />
</g>
<g style="fill:#000000; fill-opacity:0.0; 
stroke:#000000; stroke-width:39.3701; stroke-opacity:1; 
stroke-linecap:round; stroke-linejoin:round;">
</g>
<g style="fill:#000000; fill-opacity:0.0; 
stroke:#000000; stroke-width:59.0551; stroke-opacity:1; 
stroke-linecap:round; stroke-linejoin:round;">
<path d="M43307 4724
L43307 3937
" />
</g>
<g style="fill:#000000; fill-opacity:0.0; 
stroke:#000000; stroke-width:39.3701; stroke-opacity:1; 
stroke-linecap:round; stroke-linejoin:round;">
</g>
<g style="fill:#000000; fill-opacity:0.0; 
stroke:#000000; stroke-width:59.0551; stroke-opacity:1; 
stroke-linecap:round; stroke-linejoin:round;">
<path d="M62992 4724
L62992 3937
" />
</g>
<g style="fill:#000000; fill-opacity:0.0; 
stroke:#000000; stroke-width:39.3701; stroke-opacity:1; 
stroke-linecap:round; stroke-linejoin:round;">
</g>
<g style="fill:#000000; fill-opacity:0.0; 
stroke:#000000; stroke-width:59.0551; stroke-opacity:1; 
stroke-linecap:round; stroke-linejoin:round;">
<path d="M82677 4724
L82677 3937
" />
</g>
<g style="fill:#000000; fill-opacity:0.0; 
stroke:#000000; stroke-width:39.3701; stroke-opacity:1; 
stroke-linecap:round; stroke-linejoin:round;">
</g>
<g style="fill:#000000; fill-opacity:0.0; 
stroke:#000000; stroke-width:59.0551; stroke-opacity:1; 
stroke-linecap:round; stroke-linejoin:round;">
<path d="M102362 4724
L102362 3937
" />
</g>
<g style="fill:#000000; fill-opacity:0.0; 
stroke:#000000; stroke-width:39.3701; stroke-opacity:1; 
stroke-linecap:round; stroke-linejoin:round;">
</g>
<g style="fill:#000000; fill-opacity:0.0; 
stroke:#000000; stroke-width:59.0551; stroke-opacity:1; 
stroke-linecap:round; stroke-linejoin:round;">
<path d="M14169 4562
L13877 4562
" />
<path d="M14023 4562
L14023 4050
L13974 4123
L13925 4172
L13877 4196
" />
</g>
<g style="fill:#000000; fill-opacity:0.0; 
stroke:#000000; stroke-width:39.3701; stroke-opacity:1; 
stroke-linecap:round; stroke-linejoin:round;">
</g>
<g style="fill:#000000; fill-opacity:0.0; 
stroke:#000000; stroke-width:59.0551; stroke-opacity:1; 
stroke-linecap:round; stroke-linejoin:round;">
<path d="M33562 4099
L33586 4074
L33635 4050
L33757 4050
L33805 4074
L33830 4099
L33854 4147
L33854 4196
L33830 4269
L33537 4562
L33854 4562
" />
</g>
<g style="fill:#000000; fill-opacity:0.0; 
stroke:#000000; stroke-width:39.3701; stroke-opacity:1; 
stroke-linecap:round; stroke-linejoin:round;">
</g>
<g style="fill:#000000; fill-opacity:0.0; 
stroke:#000000; stroke-width:59.0551; stroke-opacity:1; 
stroke-linecap:round; stroke-linejoin:round;">
<path d="M53222 4050
L53539 4050
L53368 4245
L53442 4245
L53490 4269
L53515 4294
L53539 4342
L53539 4464
L53515 4513
L53490 4537
L53442 4562
L53295 4562
L53247 4537
L53222 4513
" />
</g>
<g style="fill:#000000; fill-opacity:0.0; 
stroke:#000000; stroke-width:39.3701; stroke-opacity:1; 
stroke-linecap:round; stroke-linejoin:round;">
</g>
<g style="fill:#000000; fill-opacity:0.0; 
stroke:#000000; stroke-width:59.0551; stroke-opacity:1; 
stroke-linecap:round; stroke-linejoin:round;">
<path d="M73175 4221
L73175 4562
" />
<path d="M73053 4026
L72932 4391
L73248 4391
" />
</g>
<g style="fill:#000000; fill-opacity:0.0; 
stroke:#000000; stroke-width:39.3701; stroke-opacity:1; 
stroke-linecap:round; stroke-linejoin:round;">
</g>
<g style="fill:#000000; fill-opacity:0.0; 
stroke:#000000; stroke-width:59.0551; stroke-opacity:1; 
stroke-linecap:round; stroke-linejoin:round;">
<path d="M92885 4050
L92641 4050
L92617 4294
L92641 4269
L92690 4245
L92812 4245
L92860 4269
L92885 4294
L92909 4342
L92909 4464
L92885 4513
L92860 4537
L92812 4562
L92690 4562
L92641 4537
L92617 4513
" />
</g>
<g style="fill:#000000; fill-opacity:0.0; 
stroke:#000000; stroke-width:39.3701; stroke-opacity:1; 
stroke-linecap:round; stroke-linejoin:round;">
</g>
<g style="fill:#000000; fill-opacity:0.0; 
stroke:#000000; stroke-width:59.0551; stroke-opacity:1; 
stroke-linecap:round; stroke-linejoin:round;">
<path d="M112545 4050
L112448 4050
L112399 4074
L112375 4099
L112326 4172
L112302 4269
L112302 4464
L112326 4513
L112350 4537
L112399 4562
L112497 4562
L112545 4537
L112570 4513
L112594 4464
L112594 4342
L112570 4294
L112545 4269
L112497 4245
L112399 4245
L112350 4269
L112326 4294
L112302 4342
" />
</g>
<g style="fill:#000000; fill-opacity:0.0; 
stroke:#000000; stroke-width:39.3701; stroke-opacity:1; 
stroke-linecap:round; stroke-linejoin:round;">
</g>
<g style="fill:#000000; fill-opacity:0.0; 
stroke:#000000; stroke-width:59.0551; stroke-opacity:1; 
stroke-linecap:round; stroke-linejoin:round;">
<path d="M23622 77955
L23622 78742
" />
</g>
<g style="fill:#000000; fill-opacity:0.0; 
stroke:#000000; stroke-width:39.3701; stroke-opacity:1; 
stroke-linecap:round; stroke-linejoin:round;">
</g>
<g style="fill:#000000; fill-opacity:0.0; 
stroke:#000000; stroke-width:59.0551; stroke-opacity:1; 
stroke-linecap:round; stroke-linejoin:round;">
<path d="M43307 77955
L43307 78742
" />
</g>
<g style="fill:#000000; fill-opacity:0.0; 
stroke:#000000; stroke-width:39.3701; stroke-opacity:1; 
stroke-linecap:round; stroke-linejoin:round;">
</g>
<g style="fill:#000000; fill-opacity:0.0; 
stroke:#000000; stroke-width:59.0551; stroke-opacity:1; 
stroke-linecap:round; stroke-linejoin:round;">
<path d="M62992 77955
L62992 78742
" />
</g>
<g style="fill:#000000; fill-opacity:0.0; 
stroke:#000000; stroke-width:39.3701; stroke-opacity:1; 
stroke-linecap:round; stroke-linejoin:round;">
</g>
<g style="fill:#000000; fill-opacity:0.0; 
stroke:#000000; stroke-width:59.0551; stroke-opacity:1; 
stroke-linecap:round; stroke-linejoin:round;">
<path d="M82677 77955
L82677 78742
" />
</g>
<g style="fill:#000000; fill-opacity:0.0; 
stroke:#000000; stroke-width:39.3701; stroke-opacity:1; 
stroke-linecap:round; stroke-linejoin:round;">
</g>
<g style="fill:#000000; fill-opacity:0.0; 
stroke:#000000; stroke-width:59.0551; stroke-opacity:1; 
stroke-linecap:round; stroke-linejoin:round;">
<path d="M102362 77955
L102362 78742
" />
</g>
<g style="fill:#000000; fill-opacity:0.0; 
stroke:#000000; stroke-width:39.3701; stroke-opacity:1; 
stroke-linecap:round; stroke-linejoin:round;">
</g>
<g style="fill:#000000; fill-opacity:0.0; 
stroke:#000000; stroke-width:59.0551; stroke-opacity:1; 
stroke-linecap:round; stroke-linejoin:round;">
<path d="M14169 78580
L13877 78580
" />
<path d="M14023 78580
L14023 78069
L13974 78142
L13925 78190
L13877 78215
" />
</g>
<g style="fill:#000000; fill-opacity:0.0; 
stroke:#000000; stroke-width:39.3701; stroke-opacity:1; 
stroke-linecap:round; stroke-linejoin:round;">
</g>
<g style="fill:#000000; fill-opacity:0.0; 
stroke:#000000; stroke-width:59.0551; stroke-opacity:1; 
stroke-linecap:round; stroke-linejoin:round;">
<path d="M33562 78117
L33586 78093
L33635 78069
L33757 78069
L33805 78093
L33830 78117
L33854 78166
L33854 78215
L33830 78288
L33537 78580
L33854 78580
" />
</g>
<g style="fill:#000000; fill-opacity:0.0; 
stroke:#000000; stroke-width:39.3701; stroke-opacity:1; 
stroke-linecap:round; stroke-linejoin:round;">
</g>
<g style="fill:#000000; fill-opacity:0.0; 
stroke:#000000; stroke-width:59.0551; stroke-opacity:1; 
stroke-linecap:round; stroke-linejoin:round;">
<path d="M53222 78069
L53539 78069
L53368 78263
L53442 78263
L53490 78288
L53515 78312
L53539 78361
L53539 78483
L53515 78532
L53490 78556
L53442 78580
L53295 78580
L53247 78556
L53222 78532
" />
</g>
<g style="fill:#000000; fill-opacity:0.0; 
stroke:#000000; stroke-width:39.3701; stroke-opacity:1; 
stroke-linecap:round; stroke-linejoin:round;">
</g>
<g style="fill:#000000; fill-opacity:0.0; 
stroke:#000000; stroke-width:59.0551; stroke-opacity:1; 
stroke-linecap:round; stroke-linejoin:round;">
<path d="M73175 78239
L73175 78580
" />
<path d="M73053 78044
L72932 78410
L73248 78410
" />
</g>
<g style="fill:#000000; fill-opacity:0.0; 
stroke:#000000; stroke-width:39.3701; stroke-opacity:1; 
stroke-linecap:round; stroke-linejoin:round;">
</g>
<g style="fill:#000000; fill-opacity:0.0; 
stroke:#000000; stroke-width:59.0551; stroke-opacity:1; 
stroke-linecap:round; stroke-linejoin:round;">
<path d="M92885 78069
L92641 78069
L92617 78312
L92641 78288
L92690 78263
L92812 78263
L92860 78288
L92885 78312
L92909 78361
L92909 78483
L92885 78532
L92860 78556
L92812 78580
L92690 78580
L92641 78556
L92617 78532
" />
</g>
<g style="fill:#000000; fill-opacity:0.0; 
stroke:#000000; stroke-width:39.3701; stroke-opacity:1; 
stroke-linecap:round; stroke-linejoin:round;">
</g>
<g style="fill:#000000; fill-opacity:0.0; 
stroke:#000000; stroke-width:59.0551; stroke-opacity:1; 
stroke-linecap:round; stroke-linejoin:round;">
<path d="M112545 78069
L112448 78069
L112399 78093
L112375 78117
L112326 78190
L112302 78288
L112302 78483
L112326 78532
L112350 78556
L112399 78580
L112497 78580
L112545 78556
L112570 78532
L112594 78483
L112594 78361
L112570 78312
L112545 78288
L112497 78263
L112399 78263
L112350 78288
L112326 78312
L112302 78361
" />
</g>
<g style="fill:#000000; fill-opacity:0.0; 
stroke:#000000; stroke-width:39.3701; stroke-opacity:1; 
stroke-linecap:round; stroke-linejoin:round;">
</g>
<g style="fill:#000000; fill-opacity:0.0; 
stroke:#000000; stroke-width:59.0551; stroke-opacity:1; 
stroke-linecap:round; stroke-linejoin:round;">
<path d="M3937 23622
L4724 23622
" />
</g>
<g style="fill:#000000; fill-opacity:0.0; 
stroke:#000000; stroke-width:39.3701; stroke-opacity:1; 
stroke-linecap:round; stroke-linejoin:round;">
</g>
<g style="fill:#000000; fill-opacity:0.0; 
stroke:#000000; stroke-width:59.0551; stroke-opacity:1; 
stroke-linecap:round; stroke-linejoin:round;">
<path d="M3937 43307
L4724 43307
" />
</g>
<g style="fill:#000000; fill-opacity:0.0; 
stroke:#000000; stroke-width:39.3701; stroke-opacity:1; 
stroke-linecap:round; stroke-linejoin:round;">
</g>
<g style="fill:#000000; fill-opacity:0.0; 
stroke:#000000; stroke-width:59.0551; stroke-opacity:1; 
stroke-linecap:round; stroke-linejoin:round;">
<path d="M3937 62992
L4724 62992
" />
</g>
<g style="fill:#000000; fill-opacity:0.0; 
stroke:#000000; stroke-width:39.3701; stroke-opacity:1; 
stroke-linecap:round; stroke-linejoin:round;">
</g>
<g style="fill:#000000; fill-opacity:0.0; 
stroke:#000000; stroke-width:59.0551; stroke-opacity:1; 
stroke-linecap:round; stroke-linejoin:round;">
<path d="M4208 13864
L4452 13864
" />
<path d="M4160 14011
L4330 13499
L4501 14011
" />
</g>
<g style="fill:#000000; fill-opacity:0.0; 
stroke:#000000; stroke-width:39.3701; stroke-opacity:1; 
stroke-linecap:round; stroke-linejoin:round;">
</g>
<g style="fill:#000000; fill-opacity:0.0; 
stroke:#000000; stroke-width:59.0551; stroke-opacity:1; 
stroke-linecap:round; stroke-linejoin:round;">
<path d="M4367 33428
L4440 33452
L4464 33476
L4489 33525
L4489 33598
L4464 33647
L4440 33671
L4391 33696
L4196 33696
L4196 33184
L4367 33184
L4416 33208
L4440 33233
L4464 33281
L4464 33330
L4440 33379
L4416 33403
L4367 33428
L4196 33428
" />
</g>
<g style="fill:#000000; fill-opacity:0.0; 
stroke:#000000; stroke-width:39.3701; stroke-opacity:1; 
stroke-linecap:round; stroke-linejoin:round;">
</g>
<g style="fill:#000000; fill-opacity:0.0; 
stroke:#000000; stroke-width:59.0551; stroke-opacity:1; 
stroke-linecap:round; stroke-linejoin:round;">
<path d="M4489 53332
L4464 53356
L4391 53381
L4342 53381
L4269 53356
L4221 53308
L4196 53259
L4172 53161
L4172 53088
L4196 52991
L4221 52942
L4269 52893
L4342 52869
L4391 52869
L4464 52893
L4489 52918
" />
</g>
<g style="fill:#000000; fill-opacity:0.0; 
stroke:#000000; stroke-width:39.3701; stroke-opacity:1; 
stroke-linecap:round; stroke-linejoin:round;">
</g>
<g style="fill:#000000; fill-opacity:0.0; 
stroke:#000000; stroke-width:59.0551; stroke-opacity:1; 
stroke-linecap:round; stroke-linejoin:round;">
<path d="M4196 73066
L4196 72554
L4318 72554
L4391 72578
L4440 72627
L4464 72676
L4489 72773
L4489 72846
L4464 72944
L4440 72993
L4391 73041
L4318 73066
L4196 73066
" />
</g>
<g style="fill:#000000; fill-opacity:0.0; 
stroke:#000000; stroke-width:39.3701; stroke-opacity:1; 
stroke-linecap:round; stroke-linejoin:round;">
</g>
<g style="fill:#000000; fill-opacity:0.0; 
stroke:#000000; stroke-width:59.0551; stroke-opacity:1; 
stroke-linecap:round; stroke-linejoin:round;">
<path d="M112992 23622
L112205 23622
" />
</g>
<g style="fill:#000000; fill-opacity:0.0; 
stroke:#000000; stroke-width:39.3701; stroke-opacity:1; 
stroke-linecap:round; stroke-linejoin:round;">
</g>
<g style="fill:#000000; fill-opacity:0.0; 
stroke:#000000; stroke-width:59.0551; stroke-opacity:1; 
stroke-linecap:round; stroke-linejoin:round;">
<path d="M112992 43307
L112205 43307
" />
</g>
<g style="fill:#000000; fill-opacity:0.0; 
stroke:#000000; stroke-width:39.3701; stroke-opacity:1; 
stroke-linecap:round; stroke-linejoin:round;">
</g>
<g style="fill:#000000; fill-opacity:0.0; 
stroke:#000000; stroke-width:59.0551; stroke-opacity:1; 
stroke-linecap:round; stroke-linejoin:round;">
<path d="M112992 62992
L112205 62992
" />
</g>
<g style="fill:#000000; fill-opacity:0.0; 
stroke:#000000; stroke-width:39.3701; stroke-opacity:1; 
stroke-linecap:round; stroke-linejoin:round;">
</g>
<g style="fill:#000000; fill-opacity:0.0; 
stroke:#000000; stroke-width:59.0551; stroke-opacity:1; 
stroke-linecap:round; stroke-linejoin:round;">
<path d="M112477 13864
L112721 13864
" />
<path d="M112428 14011
L112599 13499
L112769 14011
" />
</g>
<g style="fill:#000000; fill-opacity:0.0; 
stroke:#000000; stroke-width:39.3701; stroke-opacity:1; 
stroke-linecap:round; stroke-linejoin:round;">
</g>
<g style="fill:#000000; fill-opacity:0.0; 
stroke:#000000; stroke-width:59.0551; stroke-opacity:1; 
stroke-linecap:round; stroke-linejoin:round;">
<path d="M112635 33428
L112708 33452
L112733 33476
L112757 33525
L112757 33598
L112733 33647
L112708 33671
L112660 33696
L112465 33696
L112465 33184
L112635 33184
L112684 33208
L112708 33233
L112733 33281
L112733 33330
L112708 33379
L112684 33403
L112635 33428
L112465 33428
" />
</g>
<g style="fill:#000000; fill-opacity:0.0; 
stroke:#000000; stroke-width:39.3701; stroke-opacity:1; 
stroke-linecap:round; stroke-linejoin:round;">
</g>
<g style="fill:#000000; fill-opacity:0.0; 
stroke:#000000; stroke-width:59.0551; stroke-opacity:1; 
stroke-linecap:round; stroke-linejoin:round;">
<path d="M112757 53332
L112733 53356
L112660 53381
L112611 53381
L112538 53356
L112489 53308
L112465 53259
L112440 53161
L112440 53088
L112465 52991
L112489 52942
L112538 52893
L112611 52869
L112660 52869
L112733 52893
L112757 52918
" />
</g>
<g style="fill:#000000; fill-opacity:0.0; 
stroke:#000000; stroke-width:39.3701; stroke-opacity:1; 
stroke-linecap:round; stroke-linejoin:round;">
</g>
<g style="fill:#000000; fill-opacity:0.0; 
stroke:#000000; stroke-width:59.0551; stroke-opacity:1; 
stroke-linecap:round; stroke-linejoin:round;">
<path d="M112465 73066
L112465 72554
L112587 72554
L112660 72578
L112708 72627
L112733 72676
L112757 72773
L112757 72846
L112733 72944
L112708 72993
L112660 73041
L112587 73066
L112465 73066
" />
</g>
<g style="fill:#000000; fill-opacity:0.0; 
stroke:#000000; stroke-width:39.3701; stroke-opacity:1; 
stroke-linecap:round; stroke-linejoin:round;">
</g>
<g style="fill:#000000; fill-opacity:0.0; 
stroke:#000000; stroke-width:59.0551; stroke-opacity:1; 
stroke-linecap:round; stroke-linejoin:round;">
<path d="M78881 76293
L78881 75703
L79022 75703
L79106 75731
L79162 75787
L79190 75843
L79219 75956
L79219 76040
L79190 76153
L79162 76209
L79106 76265
L79022 76293
L78881 76293
" />
<path d="M79725 76293
L79725 75984
L79697 75928
L79640 75899
L79528 75899
L79472 75928
" />
<path d="M79725 76265
L79669 76293
L79528 76293
L79472 76265
L79444 76209
L79444 76153
L79472 76096
L79528 76068
L79669 76068
L79725 76040
" />
<path d="M79922 75899
L80147 75899
" />
<path d="M80006 75703
L80006 76209
L80034 76265
L80090 76293
L80147 76293
" />
<path d="M80568 76265
L80512 76293
L80400 76293
L80343 76265
L80315 76209
L80315 75984
L80343 75928
L80400 75899
L80512 75899
L80568 75928
L80597 75984
L80597 76040
L80315 76096
" />
<path d="M80850 76237
L80878 76265
L80850 76293
L80822 76265
L80850 76237
L80850 76293
" />
<path d="M80850 75928
L80878 75956
L80850 75984
L80822 75956
L80850 75928
L80850 75984
" />
<path d="M81553 75759
L81581 75731
L81637 75703
L81778 75703
L81834 75731
L81862 75759
L81890 75815
L81890 75871
L81862 75956
L81525 76293
L81890 76293
" />
<path d="M82256 75703
L82312 75703
L82368 75731
L82396 75759
L82424 75815
L82453 75928
L82453 76068
L82424 76181
L82396 76237
L82368 76265
L82312 76293
L82256 76293
L82199 76265
L82171 76237
L82143 76181
L82115 76068
L82115 75928
L82143 75815
L82171 75759
L82199 75731
L82256 75703
" />
<path d="M83015 76293
L82678 76293
" />
<path d="M82846 76293
L82846 75703
L82790 75787
L82734 75843
L82678 75871
" />
<path d="M83352 75956
L83296 75928
L83268 75899
L83240 75843
L83240 75815
L83268 75759
L83296 75731
L83352 75703
L83465 75703
L83521 75731
L83549 75759
L83577 75815
L83577 75843
L83549 75899
L83521 75928
L83465 75956
L83352 75956
L83296 75984
L83268 76012
L83240 76068
L83240 76181
L83268 76237
L83296 76265
L83352 76293
L83465 76293
L83521 76265
L83549 76237
L83577 76181
L83577 76068
L83549 76012
L83521 75984
L83465 75956
" />
<path d="M83831 76068
L84280 76068
" />
<path d="M84674 75703
L84730 75703
L84787 75731
L84815 75759
L84843 75815
L84871 75928
L84871 76068
L84843 76181
L84815 76237
L84787 76265
L84730 76293
L84674 76293
L84618 76265
L84590 76237
L84562 76181
L84534 76068
L84534 75928
L84562 75815
L84590 75759
L84618 75731
L84674 75703
" />
<path d="M85377 75899
L85377 76293
" />
<path d="M85237 75674
L85096 76096
L85462 76096
" />
<path d="M85687 76068
L86136 76068
" />
<path d="M86530 75703
L86586 75703
L86643 75731
L86671 75759
L86699 75815
L86727 75928
L86727 76068
L86699 76181
L86671 76237
L86643 76265
L86586 76293
L86530 76293
L86474 76265
L86446 76237
L86418 76181
L86390 76068
L86390 75928
L86418 75815
L86446 75759
L86474 75731
L86530 75703
" />
<path d="M87261 75703
L86980 75703
L86952 75984
L86980 75956
L87036 75928
L87177 75928
L87233 75956
L87261 75984
L87289 76040
L87289 76181
L87261 76237
L87233 76265
L87177 76293
L87036 76293
L86980 76265
L86952 76237
" />
</g>
<g style="fill:#000000; fill-opacity:0.0; 
stroke:#000000; stroke-width:39.3701; stroke-opacity:1; 
stroke-linecap:round; stroke-linejoin:round;">
</g>
<g style="fill:#000000; fill-opacity:0.0; 
stroke:#000000; stroke-width:59.0551; stroke-opacity:1; 
stroke-linecap:round; stroke-linejoin:round;">
<path d="M69685 76577
L112205 76577
" />
</g>
<g style="fill:#000000; fill-opacity:0.0; 
stroke:#000000; stroke-width:39.3701; stroke-opacity:1; 
stroke-linecap:round; stroke-linejoin:round;">
</g>
<g style="fill:#000000; fill-opacity:0.0; 
stroke:#000000; stroke-width:59.0551; stroke-opacity:1; 
stroke-linecap:round; stroke-linejoin:round;">
<path d="M70220 77395
L70220 76805
" />
<path d="M70557 77395
L70304 77058
" />
<path d="M70557 76805
L70220 77142
" />
<path d="M70810 77395
L70810 77002
" />
<path d="M70810 76805
L70782 76833
L70810 76861
L70838 76833
L70810 76805
L70810 76861
" />
<path d="M71429 77339
L71401 77367
L71316 77395
L71260 77395
L71176 77367
L71120 77311
L71091 77255
L71063 77142
L71063 77058
L71091 76946
L71120 76889
L71176 76833
L71260 76805
L71316 76805
L71401 76833
L71429 76861
" />
<path d="M71935 77395
L71935 77086
L71907 77030
L71851 77002
L71738 77002
L71682 77030
" />
<path d="M71935 77367
L71879 77395
L71738 77395
L71682 77367
L71654 77311
L71654 77255
L71682 77199
L71738 77171
L71879 77171
L71935 77142
" />
<path d="M72469 77395
L72469 76805
" />
<path d="M72469 77367
L72413 77395
L72301 77395
L72244 77367
L72216 77339
L72188 77283
L72188 77114
L72216 77058
L72244 77030
L72301 77002
L72413 77002
L72469 77030
" />
<path d="M73201 77086
L73397 77086
" />
<path d="M73482 77395
L73201 77395
L73201 76805
L73482 76805
" />
<path d="M73735 77339
L73763 77367
L73735 77395
L73707 77367
L73735 77339
L73735 77395
" />
<path d="M74016 77395
L74016 76805
L74157 76805
L74241 76833
L74297 76889
L74325 76946
L74354 77058
L74354 77142
L74325 77255
L74297 77311
L74241 77367
L74157 77395
L74016 77395
" />
<path d="M74607 77339
L74635 77367
L74607 77395
L74579 77367
L74607 77339
L74607 77395
" />
<path d="M74860 77227
L75141 77227
" />
<path d="M74804 77395
L75000 76805
L75197 77395
" />
<path d="M75394 77339
L75422 77367
L75394 77395
L75366 77367
L75394 77339
L75394 77395
" />
<path d="M76575 77395
L76575 76805
" />
<path d="M76631 77171
L76800 77395
" />
<path d="M76800 77002
L76575 77227
" />
<path d="M77053 77395
L77053 77002
" />
<path d="M77053 76805
L77025 76833
L77053 76861
L77081 76833
L77053 76805
L77053 76861
" />
<path d="M77588 77367
L77531 77395
L77419 77395
L77363 77367
L77334 77339
L77306 77283
L77306 77114
L77334 77058
L77363 77030
L77419 77002
L77531 77002
L77588 77030
" />
<path d="M78094 77395
L78094 77086
L78066 77030
L78009 77002
L77897 77002
L77841 77030
" />
<path d="M78094 77367
L78037 77395
L77897 77395
L77841 77367
L77813 77311
L77813 77255
L77841 77199
L77897 77171
L78037 77171
L78094 77142
" />
<path d="M78628 77395
L78628 76805
" />
<path d="M78628 77367
L78572 77395
L78459 77395
L78403 77367
L78375 77339
L78347 77283
L78347 77114
L78375 77058
L78403 77030
L78459 77002
L78572 77002
L78628 77030
" />
<path d="M79612 77002
L79612 77395
" />
<path d="M79472 76777
L79331 77199
L79697 77199
" />
<path d="M79922 77339
L79950 77367
L79922 77395
L79894 77367
L79922 77339
L79922 77395
" />
<path d="M80315 76805
L80372 76805
L80428 76833
L80456 76861
L80484 76917
L80512 77030
L80512 77171
L80484 77283
L80456 77339
L80428 77367
L80372 77395
L80315 77395
L80259 77367
L80231 77339
L80203 77283
L80175 77171
L80175 77030
L80203 76917
L80231 76861
L80259 76833
L80315 76805
" />
<path d="M80765 77339
L80793 77367
L80765 77395
L80737 77367
L80765 77339
L80765 77395
" />
<path d="M80990 76805
L81384 76805
L81131 77395
" />
</g>
<g style="fill:#000000; fill-opacity:0.0; 
stroke:#000000; stroke-width:39.3701; stroke-opacity:1; 
stroke-linecap:round; stroke-linejoin:round;">
</g>
<g style="fill:#000000; fill-opacity:0.0; 
stroke:#000000; stroke-width:59.0551; stroke-opacity:1; 
stroke-linecap:round; stroke-linejoin:round;">
<path d="M69685 75396
L112205 75396
" />
</g>
<g style="fill:#000000; fill-opacity:0.0; 
stroke:#000000; stroke-width:39.3701; stroke-opacity:1; 
stroke-linecap:round; stroke-linejoin:round;">
</g>
<g style="fill:#000000; fill-opacity:0.0; 
stroke:#000000; stroke-width:118.11; stroke-opacity:1; 
stroke-linecap:round; stroke-linejoin:round;">
<path d="M104022 76293
L103825 76012
" />
<path d="M103684 76293
L103684 75703
L103909 75703
L103965 75731
L103994 75759
L104022 75815
L104022 75899
L103994 75956
L103965 75984
L103909 76012
L103684 76012
" />
<path d="M104500 76265
L104444 76293
L104331 76293
L104275 76265
L104247 76209
L104247 75984
L104275 75928
L104331 75899
L104444 75899
L104500 75928
L104528 75984
L104528 76040
L104247 76096
" />
<path d="M104725 75899
L104865 76293
L105006 75899
" />
<path d="M105231 76237
L105259 76265
L105231 76293
L105203 76265
L105231 76237
L105231 76293
" />
<path d="M105231 75928
L105259 75956
L105231 75984
L105203 75956
L105231 75928
L105231 75984
" />
<path d="M105878 75703
L106075 76293
L106271 75703
" />
<path d="M106778 76293
L106440 76293
" />
<path d="M106609 76293
L106609 75703
L106553 75787
L106496 75843
L106440 75871
" />
<path d="M107031 76237
L107059 76265
L107031 76293
L107003 76265
L107031 76237
L107031 76293
" />
<path d="M107424 75703
L107481 75703
L107537 75731
L107565 75759
L107593 75815
L107621 75928
L107621 76068
L107593 76181
L107565 76237
L107537 76265
L107481 76293
L107424 76293
L107368 76265
L107340 76237
L107312 76181
L107284 76068
L107284 75928
L107312 75815
L107340 75759
L107368 75731
L107424 75703
" />
</g>
<g style="fill:#000000; fill-opacity:0.0; 
stroke:#000000; stroke-width:39.3701; stroke-opacity:1; 
stroke-linecap:round; stroke-linejoin:round;">
</g>
<g style="fill:#000000; fill-opacity:0.0; 
stroke:#000000; stroke-width:59.0551; stroke-opacity:1; 
stroke-linecap:round; stroke-linejoin:round;">
<path d="M70192 76265
L70276 76293
L70417 76293
L70473 76265
L70501 76237
L70529 76181
L70529 76124
L70501 76068
L70473 76040
L70417 76012
L70304 75984
L70248 75956
L70220 75928
L70192 75871
L70192 75815
L70220 75759
L70248 75731
L70304 75703
L70445 75703
L70529 75731
" />
<path d="M70782 76293
L70782 75899
" />
<path d="M70782 75703
L70754 75731
L70782 75759
L70810 75731
L70782 75703
L70782 75759
" />
<path d="M71007 75899
L71316 75899
L71007 76293
L71316 76293
" />
<path d="M71766 76265
L71710 76293
L71598 76293
L71541 76265
L71513 76209
L71513 75984
L71541 75928
L71598 75899
L71710 75899
L71766 75928
L71795 75984
L71795 76040
L71513 76096
" />
<path d="M72048 76237
L72076 76265
L72048 76293
L72019 76265
L72048 76237
L72048 76293
" />
<path d="M72048 75928
L72076 75956
L72048 75984
L72019 75956
L72048 75928
L72048 75984
" />
<path d="M72751 76124
L73032 76124
" />
<path d="M72694 76293
L72891 75703
L73088 76293
" />
<path d="M73538 75899
L73538 76293
" />
<path d="M73397 75674
L73257 76096
L73622 76096
" />
</g>
<g style="fill:#000000; fill-opacity:0.0; 
stroke:#000000; stroke-width:39.3701; stroke-opacity:1; 
stroke-linecap:round; stroke-linejoin:round;">
</g>
<g style="fill:#000000; fill-opacity:0.0; 
stroke:#000000; stroke-width:59.0551; stroke-opacity:1; 
stroke-linecap:round; stroke-linejoin:round;">
<path d="M103684 77395
L103684 76805
" />
<path d="M104219 77395
L104219 76805
" />
<path d="M104219 77367
L104162 77395
L104050 77395
L103994 77367
L103965 77339
L103937 77283
L103937 77114
L103965 77058
L103994 77030
L104050 77002
L104162 77002
L104219 77030
" />
<path d="M104500 77339
L104528 77367
L104500 77395
L104472 77367
L104500 77339
L104500 77395
" />
<path d="M104500 77030
L104528 77058
L104500 77086
L104472 77058
L104500 77030
L104500 77086
" />
<path d="M105540 77395
L105203 77395
" />
<path d="M105372 77395
L105372 76805
L105315 76889
L105259 76946
L105203 76974
" />
<path d="M106215 76777
L105709 77536
" />
<path d="M106721 77395
L106384 77395
" />
<path d="M106553 77395
L106553 76805
L106496 76889
L106440 76946
L106384 76974
" />
</g>
<g style="fill:#000000; fill-opacity:0.0; 
stroke:#000000; stroke-width:39.3701; stroke-opacity:1; 
stroke-linecap:round; stroke-linejoin:round;">
</g>
<g style="fill:#000000; fill-opacity:0.0; 
stroke:#000000; stroke-width:59.0551; stroke-opacity:1; 
stroke-linecap:round; stroke-linejoin:round;">
<path d="M69685 73821
L112205 73821
" />
</g>
<g style="fill:#000000; fill-opacity:0.0; 
stroke:#000000; stroke-width:39.3701; stroke-opacity:1; 
stroke-linecap:round; stroke-linejoin:round;">
</g>
<g style="fill:#000000; fill-opacity:0.0; 
stroke:#000000; stroke-width:157.48; stroke-opacity:1; 
stroke-linecap:round; stroke-linejoin:round;">
<path d="M70257 74099
L70707 74099
" />
<path d="M70384 74886
L70482 74099
" />
<path d="M70871 74886
L70937 74361
" />
<path d="M70970 74099
L70927 74136
L70960 74174
L71002 74136
L70970 74099
L70960 74174
" />
<path d="M71199 74361
L71499 74361
" />
<path d="M71345 74099
L71260 74774
L71288 74849
L71359 74886
L71434 74886
" />
<path d="M71809 74886
L71738 74849
L71710 74774
L71795 74099
" />
<path d="M72413 74849
L72334 74886
L72184 74886
L72113 74849
L72085 74774
L72123 74474
L72169 74399
L72249 74361
L72399 74361
L72469 74399
L72498 74474
L72488 74549
L72104 74624
" />
<path d="M72793 74811
L72826 74849
L72783 74886
L72751 74849
L72793 74811
L72783 74886
" />
<path d="M72844 74399
L72877 74436
L72835 74474
L72802 74436
L72844 74399
L72835 74474
" />
<path d="M73726 74849
L73833 74886
L74021 74886
L74100 74849
L74143 74811
L74190 74736
L74199 74661
L74171 74586
L74138 74549
L74068 74511
L73922 74474
L73852 74436
L73819 74399
L73791 74324
L73801 74249
L73847 74174
L73890 74136
L73969 74099
L74157 74099
L74265 74136
" />
<path d="M74508 74886
L74574 74361
" />
<path d="M74607 74099
L74564 74136
L74597 74174
L74639 74136
L74607 74099
L74597 74174
" />
<path d="M74949 74361
L74883 74886
" />
<path d="M74939 74436
L74982 74399
L75061 74361
L75174 74361
L75244 74399
L75272 74474
L75221 74886
" />
<path d="M75999 74361
L75919 74999
L75872 75074
L75830 75111
L75750 75149
L75638 75149
L75567 75111
" />
<path d="M75938 74849
L75858 74886
L75708 74886
L75638 74849
L75605 74811
L75577 74736
L75605 74511
L75652 74436
L75694 74399
L75774 74361
L75924 74361
L75994 74399
" />
<path d="M76421 74886
L76350 74849
L76322 74774
L76406 74099
" />
<path d="M77025 74849
L76945 74886
L76795 74886
L76725 74849
L76697 74774
L76735 74474
L76781 74399
L76861 74361
L77011 74361
L77081 74399
L77109 74474
L77100 74549
L76716 74624
" />
<path d="M77199 74961
L77798 74961
" />
<path d="M77948 74361
L78248 74361
" />
<path d="M78094 74099
L78009 74774
L78037 74849
L78108 74886
L78183 74886
" />
<path d="M78445 74886
L78511 74361
" />
<path d="M78492 74511
L78539 74436
L78581 74399
L78661 74361
L78736 74361
" />
<path d="M79270 74886
L79322 74474
L79294 74399
L79223 74361
L79073 74361
L78994 74399
" />
<path d="M79275 74849
L79195 74886
L79008 74886
L78937 74849
L78909 74774
L78919 74699
L78965 74624
L79045 74586
L79233 74586
L79312 74549
" />
<path d="M79711 74361
L79645 74886
" />
<path d="M79701 74436
L79744 74399
L79823 74361
L79936 74361
L80006 74399
L80034 74474
L79983 74886
" />
<path d="M80325 74849
L80395 74886
L80545 74886
L80625 74849
L80672 74774
L80676 74736
L80648 74661
L80578 74624
L80465 74624
L80395 74586
L80367 74511
L80372 74474
L80418 74399
L80498 74361
L80611 74361
L80681 74399
" />
<path d="M80995 74886
L81061 74361
" />
<path d="M81093 74099
L81051 74136
L81084 74174
L81126 74136
L81093 74099
L81084 74174
" />
<path d="M81337 74849
L81407 74886
L81557 74886
L81637 74849
L81684 74774
L81689 74736
L81660 74661
L81590 74624
L81478 74624
L81407 74586
L81379 74511
L81384 74474
L81431 74399
L81510 74361
L81623 74361
L81693 74399
" />
<path d="M81960 74361
L82260 74361
" />
<path d="M82106 74099
L82021 74774
L82049 74849
L82120 74886
L82195 74886
" />
<path d="M82570 74886
L82499 74849
L82467 74811
L82439 74736
L82467 74511
L82513 74436
L82556 74399
L82635 74361
L82748 74361
L82818 74399
L82851 74436
L82879 74511
L82851 74736
L82804 74811
L82762 74849
L82682 74886
L82570 74886
" />
<path d="M83170 74886
L83235 74361
" />
<path d="M83217 74511
L83263 74436
L83306 74399
L83385 74361
L83460 74361
" />
<path d="M83460 74961
L84060 74961
" />
<path d="M84248 74661
L84623 74661
" />
<path d="M84145 74886
L84505 74099
L84669 74886
" />
<path d="M84932 74886
L85030 74099
L85223 74661
L85555 74099
L85457 74886
" />
<path d="M85832 74886
L85930 74099
L86230 74099
L86301 74136
L86333 74174
L86361 74249
L86347 74361
L86301 74436
L86258 74474
L86179 74511
L85879 74511
" />
</g>
<g style="fill:#000000; fill-opacity:0.0; 
stroke:#000000; stroke-width:39.3701; stroke-opacity:1; 
stroke-linecap:round; stroke-linejoin:round;">
</g>
<g style="fill:#000000; fill-opacity:0.0; 
stroke:#000000; stroke-width:59.0551; stroke-opacity:1; 
stroke-linecap:round; stroke-linejoin:round;">
<path d="M70417 73070
L70220 73070
" />
<path d="M70220 73380
L70220 72789
L70501 72789
" />
<path d="M70726 73380
L70726 72986
" />
<path d="M70726 72789
L70698 72817
L70726 72845
L70754 72817
L70726 72789
L70726 72845
" />
<path d="M71091 73380
L71035 73352
L71007 73295
L71007 72789
" />
<path d="M71541 73352
L71485 73380
L71373 73380
L71316 73352
L71288 73295
L71288 73070
L71316 73014
L71373 72986
L71485 72986
L71541 73014
L71570 73070
L71570 73127
L71288 73183
" />
<path d="M71823 73323
L71851 73352
L71823 73380
L71795 73352
L71823 73323
L71823 73380
" />
<path d="M71823 73014
L71851 73042
L71823 73070
L71795 73042
L71823 73014
L71823 73070
" />
<path d="M72526 73352
L72610 73380
L72751 73380
L72807 73352
L72835 73323
L72863 73267
L72863 73211
L72835 73155
L72807 73127
L72751 73099
L72638 73070
L72582 73042
L72554 73014
L72526 72958
L72526 72902
L72554 72845
L72582 72817
L72638 72789
L72779 72789
L72863 72817
" />
<path d="M73116 73380
L73116 72986
" />
<path d="M73116 72789
L73088 72817
L73116 72845
L73144 72817
L73116 72789
L73116 72845
" />
<path d="M73397 72986
L73397 73380
" />
<path d="M73397 73042
L73426 73014
L73482 72986
L73566 72986
L73622 73014
L73651 73070
L73651 73380
" />
<path d="M74185 72986
L74185 73464
L74157 73520
L74129 73548
L74072 73577
L73988 73577
L73932 73548
" />
<path d="M74185 73352
L74129 73380
L74016 73380
L73960 73352
L73932 73323
L73904 73267
L73904 73099
L73932 73042
L73960 73014
L74016 72986
L74129 72986
L74185 73014
" />
<path d="M74550 73380
L74494 73352
L74466 73295
L74466 72789
" />
<path d="M75000 73352
L74944 73380
L74832 73380
L74775 73352
L74747 73295
L74747 73070
L74775 73014
L74832 72986
L74944 72986
L75000 73014
L75028 73070
L75028 73127
L74747 73183
" />
<path d="M75141 73436
L75591 73436
" />
<path d="M75647 72986
L75872 72986
" />
<path d="M75732 72789
L75732 73295
L75760 73352
L75816 73380
L75872 73380
" />
<path d="M76069 73380
L76069 72986
" />
<path d="M76069 73099
L76097 73042
L76125 73014
L76181 72986
L76238 72986
" />
<path d="M76688 73380
L76688 73070
L76660 73014
L76603 72986
L76491 72986
L76435 73014
" />
<path d="M76688 73352
L76631 73380
L76491 73380
L76435 73352
L76406 73295
L76406 73239
L76435 73183
L76491 73155
L76631 73155
L76688 73127
" />
<path d="M76969 72986
L76969 73380
" />
<path d="M76969 73042
L76997 73014
L77053 72986
L77138 72986
L77194 73014
L77222 73070
L77222 73380
" />
<path d="M77475 73352
L77531 73380
L77644 73380
L77700 73352
L77728 73295
L77728 73267
L77700 73211
L77644 73183
L77559 73183
L77503 73155
L77475 73099
L77475 73070
L77503 73014
L77559 72986
L77644 72986
L77700 73014
" />
<path d="M77981 73380
L77981 72986
" />
<path d="M77981 72789
L77953 72817
L77981 72845
L78009 72817
L77981 72789
L77981 72845
" />
<path d="M78234 73352
L78291 73380
L78403 73380
L78459 73352
L78487 73295
L78487 73267
L78459 73211
L78403 73183
L78319 73183
L78262 73155
L78234 73099
L78234 73070
L78262 73014
L78319 72986
L78403 72986
L78459 73014
" />
<path d="M78656 72986
L78881 72986
" />
<path d="M78741 72789
L78741 73295
L78769 73352
L78825 73380
L78881 73380
" />
<path d="M79162 73380
L79106 73352
L79078 73323
L79050 73267
L79050 73099
L79078 73042
L79106 73014
L79162 72986
L79247 72986
L79303 73014
L79331 73042
L79359 73099
L79359 73267
L79331 73323
L79303 73352
L79247 73380
L79162 73380
" />
<path d="M79612 73380
L79612 72986
" />
<path d="M79612 73099
L79640 73042
L79669 73014
L79725 72986
L79781 72986
" />
<path d="M79837 73436
L80287 73436
" />
<path d="M80400 73211
L80681 73211
" />
<path d="M80343 73380
L80540 72789
L80737 73380
" />
<path d="M80934 73380
L80934 72789
L81131 73211
L81328 72789
L81328 73380
" />
<path d="M81609 73380
L81609 72789
L81834 72789
L81890 72817
L81918 72845
L81946 72902
L81946 72986
L81918 73042
L81890 73070
L81834 73099
L81609 73099
" />
<path d="M82199 73323
L82228 73352
L82199 73380
L82171 73352
L82199 73323
L82199 73380
" />
<path d="M82481 73380
L82481 72789
" />
<path d="M82537 73155
L82706 73380
" />
<path d="M82706 72986
L82481 73211
" />
<path d="M82959 73380
L82959 72986
" />
<path d="M82959 72789
L82931 72817
L82959 72845
L82987 72817
L82959 72789
L82959 72845
" />
<path d="M83493 73352
L83437 73380
L83324 73380
L83268 73352
L83240 73323
L83212 73267
L83212 73099
L83240 73042
L83268 73014
L83324 72986
L83437 72986
L83493 73014
" />
<path d="M83999 73380
L83999 73070
L83971 73014
L83915 72986
L83802 72986
L83746 73014
" />
<path d="M83999 73352
L83943 73380
L83802 73380
L83746 73352
L83718 73295
L83718 73239
L83746 73183
L83802 73155
L83943 73155
L83999 73127
" />
<path d="M84534 73380
L84534 72789
" />
<path d="M84534 73352
L84477 73380
L84365 73380
L84309 73352
L84280 73323
L84252 73267
L84252 73099
L84280 73042
L84309 73014
L84365 72986
L84477 72986
L84534 73014
" />
<path d="M84674 73436
L85124 73436
" />
<path d="M85265 72986
L85265 73577
" />
<path d="M85265 73014
L85321 72986
L85433 72986
L85490 73014
L85518 73042
L85546 73099
L85546 73267
L85518 73323
L85490 73352
L85433 73380
L85321 73380
L85265 73352
" />
<path d="M86052 73352
L85996 73380
L85883 73380
L85827 73352
L85799 73323
L85771 73267
L85771 73099
L85799 73042
L85827 73014
L85883 72986
L85996 72986
L86052 73014
" />
<path d="M86305 73380
L86305 72789
" />
<path d="M86305 73014
L86361 72986
L86474 72986
L86530 73014
L86558 73042
L86586 73099
L86586 73267
L86558 73323
L86530 73352
L86474 73380
L86361 73380
L86305 73352
" />
</g>
<g style="fill:#000000; fill-opacity:0.0; 
stroke:#000000; stroke-width:39.3701; stroke-opacity:1; 
stroke-linecap:round; stroke-linejoin:round;">
</g>
<g style="fill:#000000; fill-opacity:0.0; 
stroke:#000000; stroke-width:59.0551; stroke-opacity:1; 
stroke-linecap:round; stroke-linejoin:round;">
<path d="M69685 71459
L112205 71459
" />
</g>
<g style="fill:#000000; fill-opacity:0.0; 
stroke:#000000; stroke-width:39.3701; stroke-opacity:1; 
stroke-linecap:round; stroke-linejoin:round;">
</g>
<g style="fill:#000000; fill-opacity:0.0; 
stroke:#000000; stroke-width:59.0551; stroke-opacity:1; 
stroke-linecap:round; stroke-linejoin:round;">
<path d="M70192 72289
L70276 72317
L70417 72317
L70473 72289
L70501 72260
L70529 72204
L70529 72148
L70501 72092
L70473 72064
L70417 72036
L70304 72007
L70248 71979
L70220 71951
L70192 71895
L70192 71839
L70220 71782
L70248 71754
L70304 71726
L70445 71726
L70529 71754
" />
<path d="M70782 72317
L70782 71726
" />
<path d="M71035 72317
L71035 72007
L71007 71951
L70951 71923
L70867 71923
L70810 71951
L70782 71979
" />
<path d="M71541 72289
L71485 72317
L71373 72317
L71316 72289
L71288 72232
L71288 72007
L71316 71951
L71373 71923
L71485 71923
L71541 71951
L71570 72007
L71570 72064
L71288 72120
" />
<path d="M72048 72289
L71991 72317
L71879 72317
L71823 72289
L71795 72232
L71795 72007
L71823 71951
L71879 71923
L71991 71923
L72048 71951
L72076 72007
L72076 72064
L71795 72120
" />
<path d="M72244 71923
L72469 71923
" />
<path d="M72329 71726
L72329 72232
L72357 72289
L72413 72317
L72469 72317
" />
<path d="M72666 72260
L72694 72289
L72666 72317
L72638 72289
L72666 72260
L72666 72317
" />
<path d="M72666 71951
L72694 71979
L72666 72007
L72638 71979
L72666 71951
L72666 72007
" />
</g>
<g style="fill:#000000; fill-opacity:0.0; 
stroke:#000000; stroke-width:39.3701; stroke-opacity:1; 
stroke-linecap:round; stroke-linejoin:round;">
</g>
<g style="fill:#000000; fill-opacity:0.0; 
stroke:#000000; stroke-width:118.11; stroke-opacity:1; 
stroke-linecap:round; stroke-linejoin:round;">
<path d="M70557 71136
L70360 70854
" />
<path d="M70220 71136
L70220 70545
L70445 70545
L70501 70573
L70529 70601
L70557 70658
L70557 70742
L70529 70798
L70501 70826
L70445 70854
L70220 70854
" />
<path d="M71063 71136
L71063 70826
L71035 70770
L70979 70742
L70867 70742
L70810 70770
" />
<path d="M71063 71108
L71007 71136
L70867 71136
L70810 71108
L70782 71051
L70782 70995
L70810 70939
L70867 70911
L71007 70911
L71063 70883
" />
<path d="M71345 71136
L71345 70742
" />
<path d="M71345 70545
L71316 70573
L71345 70601
L71373 70573
L71345 70545
L71345 70601
" />
<path d="M71570 70742
L71710 71136
L71851 70742
" />
<path d="M72076 71136
L72076 70742
" />
<path d="M72076 70545
L72048 70573
L72076 70601
L72104 70573
L72076 70545
L72076 70601
" />
<path d="M72329 71108
L72385 71136
L72498 71136
L72554 71108
L72582 71051
L72582 71023
L72554 70967
L72498 70939
L72413 70939
L72357 70911
L72329 70854
L72329 70826
L72357 70770
L72413 70742
L72498 70742
L72554 70770
" />
<path d="M73285 71136
L73285 70545
L73426 70545
L73510 70573
L73566 70629
L73594 70686
L73622 70798
L73622 70883
L73594 70995
L73566 71051
L73510 71108
L73426 71136
L73285 71136
" />
<path d="M73876 71136
L73876 70742
" />
<path d="M73876 70545
L73847 70573
L73876 70601
L73904 70573
L73876 70545
L73876 70601
" />
<path d="M74157 71136
L74157 70742
" />
<path d="M74157 70854
L74185 70798
L74213 70770
L74269 70742
L74325 70742
" />
<path d="M74775 71136
L74775 70545
" />
<path d="M74775 71108
L74719 71136
L74607 71136
L74550 71108
L74522 71079
L74494 71023
L74494 70854
L74522 70798
L74550 70770
L74607 70742
L74719 70742
L74775 70770
" />
<path d="M75310 71136
L75310 70826
L75282 70770
L75225 70742
L75113 70742
L75057 70770
" />
<path d="M75310 71108
L75253 71136
L75113 71136
L75057 71108
L75028 71051
L75028 70995
L75057 70939
L75113 70911
L75253 70911
L75310 70883
" />
</g>
<g style="fill:#000000; fill-opacity:0.0; 
stroke:#000000; stroke-width:39.3701; stroke-opacity:1; 
stroke-linecap:round; stroke-linejoin:round;">
</g>
<g style="fill:#000000; fill-opacity:0.0; 
stroke:#000000; stroke-width:59.0551; stroke-opacity:1; 
stroke-linecap:round; stroke-linejoin:round;">
<path d="M70192 69786
L70473 69786
" />
<path d="M70135 69955
L70332 69364
L70529 69955
" />
<path d="M70979 69561
L70979 69955
" />
<path d="M70726 69561
L70726 69870
L70754 69926
L70810 69955
L70895 69955
L70951 69926
L70979 69898
" />
<path d="M71176 69561
L71401 69561
" />
<path d="M71260 69364
L71260 69870
L71288 69926
L71345 69955
L71401 69955
" />
<path d="M71682 69955
L71626 69926
L71598 69898
L71570 69842
L71570 69673
L71598 69617
L71626 69589
L71682 69561
L71766 69561
L71823 69589
L71851 69617
L71879 69673
L71879 69842
L71851 69898
L71823 69926
L71766 69955
L71682 69955
" />
<path d="M72132 69955
L72132 69561
" />
<path d="M72132 69673
L72160 69617
L72188 69589
L72244 69561
L72301 69561
" />
<path d="M72469 69926
L72526 69955
L72638 69955
L72694 69926
L72723 69870
L72723 69842
L72694 69786
L72638 69758
L72554 69758
L72498 69730
L72469 69673
L72469 69645
L72498 69589
L72554 69561
L72638 69561
L72694 69589
" />
</g>
<g style="fill:#000000; fill-opacity:0.0; 
stroke:#000000; stroke-width:39.3701; stroke-opacity:1; 
stroke-linecap:round; stroke-linejoin:round;">
</g>
<g style="fill:#000000; fill-opacity:0.0; 
stroke:#000000; stroke-width:59.0551; stroke-opacity:1; 
stroke-linecap:round; stroke-linejoin:round;">
<path d="M70135 68183
L70332 68773
L70529 68183
" />
<path d="M70951 68745
L70895 68773
L70782 68773
L70726 68745
L70698 68689
L70698 68464
L70726 68408
L70782 68380
L70895 68380
L70951 68408
L70979 68464
L70979 68520
L70698 68577
" />
<path d="M71232 68380
L71232 68773
" />
<path d="M71232 68436
L71260 68408
L71316 68380
L71401 68380
L71457 68408
L71485 68464
L71485 68773
" />
<path d="M71682 68380
L71907 68380
" />
<path d="M71766 68183
L71766 68689
L71795 68745
L71851 68773
L71907 68773
" />
<path d="M72076 68745
L72132 68773
L72244 68773
L72301 68745
L72329 68689
L72329 68661
L72301 68605
L72244 68577
L72160 68577
L72104 68548
L72076 68492
L72076 68464
L72104 68408
L72160 68380
L72244 68380
L72301 68408
" />
<path d="M72582 68380
L72582 68970
" />
<path d="M72582 68408
L72638 68380
L72751 68380
L72807 68408
L72835 68436
L72863 68492
L72863 68661
L72835 68717
L72807 68745
L72751 68773
L72638 68773
L72582 68745
" />
<path d="M73116 68773
L73116 68380
" />
<path d="M73116 68183
L73088 68211
L73116 68239
L73144 68211
L73116 68183
L73116 68239
" />
<path d="M73482 68773
L73426 68745
L73397 68689
L73397 68183
" />
<path d="M73679 68745
L73735 68773
L73847 68773
L73904 68745
L73932 68689
L73932 68661
L73904 68605
L73847 68577
L73763 68577
L73707 68548
L73679 68492
L73679 68464
L73707 68408
L73763 68380
L73847 68380
L73904 68408
" />
<path d="M74607 68605
L74888 68605
" />
<path d="M74550 68773
L74747 68183
L74944 68773
" />
<path d="M75394 68380
L75394 68773
" />
<path d="M75141 68380
L75141 68689
L75169 68745
L75225 68773
L75310 68773
L75366 68745
L75394 68717
" />
<path d="M75928 68380
L75928 68858
L75900 68914
L75872 68942
L75816 68970
L75732 68970
L75675 68942
" />
<path d="M75928 68745
L75872 68773
L75760 68773
L75703 68745
L75675 68717
L75647 68661
L75647 68492
L75675 68436
L75703 68408
L75760 68380
L75872 68380
L75928 68408
" />
<path d="M76181 68745
L76238 68773
L76350 68773
L76406 68745
L76435 68689
L76435 68661
L76406 68605
L76350 68577
L76266 68577
L76210 68548
L76181 68492
L76181 68464
L76210 68408
L76266 68380
L76350 68380
L76406 68408
" />
<path d="M76603 68380
L76828 68380
" />
<path d="M76688 68183
L76688 68689
L76716 68745
L76772 68773
L76828 68773
" />
<path d="M76997 68745
L77053 68773
L77166 68773
L77222 68745
L77250 68689
L77250 68661
L77222 68605
L77166 68577
L77081 68577
L77025 68548
L76997 68492
L76997 68464
L77025 68408
L77081 68380
L77166 68380
L77222 68408
" />
<path d="M77503 68773
L77503 68183
" />
<path d="M77559 68548
L77728 68773
" />
<path d="M77728 68380
L77503 68605
" />
<path d="M78066 68773
L78009 68745
L77981 68717
L77953 68661
L77953 68492
L77981 68436
L78009 68408
L78066 68380
L78150 68380
L78206 68408
L78234 68436
L78262 68492
L78262 68661
L78234 68717
L78206 68745
L78150 68773
L78066 68773
" />
<path d="M78600 68773
L78544 68745
L78516 68689
L78516 68183
" />
<path d="M79078 68773
L79078 68464
L79050 68408
L78994 68380
L78881 68380
L78825 68408
" />
<path d="M79078 68745
L79022 68773
L78881 68773
L78825 68745
L78797 68689
L78797 68633
L78825 68577
L78881 68548
L79022 68548
L79078 68520
" />
</g>
<g style="fill:#000000; fill-opacity:0.0; 
stroke:#000000; stroke-width:39.3701; stroke-opacity:1; 
stroke-linecap:round; stroke-linejoin:round;">
</g>
<g style="fill:#000000; fill-opacity:0.0; 
stroke:#000000; stroke-width:59.0551; stroke-opacity:1; 
stroke-linecap:round; stroke-linejoin:round;">
<path d="M70220 67592
L70220 67002
L70445 67002
L70501 67030
L70529 67058
L70557 67114
L70557 67199
L70529 67255
L70501 67283
L70445 67311
L70220 67311
" />
<path d="M71148 67536
L71120 67564
L71035 67592
L70979 67592
L70895 67564
L70838 67508
L70810 67452
L70782 67339
L70782 67255
L70810 67142
L70838 67086
L70895 67030
L70979 67002
L71035 67002
L71120 67030
L71148 67058
" />
<path d="M71598 67283
L71682 67311
L71710 67339
L71738 67395
L71738 67480
L71710 67536
L71682 67564
L71626 67592
L71401 67592
L71401 67002
L71598 67002
L71654 67030
L71682 67058
L71710 67114
L71710 67171
L71682 67227
L71654 67255
L71598 67283
L71401 67283
" />
<path d="M71851 67649
L72301 67649
" />
<path d="M72779 67536
L72751 67564
L72666 67592
L72610 67592
L72526 67564
L72469 67508
L72441 67452
L72413 67339
L72413 67255
L72441 67142
L72469 67086
L72526 67030
L72610 67002
L72666 67002
L72751 67030
L72779 67058
" />
<path d="M73004 67424
L73285 67424
" />
<path d="M72947 67592
L73144 67002
L73341 67592
" />
<path d="M73538 67592
L73538 67002
L73679 67002
L73763 67030
L73819 67086
L73847 67142
L73876 67255
L73876 67339
L73847 67452
L73819 67508
L73763 67564
L73679 67592
L73538 67592
" />
<path d="M74579 67592
L74579 67002
" />
<path d="M74635 67367
L74804 67592
" />
<path d="M74804 67199
L74579 67424
" />
<path d="M75310 67199
L75310 67592
" />
<path d="M75057 67199
L75057 67508
L75085 67564
L75141 67592
L75225 67592
L75282 67564
L75310 67536
" />
<path d="M75591 67592
L75591 67199
" />
<path d="M75591 67311
L75619 67255
L75647 67227
L75703 67199
L75760 67199
" />
<path d="M75928 67564
L75985 67592
L76097 67592
L76153 67564
L76181 67508
L76181 67480
L76153 67424
L76097 67395
L76013 67395
L75956 67367
L75928 67311
L75928 67283
L75956 67227
L76013 67199
L76097 67199
L76153 67227
" />
<path d="M76406 67564
L76463 67592
L76575 67592
L76631 67564
L76660 67508
L76660 67480
L76631 67424
L76575 67395
L76491 67395
L76435 67367
L76406 67311
L76406 67283
L76435 67227
L76491 67199
L76575 67199
L76631 67227
" />
</g>
<g style="fill:#000000; fill-opacity:0.0; 
stroke:#000000; stroke-width:39.3701; stroke-opacity:1; 
stroke-linecap:round; stroke-linejoin:round;">
</g>
<g style="fill:#000000; fill-opacity:0.0; 
stroke:#000000; stroke-width:59.0551; stroke-opacity:1; 
stroke-linecap:round; stroke-linejoin:round;">
<path d="M77559 75396
L77559 76577
" />
</g>
<g style="fill:#000000; fill-opacity:0.0; 
stroke:#000000; stroke-width:39.3701; stroke-opacity:1; 
stroke-linecap:round; stroke-linejoin:round;">
</g>
<g style="fill:#000000; fill-opacity:0.0; 
stroke:#000000; stroke-width:59.0551; stroke-opacity:1; 
stroke-linecap:round; stroke-linejoin:round;">
<path d="M102756 75396
L102756 77955
" />
</g>
<g style="fill:#C2C200; fill-opacity:0.0; 
stroke:#C2C200; stroke-width:59.0551; stroke-opacity:1; 
stroke-linecap:round; stroke-linejoin:round;">
<path d="M35000 50000
L59000 50000
" />
<path d="M61000 48000
L61000 33500
" />
</g>
<g style="fill:#C2C200; fill-opacity:0.0; 
stroke:#C2C200; stroke-width:78.7402; stroke-opacity:1; 
stroke-linecap:round; stroke-linejoin:round;">
<path d="M33000 33500
L33000 48000
" />
</g>
<g style="fill:#C2C200; fill-opacity:0.0; 
stroke:#C2C200; stroke-width:59.0551; stroke-opacity:1; 
stroke-linecap:round; stroke-linejoin:round;">
<path d="M59000 31500
L35000 31500
" />
</g>
<g style="fill:#C2C200; fill-opacity:0.0; 
stroke:#C2C200; stroke-width:78.7402; stroke-opacity:1; 
stroke-linecap:round; stroke-linejoin:round;">
<path d="M33000 48000 A2000 2000 0.0 0 0 35000 50000 " />
<path d="M34996.5 31500 A2000 2000 0.0 0 0 33000 33500 " />
<path d="M61000 33500 A2000 2000 0.0 0 0 59000 31500 " />
<path d="M59000 50000 A2000 2000 0.0 0 0 61000 48000 " />
</g>
<g style="fill:#C2C200; fill-opacity:0.0; 
stroke:#C2C200; stroke-width:59.0551; stroke-opacity:1; 
stroke-linecap:round; stroke-linejoin:round;">
<path d="M53934 35640
L53915 35659
L53859 35678
L53821 35678
L53765 35659
L53728 35621
L53709 35584
L53690 35509
L53690 35453
L53709 35378
L53728 35340
L53765 35303
L53821 35284
L53859 35284
L53915 35303
L53934 35321
" />
<path d="M54309 35678
L54084 35678
" />
<path d="M54196 35678
L54196 35284
L54159 35340
L54121 35378
L54084 35396
" />
<path d="M50640 42065
L50659 42084
L50678 42140
L50678 42178
L50659 42234
L50621 42271
L50584 42290
L50509 42309
L50453 42309
L50378 42290
L50340 42271
L50303 42234
L50284 42178
L50284 42140
L50303 42084
L50321 42065
" />
<path d="M50321 41915
L50303 41896
L50284 41859
L50284 41765
L50303 41728
L50321 41709
L50359 41690
L50396 41690
L50453 41709
L50678 41934
L50678 41690
" />
<path d="M34148 38644
L34167 38663
L34185 38719
L34185 38756
L34167 38813
L34129 38850
L34092 38869
L34017 38888
L33961 38888
L33886 38869
L33848 38850
L33811 38813
L33792 38756
L33792 38719
L33811 38663
L33829 38644
" />
<path d="M33792 38513
L33792 38269
L33942 38400
L33942 38344
L33961 38306
L33979 38288
L34017 38269
L34110 38269
L34148 38288
L34167 38306
L34185 38344
L34185 38456
L34167 38494
L34148 38513
" />
<path d="M60430 43534
L60036 43534
L60036 43384
L60055 43347
L60073 43328
L60111 43309
L60167 43309
L60205 43328
L60223 43347
L60242 43384
L60242 43534
" />
<path d="M60430 42934
L60430 43159
" />
<path d="M60430 43047
L60036 43047
L60092 43084
L60130 43122
L60148 43159
" />
<path d="M60430 38034
L60036 38034
L60036 37884
L60055 37847
L60073 37828
L60111 37809
L60167 37809
L60205 37828
L60223 37847
L60242 37884
L60242 38034
" />
<path d="M60073 37659
L60055 37640
L60036 37603
L60036 37509
L60055 37472
L60073 37453
L60111 37434
L60148 37434
L60205 37453
L60430 37678
L60430 37434
" />
<path d="M39462 32314
L39425 32295
L39387 32257
L39331 32201
L39293 32182
L39256 32182
" />
<path d="M39275 32276
L39237 32257
L39200 32220
L39181 32145
L39181 32014
L39200 31939
L39237 31901
L39275 31882
L39350 31882
L39387 31901
L39425 31939
L39443 32014
L39443 32145
L39425 32220
L39387 32257
L39350 32276
L39275 32276
" />
<path d="M39818 32276
L39593 32276
" />
<path d="M39706 32276
L39706 31882
L39668 31939
L39631 31976
L39593 31995
" />
<path d="M41776 40065
L41589 40196
" />
<path d="M41776 40290
L41382 40290
L41382 40140
L41401 40103
L41420 40084
L41457 40065
L41514 40065
L41551 40084
L41570 40103
L41589 40140
L41589 40290
" />
<path d="M41776 39690
L41776 39915
" />
<path d="M41776 39803
L41382 39803
L41439 39840
L41476 39878
L41495 39915
" />
<path d="M47678 40565
L47490 40696
" />
<path d="M47678 40790
L47284 40790
L47284 40640
L47303 40603
L47321 40584
L47359 40565
L47415 40565
L47453 40584
L47471 40603
L47490 40640
L47490 40790
" />
<path d="M47415 40228
L47678 40228
" />
<path d="M47265 40321
L47546 40415
L47546 40171
" />
<path d="M44678 40565
L44490 40696
" />
<path d="M44678 40790
L44284 40790
L44284 40640
L44303 40603
L44321 40584
L44359 40565
L44415 40565
L44453 40584
L44471 40603
L44490 40640
L44490 40790
" />
<path d="M44321 40415
L44303 40396
L44284 40359
L44284 40265
L44303 40228
L44321 40209
L44359 40190
L44396 40190
L44453 40209
L44678 40434
L44678 40190
" />
<path d="M38276 40065
L38089 40196
" />
<path d="M38276 40290
L37882 40290
L37882 40140
L37901 40103
L37920 40084
L37957 40065
L38014 40065
L38051 40084
L38070 40103
L38089 40140
L38089 40290
" />
<path d="M37882 39934
L37882 39690
L38032 39821
L38032 39765
L38051 39728
L38070 39709
L38107 39690
L38201 39690
L38239 39709
L38257 39728
L38276 39765
L38276 39878
L38257 39915
L38239 39934
" />
<path d="M44569 44284
L44569 44565
L44550 44621
L44513 44659
L44457 44678
L44419 44678
" />
<path d="M44963 44678
L44738 44678
" />
<path d="M44850 44678
L44850 44284
L44813 44340
L44775 44378
L44738 44396
" />
</g>
<g style="fill:#008484; fill-opacity:0.0; 
stroke:#008484; stroke-width:59.0551; stroke-opacity:1; 
stroke-linecap:round; stroke-linejoin:round;">
</g>
<g style="fill:#008484; fill-opacity:0.0; 
stroke:#008484; stroke-width:47.2441; stroke-opacity:1; 
stroke-linecap:round; stroke-linejoin:round;">
<path d="M48066 33500
L48775 33500
" />
<path d="M48421 33145
L48421 33854
" />
<path d="M47354 31901
L47354 35098
" />
<path d="M54488 31901
L54488 35098
" />
<path d="M47354 31901
L48062 31901
" />
<path d="M48062 31901
L48417 32255
" />
<path d="M48417 32255
L48771 31901
" />
<path d="M48771 31901
L54488 31901
" />
<path d="M47354 35098
L48062 35098
" />
<path d="M48062 35098
L48417 34744
" />
<path d="M48417 34744
L48771 35098
" />
<path d="M48771 35098
L54488 35098
" />
<path d="M46543 33500
L47354 33500
" />
<path d="M55299 33500
L54488 33500
" />
<path d="M52500 38066
L52500 38775
" />
<path d="M52854 38421
L52145 38421
" />
<path d="M54098 37354
L50901 37354
" />
<path d="M54098 45669
L50901 45669
" />
<path d="M54098 37354
L54098 38062
" />
<path d="M54098 38062
L53744 38417
" />
<path d="M53744 38417
L54098 38771
" />
<path d="M54098 38771
L54098 45669
" />
<path d="M50901 37354
L50901 38062
" />
<path d="M50901 38062
L51255 38417
" />
<path d="M51255 38417
L50901 38771
" />
<path d="M50901 38771
L50901 45669
" />
<path d="M52500 36543
L52500 37354
" />
<path d="M52500 46480
L52500 45669
" />
<path d="M36000 41433
L36000 40724
" />
<path d="M35645 41078
L36354 41078
" />
<path d="M34401 42145
L37598 42145
" />
<path d="M34401 35011
L37598 35011
" />
<path d="M34401 42145
L34401 41437
" />
<path d="M34401 41437
L34755 41082
" />
<path d="M34755 41082
L34401 40728
" />
<path d="M34401 40728
L34401 35011
" />
<path d="M37598 42145
L37598 41437
" />
<path d="M37598 41437
L37244 41082
" />
<path d="M37244 41082
L37598 40728
" />
<path d="M37598 40728
L37598 35011
" />
<path d="M36000 42956
L36000 42145
" />
<path d="M36000 34200
L36000 35011
" />
<path d="M59980 42956
L55019 42956
" />
<path d="M55019 42956
L55019 47031
" />
<path d="M55019 47031
L55393 47031
" />
<path d="M55393 47031
L55295 47228
" />
<path d="M55295 47228
L56043 47228
" />
<path d="M56043 47228
L56062 47228
" />
<path d="M56062 47228
L55964 47031
" />
<path d="M55964 47031
L58090 47031
" />
<path d="M58090 47031
L57972 47228
" />
<path d="M57972 47228
L59980 47228
" />
<path d="M59980 47228
L59980 42956
" />
<path d="M59980 37456
L55019 37456
" />
<path d="M55019 37456
L55019 41531
" />
<path d="M55019 41531
L55393 41531
" />
<path d="M55393 41531
L55295 41728
" />
<path d="M55295 41728
L56043 41728
" />
<path d="M56043 41728
L56062 41728
" />
<path d="M56062 41728
L55964 41531
" />
<path d="M55964 41531
L58090 41531
" />
<path d="M58090 41531
L57972 41728
" />
<path d="M57972 41728
L59980 41728
" />
<path d="M59980 41728
L59980 37456
" />
<path d="M38791 34228
L40208 34228
" />
<path d="M39500 32476.4 A1023.62 1023.62 0.0 0 0 38776.2 34223.8 " />
<path d="M40223.8 34223.8 A1023.62 1023.62 0.0 0 0 39500 32476.4 " />
<path d="M41992 43074
L44007 43074
" />
<path d="M44007 43074
L44007 36925
" />
<path d="M44007 36925
L41992 36925
" />
<path d="M41992 36925
L41992 43074
" />
<path d="M43000 43456
L43000 43074
" />
<path d="M43000 36543
L43000 36925
" />
<path d="M50007 36925
L47992 36925
" />
<path d="M47992 36925
L47992 43074
" />
<path d="M47992 43074
L50007 43074
" />
<path d="M50007 43074
L50007 36925
" />
<path d="M49000 36543
L49000 36925
" />
<path d="M49000 43456
L49000 43074
" />
<path d="M47007 36925
L44992 36925
" />
<path d="M44992 36925
L44992 43074
" />
<path d="M44992 43074
L47007 43074
" />
<path d="M47007 43074
L47007 36925
" />
<path d="M46000 36543
L46000 36925
" />
<path d="M46000 43456
L46000 43074
" />
<path d="M38492 43074
L40507 43074
" />
<path d="M40507 43074
L40507 36925
" />
<path d="M40507 36925
L38492 36925
" />
<path d="M38492 36925
L38492 43074
" />
<path d="M39500 43456
L39500 43074
" />
<path d="M39500 36543
L39500 36925
" />
<path d="M36200 49066
L48011 49066
" />
<path d="M48011 44933
L36200 44933
" />
<path d="M48011.8 49066.9 A2066.93 2066.93 0.0 0 0 48011.8 44933.1 " />
<path d="M36200.8 44933.1 A2066.93 2066.93 0.0 0 0 36200.8 49066.9 " />
</g> 
</svg>
