M48
;DRILL file {KiCad 4.0.7} date 05/08/18 10:34:39
;FORMAT={-:-/ absolute / inch / decimal}
FMAT,2
INCH,TZ
T1C0.024
T2C0.047
T3C0.052
T4C0.240
%
G90
G05
M72
T1
X3.9Y-3.35
X3.95Y-3.3
X4.Y-3.35
T2
X3.6Y-3.3657
X3.6Y-4.35
X3.95Y-3.6
X3.95Y-4.4
X4.3Y-3.6
X4.3Y-4.4
X4.6Y-3.35
X4.6Y-3.6
X4.6Y-4.4
X4.9Y-3.6
X4.9Y-4.4
X5.25Y-3.6
X5.25Y-4.7024
X5.5843Y-3.35
T3
X5.75Y-3.85
X5.75Y-4.0469
X5.75Y-4.4
X5.75Y-4.5969
T4
X3.6201Y-4.7
X4.8Y-4.7
T0
M30
