G04 #@! TF.FileFunction,Legend,Top*
%FSLAX46Y46*%
G04 Gerber Fmt 4.6, Leading zero omitted, Abs format (unit mm)*
G04 Created by KiCad (PCBNEW 4.0.7) date 05/08/18 10:32:52*
%MOMM*%
%LPD*%
G01*
G04 APERTURE LIST*
%ADD10C,0.100000*%
%ADD11C,0.120000*%
%ADD12C,0.150000*%
G04 APERTURE END LIST*
D10*
D11*
X122090000Y-85090000D02*
X123890000Y-85090000D01*
X122990000Y-84190000D02*
X122990000Y-85990000D01*
X120280000Y-81030000D02*
X120280000Y-89150000D01*
X138400000Y-81030000D02*
X138400000Y-89150000D01*
X120280000Y-81030000D02*
X122080000Y-81030000D01*
X122080000Y-81030000D02*
X122980000Y-81930000D01*
X122980000Y-81930000D02*
X123880000Y-81030000D01*
X123880000Y-81030000D02*
X138400000Y-81030000D01*
X120280000Y-89150000D02*
X122080000Y-89150000D01*
X122080000Y-89150000D02*
X122980000Y-88250000D01*
X122980000Y-88250000D02*
X123880000Y-89150000D01*
X123880000Y-89150000D02*
X138400000Y-89150000D01*
X118220000Y-85090000D02*
X120280000Y-85090000D01*
X140460000Y-85090000D02*
X138400000Y-85090000D01*
X133350000Y-96690000D02*
X133350000Y-98490000D01*
X134250000Y-97590000D02*
X132450000Y-97590000D01*
X137410000Y-94880000D02*
X129290000Y-94880000D01*
X137410000Y-116000000D02*
X129290000Y-116000000D01*
X137410000Y-94880000D02*
X137410000Y-96680000D01*
X137410000Y-96680000D02*
X136510000Y-97580000D01*
X136510000Y-97580000D02*
X137410000Y-98480000D01*
X137410000Y-98480000D02*
X137410000Y-116000000D01*
X129290000Y-94880000D02*
X129290000Y-96680000D01*
X129290000Y-96680000D02*
X130190000Y-97580000D01*
X130190000Y-97580000D02*
X129290000Y-98480000D01*
X129290000Y-98480000D02*
X129290000Y-116000000D01*
X133350000Y-92820000D02*
X133350000Y-94880000D01*
X133350000Y-118060000D02*
X133350000Y-116000000D01*
X91440000Y-105240000D02*
X91440000Y-103440000D01*
X90540000Y-104340000D02*
X92340000Y-104340000D01*
X87380000Y-107050000D02*
X95500000Y-107050000D01*
X87380000Y-88930000D02*
X95500000Y-88930000D01*
X87380000Y-107050000D02*
X87380000Y-105250000D01*
X87380000Y-105250000D02*
X88280000Y-104350000D01*
X88280000Y-104350000D02*
X87380000Y-103450000D01*
X87380000Y-103450000D02*
X87380000Y-88930000D01*
X95500000Y-107050000D02*
X95500000Y-105250000D01*
X95500000Y-105250000D02*
X94600000Y-104350000D01*
X94600000Y-104350000D02*
X95500000Y-103450000D01*
X95500000Y-103450000D02*
X95500000Y-88930000D01*
X91440000Y-109110000D02*
X91440000Y-107050000D01*
X91440000Y-86870000D02*
X91440000Y-88930000D01*
X152350000Y-109110000D02*
X139750000Y-109110000D01*
X139750000Y-109110000D02*
X139750000Y-119460000D01*
X139750000Y-119460000D02*
X140700000Y-119460000D01*
X140700000Y-119460000D02*
X140450000Y-119960000D01*
X140450000Y-119960000D02*
X142350000Y-119960000D01*
X142350000Y-119960000D02*
X142400000Y-119960000D01*
X142400000Y-119960000D02*
X142150000Y-119460000D01*
X142150000Y-119460000D02*
X147550000Y-119460000D01*
X147550000Y-119460000D02*
X147250000Y-119960000D01*
X147250000Y-119960000D02*
X152350000Y-119960000D01*
X152350000Y-119960000D02*
X152350000Y-109110000D01*
X152350000Y-95140000D02*
X139750000Y-95140000D01*
X139750000Y-95140000D02*
X139750000Y-105490000D01*
X139750000Y-105490000D02*
X140700000Y-105490000D01*
X140700000Y-105490000D02*
X140450000Y-105990000D01*
X140450000Y-105990000D02*
X142350000Y-105990000D01*
X142350000Y-105990000D02*
X142400000Y-105990000D01*
X142400000Y-105990000D02*
X142150000Y-105490000D01*
X142150000Y-105490000D02*
X147550000Y-105490000D01*
X147550000Y-105490000D02*
X147250000Y-105990000D01*
X147250000Y-105990000D02*
X152350000Y-105990000D01*
X152350000Y-105990000D02*
X152350000Y-95140000D01*
X98530000Y-86940000D02*
X102130000Y-86940000D01*
X98491522Y-86928478D02*
G75*
G02X100330000Y-82490000I1838478J1838478D01*
G01*
X102168478Y-86928478D02*
G75*
G03X100330000Y-82490000I-1838478J1838478D01*
G01*
X106660000Y-109410000D02*
X111780000Y-109410000D01*
X111780000Y-109410000D02*
X111780000Y-93790000D01*
X111780000Y-93790000D02*
X106660000Y-93790000D01*
X106660000Y-93790000D02*
X106660000Y-109410000D01*
X109220000Y-110380000D02*
X109220000Y-109410000D01*
X109220000Y-92820000D02*
X109220000Y-93790000D01*
X127020000Y-93790000D02*
X121900000Y-93790000D01*
X121900000Y-93790000D02*
X121900000Y-109410000D01*
X121900000Y-109410000D02*
X127020000Y-109410000D01*
X127020000Y-109410000D02*
X127020000Y-93790000D01*
X124460000Y-92820000D02*
X124460000Y-93790000D01*
X124460000Y-110380000D02*
X124460000Y-109410000D01*
X119400000Y-93790000D02*
X114280000Y-93790000D01*
X114280000Y-93790000D02*
X114280000Y-109410000D01*
X114280000Y-109410000D02*
X119400000Y-109410000D01*
X119400000Y-109410000D02*
X119400000Y-93790000D01*
X116840000Y-92820000D02*
X116840000Y-93790000D01*
X116840000Y-110380000D02*
X116840000Y-109410000D01*
X97770000Y-109410000D02*
X102890000Y-109410000D01*
X102890000Y-109410000D02*
X102890000Y-93790000D01*
X102890000Y-93790000D02*
X97770000Y-93790000D01*
X97770000Y-93790000D02*
X97770000Y-109410000D01*
X100330000Y-110380000D02*
X100330000Y-109410000D01*
X100330000Y-92820000D02*
X100330000Y-93790000D01*
X91950000Y-124630000D02*
X121950000Y-124630000D01*
X121950000Y-114130000D02*
X91950000Y-114130000D01*
X121950000Y-124630000D02*
G75*
G03X121950000Y-114130000I0J5250000D01*
G01*
X91950000Y-114130000D02*
G75*
G03X91950000Y-124630000I0J-5250000D01*
G01*
D12*
X136993334Y-90527143D02*
X136945715Y-90574762D01*
X136802858Y-90622381D01*
X136707620Y-90622381D01*
X136564762Y-90574762D01*
X136469524Y-90479524D01*
X136421905Y-90384286D01*
X136374286Y-90193810D01*
X136374286Y-90050952D01*
X136421905Y-89860476D01*
X136469524Y-89765238D01*
X136564762Y-89670000D01*
X136707620Y-89622381D01*
X136802858Y-89622381D01*
X136945715Y-89670000D01*
X136993334Y-89717619D01*
X137945715Y-90622381D02*
X137374286Y-90622381D01*
X137660000Y-90622381D02*
X137660000Y-89622381D01*
X137564762Y-89765238D01*
X137469524Y-89860476D01*
X137374286Y-89908095D01*
X128627143Y-106846666D02*
X128674762Y-106894285D01*
X128722381Y-107037142D01*
X128722381Y-107132380D01*
X128674762Y-107275238D01*
X128579524Y-107370476D01*
X128484286Y-107418095D01*
X128293810Y-107465714D01*
X128150952Y-107465714D01*
X127960476Y-107418095D01*
X127865238Y-107370476D01*
X127770000Y-107275238D01*
X127722381Y-107132380D01*
X127722381Y-107037142D01*
X127770000Y-106894285D01*
X127817619Y-106846666D01*
X127817619Y-106465714D02*
X127770000Y-106418095D01*
X127722381Y-106322857D01*
X127722381Y-106084761D01*
X127770000Y-105989523D01*
X127817619Y-105941904D01*
X127912857Y-105894285D01*
X128008095Y-105894285D01*
X128150952Y-105941904D01*
X128722381Y-106513333D01*
X128722381Y-105894285D01*
X86737143Y-98156666D02*
X86784762Y-98204285D01*
X86832381Y-98347142D01*
X86832381Y-98442380D01*
X86784762Y-98585238D01*
X86689524Y-98680476D01*
X86594286Y-98728095D01*
X86403810Y-98775714D01*
X86260952Y-98775714D01*
X86070476Y-98728095D01*
X85975238Y-98680476D01*
X85880000Y-98585238D01*
X85832381Y-98442380D01*
X85832381Y-98347142D01*
X85880000Y-98204285D01*
X85927619Y-98156666D01*
X85832381Y-97823333D02*
X85832381Y-97204285D01*
X86213333Y-97537619D01*
X86213333Y-97394761D01*
X86260952Y-97299523D01*
X86308571Y-97251904D01*
X86403810Y-97204285D01*
X86641905Y-97204285D01*
X86737143Y-97251904D01*
X86784762Y-97299523D01*
X86832381Y-97394761D01*
X86832381Y-97680476D01*
X86784762Y-97775714D01*
X86737143Y-97823333D01*
X153492381Y-110578095D02*
X152492381Y-110578095D01*
X152492381Y-110197142D01*
X152540000Y-110101904D01*
X152587619Y-110054285D01*
X152682857Y-110006666D01*
X152825714Y-110006666D01*
X152920952Y-110054285D01*
X152968571Y-110101904D01*
X153016190Y-110197142D01*
X153016190Y-110578095D01*
X153492381Y-109054285D02*
X153492381Y-109625714D01*
X153492381Y-109340000D02*
X152492381Y-109340000D01*
X152635238Y-109435238D01*
X152730476Y-109530476D01*
X152778095Y-109625714D01*
X153492381Y-96608095D02*
X152492381Y-96608095D01*
X152492381Y-96227142D01*
X152540000Y-96131904D01*
X152587619Y-96084285D01*
X152682857Y-96036666D01*
X152825714Y-96036666D01*
X152920952Y-96084285D01*
X152968571Y-96131904D01*
X153016190Y-96227142D01*
X153016190Y-96608095D01*
X152587619Y-95655714D02*
X152540000Y-95608095D01*
X152492381Y-95512857D01*
X152492381Y-95274761D01*
X152540000Y-95179523D01*
X152587619Y-95131904D01*
X152682857Y-95084285D01*
X152778095Y-95084285D01*
X152920952Y-95131904D01*
X153492381Y-95703333D01*
X153492381Y-95084285D01*
X100234762Y-82077619D02*
X100139524Y-82030000D01*
X100044286Y-81934762D01*
X99901429Y-81791905D01*
X99806190Y-81744286D01*
X99710952Y-81744286D01*
X99758571Y-81982381D02*
X99663333Y-81934762D01*
X99568095Y-81839524D01*
X99520476Y-81649048D01*
X99520476Y-81315714D01*
X99568095Y-81125238D01*
X99663333Y-81030000D01*
X99758571Y-80982381D01*
X99949048Y-80982381D01*
X100044286Y-81030000D01*
X100139524Y-81125238D01*
X100187143Y-81315714D01*
X100187143Y-81649048D01*
X100139524Y-81839524D01*
X100044286Y-81934762D01*
X99949048Y-81982381D01*
X99758571Y-81982381D01*
X101139524Y-81982381D02*
X100568095Y-81982381D01*
X100853809Y-81982381D02*
X100853809Y-80982381D01*
X100758571Y-81125238D01*
X100663333Y-81220476D01*
X100568095Y-81268095D01*
X106112381Y-101766666D02*
X105636190Y-102100000D01*
X106112381Y-102338095D02*
X105112381Y-102338095D01*
X105112381Y-101957142D01*
X105160000Y-101861904D01*
X105207619Y-101814285D01*
X105302857Y-101766666D01*
X105445714Y-101766666D01*
X105540952Y-101814285D01*
X105588571Y-101861904D01*
X105636190Y-101957142D01*
X105636190Y-102338095D01*
X106112381Y-100814285D02*
X106112381Y-101385714D01*
X106112381Y-101100000D02*
X105112381Y-101100000D01*
X105255238Y-101195238D01*
X105350476Y-101290476D01*
X105398095Y-101385714D01*
X121102381Y-103036666D02*
X120626190Y-103370000D01*
X121102381Y-103608095D02*
X120102381Y-103608095D01*
X120102381Y-103227142D01*
X120150000Y-103131904D01*
X120197619Y-103084285D01*
X120292857Y-103036666D01*
X120435714Y-103036666D01*
X120530952Y-103084285D01*
X120578571Y-103131904D01*
X120626190Y-103227142D01*
X120626190Y-103608095D01*
X120435714Y-102179523D02*
X121102381Y-102179523D01*
X120054762Y-102417619D02*
X120769048Y-102655714D01*
X120769048Y-102036666D01*
X113482381Y-103036666D02*
X113006190Y-103370000D01*
X113482381Y-103608095D02*
X112482381Y-103608095D01*
X112482381Y-103227142D01*
X112530000Y-103131904D01*
X112577619Y-103084285D01*
X112672857Y-103036666D01*
X112815714Y-103036666D01*
X112910952Y-103084285D01*
X112958571Y-103131904D01*
X113006190Y-103227142D01*
X113006190Y-103608095D01*
X112577619Y-102655714D02*
X112530000Y-102608095D01*
X112482381Y-102512857D01*
X112482381Y-102274761D01*
X112530000Y-102179523D01*
X112577619Y-102131904D01*
X112672857Y-102084285D01*
X112768095Y-102084285D01*
X112910952Y-102131904D01*
X113482381Y-102703333D01*
X113482381Y-102084285D01*
X97222381Y-101766666D02*
X96746190Y-102100000D01*
X97222381Y-102338095D02*
X96222381Y-102338095D01*
X96222381Y-101957142D01*
X96270000Y-101861904D01*
X96317619Y-101814285D01*
X96412857Y-101766666D01*
X96555714Y-101766666D01*
X96650952Y-101814285D01*
X96698571Y-101861904D01*
X96746190Y-101957142D01*
X96746190Y-102338095D01*
X96222381Y-101433333D02*
X96222381Y-100814285D01*
X96603333Y-101147619D01*
X96603333Y-101004761D01*
X96650952Y-100909523D01*
X96698571Y-100861904D01*
X96793810Y-100814285D01*
X97031905Y-100814285D01*
X97127143Y-100861904D01*
X97174762Y-100909523D01*
X97222381Y-101004761D01*
X97222381Y-101290476D01*
X97174762Y-101385714D01*
X97127143Y-101433333D01*
X113206667Y-112482381D02*
X113206667Y-113196667D01*
X113159047Y-113339524D01*
X113063809Y-113434762D01*
X112920952Y-113482381D01*
X112825714Y-113482381D01*
X114206667Y-113482381D02*
X113635238Y-113482381D01*
X113920952Y-113482381D02*
X113920952Y-112482381D01*
X113825714Y-112625238D01*
X113730476Y-112720476D01*
X113635238Y-112768095D01*
M02*
