G04 #@! TF.FileFunction,Soldermask,Bot*
%FSLAX46Y46*%
G04 Gerber Fmt 4.6, Leading zero omitted, Abs format (unit mm)*
G04 Created by KiCad (PCBNEW 4.0.7) date 06/09/18 16:01:23*
%MOMM*%
%LPD*%
G01*
G04 APERTURE LIST*
%ADD10C,0.100000*%
%ADD11C,1.800000*%
%ADD12R,2.400000X2.400000*%
%ADD13C,2.400000*%
%ADD14C,1.600000*%
%ADD15C,2.800000*%
%ADD16C,2.000000*%
%ADD17O,2.000000X2.000000*%
%ADD18R,4.360000X2.380000*%
%ADD19O,4.360000X2.380000*%
%ADD20C,10.560000*%
%ADD21R,2.800000X2.800000*%
%ADD22O,2.800000X2.800000*%
%ADD23O,3.410000X1.910000*%
%ADD24R,1.668000X1.668000*%
%ADD25C,1.668000*%
%ADD26C,5.400000*%
G04 APERTURE END LIST*
D10*
D11*
X243840000Y-43910000D03*
X241840000Y-41910000D03*
X241840000Y-45910000D03*
D12*
X171450000Y-64770000D03*
D13*
X166450000Y-64770000D03*
D11*
X175990000Y-41370000D03*
X173990000Y-39370000D03*
X173990000Y-43370000D03*
D14*
X255310000Y-62230000D03*
X260310000Y-62230000D03*
X257810000Y-64730000D03*
D15*
X250190000Y-72390000D03*
X222690000Y-72390000D03*
D11*
X191040000Y-95250000D03*
X193040000Y-97250000D03*
X193040000Y-93250000D03*
D14*
X236220000Y-87630000D03*
X236220000Y-82630000D03*
X238720000Y-85130000D03*
X210820000Y-69850000D03*
X205820000Y-69850000D03*
X208320000Y-67350000D03*
D16*
X189230000Y-71120000D03*
D17*
X189230000Y-55880000D03*
D12*
X181610000Y-115570000D03*
D13*
X181610000Y-110570000D03*
D12*
X190580000Y-125730000D03*
D13*
X195580000Y-125730000D03*
D12*
X189230000Y-81280000D03*
D13*
X194230000Y-81280000D03*
D12*
X214630000Y-100410000D03*
D13*
X214630000Y-105410000D03*
D12*
X190500000Y-113030000D03*
D13*
X195500000Y-113030000D03*
D18*
X168910000Y-50800000D03*
D19*
X168910000Y-55800000D03*
D18*
X261620000Y-76120000D03*
D19*
X261620000Y-71120000D03*
D20*
X262890000Y-93980000D03*
X262890000Y-123950000D03*
D16*
X171450000Y-107950000D03*
D17*
X171450000Y-123190000D03*
D16*
X184150000Y-104140000D03*
D17*
X199390000Y-104140000D03*
D16*
X182880000Y-71120000D03*
D17*
X182880000Y-86360000D03*
D16*
X228600000Y-118110000D03*
D17*
X243840000Y-118110000D03*
D16*
X200660000Y-77470000D03*
D17*
X200660000Y-92710000D03*
D16*
X165100000Y-44450000D03*
D17*
X165100000Y-29210000D03*
D16*
X176530000Y-71120000D03*
D17*
X176530000Y-86360000D03*
D16*
X223520000Y-113030000D03*
D17*
X208280000Y-113030000D03*
D16*
X194310000Y-55880000D03*
D17*
X194310000Y-71120000D03*
D16*
X204470000Y-97790000D03*
D17*
X204470000Y-113030000D03*
D16*
X199390000Y-68580000D03*
D17*
X199390000Y-53340000D03*
D16*
X205740000Y-60960000D03*
D17*
X220980000Y-60960000D03*
D16*
X238760000Y-106680000D03*
D17*
X223520000Y-106680000D03*
D16*
X220980000Y-55880000D03*
D17*
X205740000Y-55880000D03*
D16*
X228600000Y-113030000D03*
D17*
X243840000Y-113030000D03*
D16*
X223520000Y-52070000D03*
D17*
X238760000Y-52070000D03*
D16*
X217170000Y-81280000D03*
D17*
X217170000Y-66040000D03*
D16*
X250190000Y-44450000D03*
D17*
X265430000Y-44450000D03*
D16*
X238760000Y-101600000D03*
D17*
X223520000Y-101600000D03*
D16*
X243840000Y-90170000D03*
D17*
X243840000Y-105410000D03*
D16*
X250190000Y-54610000D03*
D17*
X265430000Y-54610000D03*
D16*
X248920000Y-90170000D03*
D17*
X248920000Y-105410000D03*
D16*
X250190000Y-49530000D03*
D17*
X265430000Y-49530000D03*
D16*
X254000000Y-90170000D03*
D17*
X254000000Y-105410000D03*
D16*
X224790000Y-60960000D03*
D17*
X240030000Y-60960000D03*
D11*
X179800000Y-99790000D03*
X181800000Y-97790000D03*
X177800000Y-97790000D03*
X208280000Y-90900000D03*
X208280000Y-88900000D03*
X208280000Y-92900000D03*
D21*
X186690000Y-38100000D03*
D22*
X186690000Y-53340000D03*
D21*
X172720000Y-30480000D03*
D22*
X187960000Y-30480000D03*
D21*
X219710000Y-30480000D03*
D22*
X219710000Y-45720000D03*
D21*
X198120000Y-30480000D03*
D22*
X213360000Y-30480000D03*
D21*
X213360000Y-39370000D03*
D22*
X198120000Y-39370000D03*
D21*
X198120000Y-46990000D03*
D22*
X213360000Y-46990000D03*
D14*
X228600000Y-46990000D03*
X228600000Y-41990000D03*
X231100000Y-44490000D03*
D11*
X223520000Y-85820000D03*
X223520000Y-87820000D03*
X223520000Y-83820000D03*
D23*
X245110000Y-52070000D03*
X245110000Y-54610000D03*
X245110000Y-57150000D03*
X252730000Y-86360000D03*
X252730000Y-83820000D03*
X252730000Y-81280000D03*
D21*
X223520000Y-95250000D03*
D22*
X238760000Y-95250000D03*
D16*
X171450000Y-104140000D03*
D17*
X171450000Y-88900000D03*
D24*
X194310000Y-46990000D03*
D25*
X191770000Y-44450000D03*
X194310000Y-41910000D03*
D24*
X208280000Y-116840000D03*
D25*
X205740000Y-119380000D03*
X203200000Y-116840000D03*
D26*
X261620000Y-33020000D03*
X251460000Y-114300000D03*
X181610000Y-60960000D03*
X180340000Y-124460000D03*
M02*
