G04 #@! TF.FileFunction,Legend,Top*
%FSLAX46Y46*%
G04 Gerber Fmt 4.6, Leading zero omitted, Abs format (unit mm)*
G04 Created by KiCad (PCBNEW 4.0.7) date 06/09/18 16:01:23*
%MOMM*%
%LPD*%
G01*
G04 APERTURE LIST*
%ADD10C,0.100000*%
%ADD11C,0.150000*%
%ADD12C,0.120000*%
%ADD13C,0.127000*%
%ADD14C,0.050000*%
G04 APERTURE END LIST*
D10*
D11*
X242240000Y-39110000D02*
G75*
G03X242240000Y-39110000I-400000J0D01*
G01*
X245840000Y-43910000D02*
G75*
G03X245840000Y-43910000I-4000000J0D01*
G01*
X247440000Y-43910000D02*
G75*
G03X247440000Y-43910000I-5600000J0D01*
G01*
D12*
X164051563Y-66153264D02*
G75*
G03X173849357Y-66150000I4898437J1383264D01*
G01*
X164051563Y-63386736D02*
G75*
G02X173849357Y-63390000I4898437J-1383264D01*
G01*
X164051563Y-63386736D02*
G75*
G03X164050643Y-66150000I4898437J-1383264D01*
G01*
X168950000Y-69820000D02*
X168950000Y-59720000D01*
X168910000Y-69820000D02*
X168910000Y-59720000D01*
X168870000Y-69820000D02*
X168870000Y-59720000D01*
X168830000Y-69819000D02*
X168830000Y-59721000D01*
X168790000Y-69818000D02*
X168790000Y-59722000D01*
X168750000Y-69817000D02*
X168750000Y-59723000D01*
X168710000Y-69815000D02*
X168710000Y-59725000D01*
X168670000Y-69813000D02*
X168670000Y-59727000D01*
X168630000Y-69810000D02*
X168630000Y-59730000D01*
X168590000Y-69808000D02*
X168590000Y-59732000D01*
X168550000Y-69805000D02*
X168550000Y-59735000D01*
X168510000Y-69801000D02*
X168510000Y-59739000D01*
X168470000Y-69798000D02*
X168470000Y-59742000D01*
X168430000Y-69794000D02*
X168430000Y-59746000D01*
X168390000Y-69790000D02*
X168390000Y-59750000D01*
X168350000Y-69785000D02*
X168350000Y-59755000D01*
X168310000Y-69780000D02*
X168310000Y-59760000D01*
X168270000Y-69775000D02*
X168270000Y-59765000D01*
X168229000Y-69769000D02*
X168229000Y-59771000D01*
X168189000Y-69763000D02*
X168189000Y-59777000D01*
X168149000Y-69757000D02*
X168149000Y-59783000D01*
X168109000Y-69751000D02*
X168109000Y-59789000D01*
X168069000Y-69744000D02*
X168069000Y-59796000D01*
X168029000Y-69737000D02*
X168029000Y-59803000D01*
X167989000Y-69729000D02*
X167989000Y-59811000D01*
X167949000Y-69721000D02*
X167949000Y-59819000D01*
X167909000Y-69713000D02*
X167909000Y-59827000D01*
X167869000Y-69705000D02*
X167869000Y-59835000D01*
X167829000Y-69696000D02*
X167829000Y-59844000D01*
X167789000Y-69687000D02*
X167789000Y-59853000D01*
X167749000Y-69677000D02*
X167749000Y-59863000D01*
X167709000Y-69667000D02*
X167709000Y-59873000D01*
X167669000Y-69657000D02*
X167669000Y-59883000D01*
X167629000Y-69646000D02*
X167629000Y-65951000D01*
X167629000Y-63589000D02*
X167629000Y-59894000D01*
X167589000Y-69635000D02*
X167589000Y-65951000D01*
X167589000Y-63589000D02*
X167589000Y-59905000D01*
X167549000Y-69624000D02*
X167549000Y-65951000D01*
X167549000Y-63589000D02*
X167549000Y-59916000D01*
X167509000Y-69613000D02*
X167509000Y-65951000D01*
X167509000Y-63589000D02*
X167509000Y-59927000D01*
X167469000Y-69601000D02*
X167469000Y-65951000D01*
X167469000Y-63589000D02*
X167469000Y-59939000D01*
X167429000Y-69588000D02*
X167429000Y-65951000D01*
X167429000Y-63589000D02*
X167429000Y-59952000D01*
X167389000Y-69576000D02*
X167389000Y-65951000D01*
X167389000Y-63589000D02*
X167389000Y-59964000D01*
X167349000Y-69562000D02*
X167349000Y-65951000D01*
X167349000Y-63589000D02*
X167349000Y-59978000D01*
X167309000Y-69549000D02*
X167309000Y-65951000D01*
X167309000Y-63589000D02*
X167309000Y-59991000D01*
X167269000Y-69535000D02*
X167269000Y-65951000D01*
X167269000Y-63589000D02*
X167269000Y-60005000D01*
X167229000Y-69521000D02*
X167229000Y-65951000D01*
X167229000Y-63589000D02*
X167229000Y-60019000D01*
X167189000Y-69507000D02*
X167189000Y-65951000D01*
X167189000Y-63589000D02*
X167189000Y-60033000D01*
X167149000Y-69492000D02*
X167149000Y-65951000D01*
X167149000Y-63589000D02*
X167149000Y-60048000D01*
X167109000Y-69476000D02*
X167109000Y-65951000D01*
X167109000Y-63589000D02*
X167109000Y-60064000D01*
X167069000Y-69461000D02*
X167069000Y-65951000D01*
X167069000Y-63589000D02*
X167069000Y-60079000D01*
X167029000Y-69444000D02*
X167029000Y-65951000D01*
X167029000Y-63589000D02*
X167029000Y-60096000D01*
X166989000Y-69428000D02*
X166989000Y-65951000D01*
X166989000Y-63589000D02*
X166989000Y-60112000D01*
X166949000Y-69411000D02*
X166949000Y-65951000D01*
X166949000Y-63589000D02*
X166949000Y-60129000D01*
X166909000Y-69394000D02*
X166909000Y-65951000D01*
X166909000Y-63589000D02*
X166909000Y-60146000D01*
X166869000Y-69376000D02*
X166869000Y-65951000D01*
X166869000Y-63589000D02*
X166869000Y-60164000D01*
X166829000Y-69358000D02*
X166829000Y-65951000D01*
X166829000Y-63589000D02*
X166829000Y-60182000D01*
X166789000Y-69339000D02*
X166789000Y-65951000D01*
X166789000Y-63589000D02*
X166789000Y-60201000D01*
X166749000Y-69320000D02*
X166749000Y-65951000D01*
X166749000Y-63589000D02*
X166749000Y-60220000D01*
X166709000Y-69301000D02*
X166709000Y-65951000D01*
X166709000Y-63589000D02*
X166709000Y-60239000D01*
X166669000Y-69281000D02*
X166669000Y-65951000D01*
X166669000Y-63589000D02*
X166669000Y-60259000D01*
X166629000Y-69261000D02*
X166629000Y-65951000D01*
X166629000Y-63589000D02*
X166629000Y-60279000D01*
X166589000Y-69240000D02*
X166589000Y-65951000D01*
X166589000Y-63589000D02*
X166589000Y-60300000D01*
X166549000Y-69219000D02*
X166549000Y-65951000D01*
X166549000Y-63589000D02*
X166549000Y-60321000D01*
X166509000Y-69198000D02*
X166509000Y-65951000D01*
X166509000Y-63589000D02*
X166509000Y-60342000D01*
X166469000Y-69175000D02*
X166469000Y-65951000D01*
X166469000Y-63589000D02*
X166469000Y-60365000D01*
X166429000Y-69153000D02*
X166429000Y-65951000D01*
X166429000Y-63589000D02*
X166429000Y-60387000D01*
X166389000Y-69130000D02*
X166389000Y-65951000D01*
X166389000Y-63589000D02*
X166389000Y-60410000D01*
X166349000Y-69106000D02*
X166349000Y-65951000D01*
X166349000Y-63589000D02*
X166349000Y-60434000D01*
X166309000Y-69082000D02*
X166309000Y-65951000D01*
X166309000Y-63589000D02*
X166309000Y-60458000D01*
X166269000Y-69058000D02*
X166269000Y-65951000D01*
X166269000Y-63589000D02*
X166269000Y-60482000D01*
X166229000Y-69033000D02*
X166229000Y-65951000D01*
X166229000Y-63589000D02*
X166229000Y-60507000D01*
X166189000Y-69007000D02*
X166189000Y-65951000D01*
X166189000Y-63589000D02*
X166189000Y-60533000D01*
X166149000Y-68981000D02*
X166149000Y-65951000D01*
X166149000Y-63589000D02*
X166149000Y-60559000D01*
X166109000Y-68955000D02*
X166109000Y-65951000D01*
X166109000Y-63589000D02*
X166109000Y-60585000D01*
X166069000Y-68927000D02*
X166069000Y-65951000D01*
X166069000Y-63589000D02*
X166069000Y-60613000D01*
X166029000Y-68900000D02*
X166029000Y-65951000D01*
X166029000Y-63589000D02*
X166029000Y-60640000D01*
X165989000Y-68871000D02*
X165989000Y-65951000D01*
X165989000Y-63589000D02*
X165989000Y-60669000D01*
X165949000Y-68842000D02*
X165949000Y-65951000D01*
X165949000Y-63589000D02*
X165949000Y-60698000D01*
X165909000Y-68813000D02*
X165909000Y-65951000D01*
X165909000Y-63589000D02*
X165909000Y-60727000D01*
X165869000Y-68783000D02*
X165869000Y-65951000D01*
X165869000Y-63589000D02*
X165869000Y-60757000D01*
X165829000Y-68752000D02*
X165829000Y-65951000D01*
X165829000Y-63589000D02*
X165829000Y-60788000D01*
X165789000Y-68721000D02*
X165789000Y-65951000D01*
X165789000Y-63589000D02*
X165789000Y-60819000D01*
X165749000Y-68689000D02*
X165749000Y-65951000D01*
X165749000Y-63589000D02*
X165749000Y-60851000D01*
X165709000Y-68656000D02*
X165709000Y-65951000D01*
X165709000Y-63589000D02*
X165709000Y-60884000D01*
X165669000Y-68623000D02*
X165669000Y-65951000D01*
X165669000Y-63589000D02*
X165669000Y-60917000D01*
X165629000Y-68589000D02*
X165629000Y-65951000D01*
X165629000Y-63589000D02*
X165629000Y-60951000D01*
X165589000Y-68554000D02*
X165589000Y-65951000D01*
X165589000Y-63589000D02*
X165589000Y-60986000D01*
X165549000Y-68518000D02*
X165549000Y-65951000D01*
X165549000Y-63589000D02*
X165549000Y-61022000D01*
X165509000Y-68482000D02*
X165509000Y-65951000D01*
X165509000Y-63589000D02*
X165509000Y-61058000D01*
X165469000Y-68445000D02*
X165469000Y-65951000D01*
X165469000Y-63589000D02*
X165469000Y-61095000D01*
X165429000Y-68407000D02*
X165429000Y-65951000D01*
X165429000Y-63589000D02*
X165429000Y-61133000D01*
X165389000Y-68368000D02*
X165389000Y-65951000D01*
X165389000Y-63589000D02*
X165389000Y-61172000D01*
X165349000Y-68329000D02*
X165349000Y-65951000D01*
X165349000Y-63589000D02*
X165349000Y-61211000D01*
X165309000Y-68288000D02*
X165309000Y-65951000D01*
X165309000Y-63589000D02*
X165309000Y-61252000D01*
X165269000Y-68247000D02*
X165269000Y-61293000D01*
X165229000Y-68205000D02*
X165229000Y-61335000D01*
X165189000Y-68161000D02*
X165189000Y-61379000D01*
X165149000Y-68117000D02*
X165149000Y-61423000D01*
X165109000Y-68072000D02*
X165109000Y-61468000D01*
X165069000Y-68025000D02*
X165069000Y-61515000D01*
X165029000Y-67977000D02*
X165029000Y-61563000D01*
X164989000Y-67928000D02*
X164989000Y-61612000D01*
X164949000Y-67878000D02*
X164949000Y-61662000D01*
X164909000Y-67827000D02*
X164909000Y-61713000D01*
X164869000Y-67774000D02*
X164869000Y-61766000D01*
X164829000Y-67719000D02*
X164829000Y-61821000D01*
X164789000Y-67664000D02*
X164789000Y-61876000D01*
X164749000Y-67606000D02*
X164749000Y-61934000D01*
X164709000Y-67547000D02*
X164709000Y-61993000D01*
X164669000Y-67485000D02*
X164669000Y-62055000D01*
X164629000Y-67422000D02*
X164629000Y-62118000D01*
X164589000Y-67357000D02*
X164589000Y-62183000D01*
X164549000Y-67289000D02*
X164549000Y-62251000D01*
X164509000Y-67219000D02*
X164509000Y-62321000D01*
X164469000Y-67147000D02*
X164469000Y-62393000D01*
X164429000Y-67071000D02*
X164429000Y-62469000D01*
X164389000Y-66992000D02*
X164389000Y-62548000D01*
X164349000Y-66910000D02*
X164349000Y-62630000D01*
X164309000Y-66823000D02*
X164309000Y-62717000D01*
X164269000Y-66732000D02*
X164269000Y-62808000D01*
X164229000Y-66636000D02*
X164229000Y-62904000D01*
X164189000Y-66533000D02*
X164189000Y-63007000D01*
X164149000Y-66424000D02*
X164149000Y-63116000D01*
X164109000Y-66306000D02*
X164109000Y-63234000D01*
X164069000Y-66177000D02*
X164069000Y-63363000D01*
X164029000Y-66035000D02*
X164029000Y-63505000D01*
X163989000Y-65874000D02*
X163989000Y-63666000D01*
X163949000Y-65683000D02*
X163949000Y-63857000D01*
X163909000Y-65442000D02*
X163909000Y-64098000D01*
X163869000Y-65049000D02*
X163869000Y-64491000D01*
X174150000Y-64770000D02*
X172650000Y-64770000D01*
X173400000Y-65520000D02*
X173400000Y-64020000D01*
D11*
X174390000Y-36570000D02*
G75*
G03X174390000Y-36570000I-400000J0D01*
G01*
X177990000Y-41370000D02*
G75*
G03X177990000Y-41370000I-4000000J0D01*
G01*
X179590000Y-41370000D02*
G75*
G03X179590000Y-41370000I-5600000J0D01*
G01*
D12*
X254210000Y-59330000D02*
X253610000Y-58830000D01*
X253610000Y-58830000D02*
X254310000Y-58230000D01*
X254310000Y-58230000D02*
X254710000Y-58730000D01*
X262410000Y-62230000D02*
G75*
G03X262410000Y-62230000I-4600000J0D01*
G01*
X253000000Y-78950000D02*
X219880000Y-78950000D01*
X253000000Y-65830000D02*
X219880000Y-65830000D01*
X253000000Y-78950000D02*
X253000000Y-65830000D01*
X219880000Y-78950000D02*
X219880000Y-65830000D01*
D11*
X193440000Y-100050000D02*
G75*
G03X193440000Y-100050000I-400000J0D01*
G01*
X197040000Y-95250000D02*
G75*
G03X197040000Y-95250000I-4000000J0D01*
G01*
X198640000Y-95250000D02*
G75*
G03X198640000Y-95250000I-5600000J0D01*
G01*
D12*
X233320000Y-88730000D02*
X232820000Y-89330000D01*
X232820000Y-89330000D02*
X232220000Y-88630000D01*
X232220000Y-88630000D02*
X232720000Y-88230000D01*
X240820000Y-85130000D02*
G75*
G03X240820000Y-85130000I-4600000J0D01*
G01*
X211920000Y-72750000D02*
X212520000Y-73250000D01*
X212520000Y-73250000D02*
X211820000Y-73850000D01*
X211820000Y-73850000D02*
X211420000Y-73350000D01*
X212920000Y-69850000D02*
G75*
G03X212920000Y-69850000I-4600000J0D01*
G01*
X187920000Y-66710000D02*
X190540000Y-66710000D01*
X190540000Y-66710000D02*
X190540000Y-60290000D01*
X190540000Y-60290000D02*
X187920000Y-60290000D01*
X187920000Y-60290000D02*
X187920000Y-66710000D01*
X189230000Y-70140000D02*
X189230000Y-66710000D01*
X189230000Y-56860000D02*
X189230000Y-60290000D01*
X180226736Y-108171563D02*
G75*
G03X180230000Y-117969357I1383264J-4898437D01*
G01*
X182993264Y-108171563D02*
G75*
G02X182990000Y-117969357I-1383264J-4898437D01*
G01*
X182993264Y-108171563D02*
G75*
G03X180230000Y-108170643I-1383264J-4898437D01*
G01*
X176560000Y-113070000D02*
X186660000Y-113070000D01*
X176560000Y-113030000D02*
X186660000Y-113030000D01*
X176560000Y-112990000D02*
X186660000Y-112990000D01*
X176561000Y-112950000D02*
X186659000Y-112950000D01*
X176562000Y-112910000D02*
X186658000Y-112910000D01*
X176563000Y-112870000D02*
X186657000Y-112870000D01*
X176565000Y-112830000D02*
X186655000Y-112830000D01*
X176567000Y-112790000D02*
X186653000Y-112790000D01*
X176570000Y-112750000D02*
X186650000Y-112750000D01*
X176572000Y-112710000D02*
X186648000Y-112710000D01*
X176575000Y-112670000D02*
X186645000Y-112670000D01*
X176579000Y-112630000D02*
X186641000Y-112630000D01*
X176582000Y-112590000D02*
X186638000Y-112590000D01*
X176586000Y-112550000D02*
X186634000Y-112550000D01*
X176590000Y-112510000D02*
X186630000Y-112510000D01*
X176595000Y-112470000D02*
X186625000Y-112470000D01*
X176600000Y-112430000D02*
X186620000Y-112430000D01*
X176605000Y-112390000D02*
X186615000Y-112390000D01*
X176611000Y-112349000D02*
X186609000Y-112349000D01*
X176617000Y-112309000D02*
X186603000Y-112309000D01*
X176623000Y-112269000D02*
X186597000Y-112269000D01*
X176629000Y-112229000D02*
X186591000Y-112229000D01*
X176636000Y-112189000D02*
X186584000Y-112189000D01*
X176643000Y-112149000D02*
X186577000Y-112149000D01*
X176651000Y-112109000D02*
X186569000Y-112109000D01*
X176659000Y-112069000D02*
X186561000Y-112069000D01*
X176667000Y-112029000D02*
X186553000Y-112029000D01*
X176675000Y-111989000D02*
X186545000Y-111989000D01*
X176684000Y-111949000D02*
X186536000Y-111949000D01*
X176693000Y-111909000D02*
X186527000Y-111909000D01*
X176703000Y-111869000D02*
X186517000Y-111869000D01*
X176713000Y-111829000D02*
X186507000Y-111829000D01*
X176723000Y-111789000D02*
X186497000Y-111789000D01*
X176734000Y-111749000D02*
X180429000Y-111749000D01*
X182791000Y-111749000D02*
X186486000Y-111749000D01*
X176745000Y-111709000D02*
X180429000Y-111709000D01*
X182791000Y-111709000D02*
X186475000Y-111709000D01*
X176756000Y-111669000D02*
X180429000Y-111669000D01*
X182791000Y-111669000D02*
X186464000Y-111669000D01*
X176767000Y-111629000D02*
X180429000Y-111629000D01*
X182791000Y-111629000D02*
X186453000Y-111629000D01*
X176779000Y-111589000D02*
X180429000Y-111589000D01*
X182791000Y-111589000D02*
X186441000Y-111589000D01*
X176792000Y-111549000D02*
X180429000Y-111549000D01*
X182791000Y-111549000D02*
X186428000Y-111549000D01*
X176804000Y-111509000D02*
X180429000Y-111509000D01*
X182791000Y-111509000D02*
X186416000Y-111509000D01*
X176818000Y-111469000D02*
X180429000Y-111469000D01*
X182791000Y-111469000D02*
X186402000Y-111469000D01*
X176831000Y-111429000D02*
X180429000Y-111429000D01*
X182791000Y-111429000D02*
X186389000Y-111429000D01*
X176845000Y-111389000D02*
X180429000Y-111389000D01*
X182791000Y-111389000D02*
X186375000Y-111389000D01*
X176859000Y-111349000D02*
X180429000Y-111349000D01*
X182791000Y-111349000D02*
X186361000Y-111349000D01*
X176873000Y-111309000D02*
X180429000Y-111309000D01*
X182791000Y-111309000D02*
X186347000Y-111309000D01*
X176888000Y-111269000D02*
X180429000Y-111269000D01*
X182791000Y-111269000D02*
X186332000Y-111269000D01*
X176904000Y-111229000D02*
X180429000Y-111229000D01*
X182791000Y-111229000D02*
X186316000Y-111229000D01*
X176919000Y-111189000D02*
X180429000Y-111189000D01*
X182791000Y-111189000D02*
X186301000Y-111189000D01*
X176936000Y-111149000D02*
X180429000Y-111149000D01*
X182791000Y-111149000D02*
X186284000Y-111149000D01*
X176952000Y-111109000D02*
X180429000Y-111109000D01*
X182791000Y-111109000D02*
X186268000Y-111109000D01*
X176969000Y-111069000D02*
X180429000Y-111069000D01*
X182791000Y-111069000D02*
X186251000Y-111069000D01*
X176986000Y-111029000D02*
X180429000Y-111029000D01*
X182791000Y-111029000D02*
X186234000Y-111029000D01*
X177004000Y-110989000D02*
X180429000Y-110989000D01*
X182791000Y-110989000D02*
X186216000Y-110989000D01*
X177022000Y-110949000D02*
X180429000Y-110949000D01*
X182791000Y-110949000D02*
X186198000Y-110949000D01*
X177041000Y-110909000D02*
X180429000Y-110909000D01*
X182791000Y-110909000D02*
X186179000Y-110909000D01*
X177060000Y-110869000D02*
X180429000Y-110869000D01*
X182791000Y-110869000D02*
X186160000Y-110869000D01*
X177079000Y-110829000D02*
X180429000Y-110829000D01*
X182791000Y-110829000D02*
X186141000Y-110829000D01*
X177099000Y-110789000D02*
X180429000Y-110789000D01*
X182791000Y-110789000D02*
X186121000Y-110789000D01*
X177119000Y-110749000D02*
X180429000Y-110749000D01*
X182791000Y-110749000D02*
X186101000Y-110749000D01*
X177140000Y-110709000D02*
X180429000Y-110709000D01*
X182791000Y-110709000D02*
X186080000Y-110709000D01*
X177161000Y-110669000D02*
X180429000Y-110669000D01*
X182791000Y-110669000D02*
X186059000Y-110669000D01*
X177182000Y-110629000D02*
X180429000Y-110629000D01*
X182791000Y-110629000D02*
X186038000Y-110629000D01*
X177205000Y-110589000D02*
X180429000Y-110589000D01*
X182791000Y-110589000D02*
X186015000Y-110589000D01*
X177227000Y-110549000D02*
X180429000Y-110549000D01*
X182791000Y-110549000D02*
X185993000Y-110549000D01*
X177250000Y-110509000D02*
X180429000Y-110509000D01*
X182791000Y-110509000D02*
X185970000Y-110509000D01*
X177274000Y-110469000D02*
X180429000Y-110469000D01*
X182791000Y-110469000D02*
X185946000Y-110469000D01*
X177298000Y-110429000D02*
X180429000Y-110429000D01*
X182791000Y-110429000D02*
X185922000Y-110429000D01*
X177322000Y-110389000D02*
X180429000Y-110389000D01*
X182791000Y-110389000D02*
X185898000Y-110389000D01*
X177347000Y-110349000D02*
X180429000Y-110349000D01*
X182791000Y-110349000D02*
X185873000Y-110349000D01*
X177373000Y-110309000D02*
X180429000Y-110309000D01*
X182791000Y-110309000D02*
X185847000Y-110309000D01*
X177399000Y-110269000D02*
X180429000Y-110269000D01*
X182791000Y-110269000D02*
X185821000Y-110269000D01*
X177425000Y-110229000D02*
X180429000Y-110229000D01*
X182791000Y-110229000D02*
X185795000Y-110229000D01*
X177453000Y-110189000D02*
X180429000Y-110189000D01*
X182791000Y-110189000D02*
X185767000Y-110189000D01*
X177480000Y-110149000D02*
X180429000Y-110149000D01*
X182791000Y-110149000D02*
X185740000Y-110149000D01*
X177509000Y-110109000D02*
X180429000Y-110109000D01*
X182791000Y-110109000D02*
X185711000Y-110109000D01*
X177538000Y-110069000D02*
X180429000Y-110069000D01*
X182791000Y-110069000D02*
X185682000Y-110069000D01*
X177567000Y-110029000D02*
X180429000Y-110029000D01*
X182791000Y-110029000D02*
X185653000Y-110029000D01*
X177597000Y-109989000D02*
X180429000Y-109989000D01*
X182791000Y-109989000D02*
X185623000Y-109989000D01*
X177628000Y-109949000D02*
X180429000Y-109949000D01*
X182791000Y-109949000D02*
X185592000Y-109949000D01*
X177659000Y-109909000D02*
X180429000Y-109909000D01*
X182791000Y-109909000D02*
X185561000Y-109909000D01*
X177691000Y-109869000D02*
X180429000Y-109869000D01*
X182791000Y-109869000D02*
X185529000Y-109869000D01*
X177724000Y-109829000D02*
X180429000Y-109829000D01*
X182791000Y-109829000D02*
X185496000Y-109829000D01*
X177757000Y-109789000D02*
X180429000Y-109789000D01*
X182791000Y-109789000D02*
X185463000Y-109789000D01*
X177791000Y-109749000D02*
X180429000Y-109749000D01*
X182791000Y-109749000D02*
X185429000Y-109749000D01*
X177826000Y-109709000D02*
X180429000Y-109709000D01*
X182791000Y-109709000D02*
X185394000Y-109709000D01*
X177862000Y-109669000D02*
X180429000Y-109669000D01*
X182791000Y-109669000D02*
X185358000Y-109669000D01*
X177898000Y-109629000D02*
X180429000Y-109629000D01*
X182791000Y-109629000D02*
X185322000Y-109629000D01*
X177935000Y-109589000D02*
X180429000Y-109589000D01*
X182791000Y-109589000D02*
X185285000Y-109589000D01*
X177973000Y-109549000D02*
X180429000Y-109549000D01*
X182791000Y-109549000D02*
X185247000Y-109549000D01*
X178012000Y-109509000D02*
X180429000Y-109509000D01*
X182791000Y-109509000D02*
X185208000Y-109509000D01*
X178051000Y-109469000D02*
X180429000Y-109469000D01*
X182791000Y-109469000D02*
X185169000Y-109469000D01*
X178092000Y-109429000D02*
X180429000Y-109429000D01*
X182791000Y-109429000D02*
X185128000Y-109429000D01*
X178133000Y-109389000D02*
X185087000Y-109389000D01*
X178175000Y-109349000D02*
X185045000Y-109349000D01*
X178219000Y-109309000D02*
X185001000Y-109309000D01*
X178263000Y-109269000D02*
X184957000Y-109269000D01*
X178308000Y-109229000D02*
X184912000Y-109229000D01*
X178355000Y-109189000D02*
X184865000Y-109189000D01*
X178403000Y-109149000D02*
X184817000Y-109149000D01*
X178452000Y-109109000D02*
X184768000Y-109109000D01*
X178502000Y-109069000D02*
X184718000Y-109069000D01*
X178553000Y-109029000D02*
X184667000Y-109029000D01*
X178606000Y-108989000D02*
X184614000Y-108989000D01*
X178661000Y-108949000D02*
X184559000Y-108949000D01*
X178716000Y-108909000D02*
X184504000Y-108909000D01*
X178774000Y-108869000D02*
X184446000Y-108869000D01*
X178833000Y-108829000D02*
X184387000Y-108829000D01*
X178895000Y-108789000D02*
X184325000Y-108789000D01*
X178958000Y-108749000D02*
X184262000Y-108749000D01*
X179023000Y-108709000D02*
X184197000Y-108709000D01*
X179091000Y-108669000D02*
X184129000Y-108669000D01*
X179161000Y-108629000D02*
X184059000Y-108629000D01*
X179233000Y-108589000D02*
X183987000Y-108589000D01*
X179309000Y-108549000D02*
X183911000Y-108549000D01*
X179388000Y-108509000D02*
X183832000Y-108509000D01*
X179470000Y-108469000D02*
X183750000Y-108469000D01*
X179557000Y-108429000D02*
X183663000Y-108429000D01*
X179648000Y-108389000D02*
X183572000Y-108389000D01*
X179744000Y-108349000D02*
X183476000Y-108349000D01*
X179847000Y-108309000D02*
X183373000Y-108309000D01*
X179956000Y-108269000D02*
X183264000Y-108269000D01*
X180074000Y-108229000D02*
X183146000Y-108229000D01*
X180203000Y-108189000D02*
X183017000Y-108189000D01*
X180345000Y-108149000D02*
X182875000Y-108149000D01*
X180506000Y-108109000D02*
X182714000Y-108109000D01*
X180697000Y-108069000D02*
X182523000Y-108069000D01*
X180938000Y-108029000D02*
X182282000Y-108029000D01*
X181331000Y-107989000D02*
X181889000Y-107989000D01*
X181610000Y-118270000D02*
X181610000Y-116770000D01*
X180860000Y-117520000D02*
X182360000Y-117520000D01*
X197978437Y-124346736D02*
G75*
G03X188180643Y-124350000I-4898437J-1383264D01*
G01*
X197978437Y-127113264D02*
G75*
G02X188180643Y-127110000I-4898437J1383264D01*
G01*
X197978437Y-127113264D02*
G75*
G03X197979357Y-124350000I-4898437J1383264D01*
G01*
X193080000Y-120680000D02*
X193080000Y-130780000D01*
X193120000Y-120680000D02*
X193120000Y-130780000D01*
X193160000Y-120680000D02*
X193160000Y-130780000D01*
X193200000Y-120681000D02*
X193200000Y-130779000D01*
X193240000Y-120682000D02*
X193240000Y-130778000D01*
X193280000Y-120683000D02*
X193280000Y-130777000D01*
X193320000Y-120685000D02*
X193320000Y-130775000D01*
X193360000Y-120687000D02*
X193360000Y-130773000D01*
X193400000Y-120690000D02*
X193400000Y-130770000D01*
X193440000Y-120692000D02*
X193440000Y-130768000D01*
X193480000Y-120695000D02*
X193480000Y-130765000D01*
X193520000Y-120699000D02*
X193520000Y-130761000D01*
X193560000Y-120702000D02*
X193560000Y-130758000D01*
X193600000Y-120706000D02*
X193600000Y-130754000D01*
X193640000Y-120710000D02*
X193640000Y-130750000D01*
X193680000Y-120715000D02*
X193680000Y-130745000D01*
X193720000Y-120720000D02*
X193720000Y-130740000D01*
X193760000Y-120725000D02*
X193760000Y-130735000D01*
X193801000Y-120731000D02*
X193801000Y-130729000D01*
X193841000Y-120737000D02*
X193841000Y-130723000D01*
X193881000Y-120743000D02*
X193881000Y-130717000D01*
X193921000Y-120749000D02*
X193921000Y-130711000D01*
X193961000Y-120756000D02*
X193961000Y-130704000D01*
X194001000Y-120763000D02*
X194001000Y-130697000D01*
X194041000Y-120771000D02*
X194041000Y-130689000D01*
X194081000Y-120779000D02*
X194081000Y-130681000D01*
X194121000Y-120787000D02*
X194121000Y-130673000D01*
X194161000Y-120795000D02*
X194161000Y-130665000D01*
X194201000Y-120804000D02*
X194201000Y-130656000D01*
X194241000Y-120813000D02*
X194241000Y-130647000D01*
X194281000Y-120823000D02*
X194281000Y-130637000D01*
X194321000Y-120833000D02*
X194321000Y-130627000D01*
X194361000Y-120843000D02*
X194361000Y-130617000D01*
X194401000Y-120854000D02*
X194401000Y-124549000D01*
X194401000Y-126911000D02*
X194401000Y-130606000D01*
X194441000Y-120865000D02*
X194441000Y-124549000D01*
X194441000Y-126911000D02*
X194441000Y-130595000D01*
X194481000Y-120876000D02*
X194481000Y-124549000D01*
X194481000Y-126911000D02*
X194481000Y-130584000D01*
X194521000Y-120887000D02*
X194521000Y-124549000D01*
X194521000Y-126911000D02*
X194521000Y-130573000D01*
X194561000Y-120899000D02*
X194561000Y-124549000D01*
X194561000Y-126911000D02*
X194561000Y-130561000D01*
X194601000Y-120912000D02*
X194601000Y-124549000D01*
X194601000Y-126911000D02*
X194601000Y-130548000D01*
X194641000Y-120924000D02*
X194641000Y-124549000D01*
X194641000Y-126911000D02*
X194641000Y-130536000D01*
X194681000Y-120938000D02*
X194681000Y-124549000D01*
X194681000Y-126911000D02*
X194681000Y-130522000D01*
X194721000Y-120951000D02*
X194721000Y-124549000D01*
X194721000Y-126911000D02*
X194721000Y-130509000D01*
X194761000Y-120965000D02*
X194761000Y-124549000D01*
X194761000Y-126911000D02*
X194761000Y-130495000D01*
X194801000Y-120979000D02*
X194801000Y-124549000D01*
X194801000Y-126911000D02*
X194801000Y-130481000D01*
X194841000Y-120993000D02*
X194841000Y-124549000D01*
X194841000Y-126911000D02*
X194841000Y-130467000D01*
X194881000Y-121008000D02*
X194881000Y-124549000D01*
X194881000Y-126911000D02*
X194881000Y-130452000D01*
X194921000Y-121024000D02*
X194921000Y-124549000D01*
X194921000Y-126911000D02*
X194921000Y-130436000D01*
X194961000Y-121039000D02*
X194961000Y-124549000D01*
X194961000Y-126911000D02*
X194961000Y-130421000D01*
X195001000Y-121056000D02*
X195001000Y-124549000D01*
X195001000Y-126911000D02*
X195001000Y-130404000D01*
X195041000Y-121072000D02*
X195041000Y-124549000D01*
X195041000Y-126911000D02*
X195041000Y-130388000D01*
X195081000Y-121089000D02*
X195081000Y-124549000D01*
X195081000Y-126911000D02*
X195081000Y-130371000D01*
X195121000Y-121106000D02*
X195121000Y-124549000D01*
X195121000Y-126911000D02*
X195121000Y-130354000D01*
X195161000Y-121124000D02*
X195161000Y-124549000D01*
X195161000Y-126911000D02*
X195161000Y-130336000D01*
X195201000Y-121142000D02*
X195201000Y-124549000D01*
X195201000Y-126911000D02*
X195201000Y-130318000D01*
X195241000Y-121161000D02*
X195241000Y-124549000D01*
X195241000Y-126911000D02*
X195241000Y-130299000D01*
X195281000Y-121180000D02*
X195281000Y-124549000D01*
X195281000Y-126911000D02*
X195281000Y-130280000D01*
X195321000Y-121199000D02*
X195321000Y-124549000D01*
X195321000Y-126911000D02*
X195321000Y-130261000D01*
X195361000Y-121219000D02*
X195361000Y-124549000D01*
X195361000Y-126911000D02*
X195361000Y-130241000D01*
X195401000Y-121239000D02*
X195401000Y-124549000D01*
X195401000Y-126911000D02*
X195401000Y-130221000D01*
X195441000Y-121260000D02*
X195441000Y-124549000D01*
X195441000Y-126911000D02*
X195441000Y-130200000D01*
X195481000Y-121281000D02*
X195481000Y-124549000D01*
X195481000Y-126911000D02*
X195481000Y-130179000D01*
X195521000Y-121302000D02*
X195521000Y-124549000D01*
X195521000Y-126911000D02*
X195521000Y-130158000D01*
X195561000Y-121325000D02*
X195561000Y-124549000D01*
X195561000Y-126911000D02*
X195561000Y-130135000D01*
X195601000Y-121347000D02*
X195601000Y-124549000D01*
X195601000Y-126911000D02*
X195601000Y-130113000D01*
X195641000Y-121370000D02*
X195641000Y-124549000D01*
X195641000Y-126911000D02*
X195641000Y-130090000D01*
X195681000Y-121394000D02*
X195681000Y-124549000D01*
X195681000Y-126911000D02*
X195681000Y-130066000D01*
X195721000Y-121418000D02*
X195721000Y-124549000D01*
X195721000Y-126911000D02*
X195721000Y-130042000D01*
X195761000Y-121442000D02*
X195761000Y-124549000D01*
X195761000Y-126911000D02*
X195761000Y-130018000D01*
X195801000Y-121467000D02*
X195801000Y-124549000D01*
X195801000Y-126911000D02*
X195801000Y-129993000D01*
X195841000Y-121493000D02*
X195841000Y-124549000D01*
X195841000Y-126911000D02*
X195841000Y-129967000D01*
X195881000Y-121519000D02*
X195881000Y-124549000D01*
X195881000Y-126911000D02*
X195881000Y-129941000D01*
X195921000Y-121545000D02*
X195921000Y-124549000D01*
X195921000Y-126911000D02*
X195921000Y-129915000D01*
X195961000Y-121573000D02*
X195961000Y-124549000D01*
X195961000Y-126911000D02*
X195961000Y-129887000D01*
X196001000Y-121600000D02*
X196001000Y-124549000D01*
X196001000Y-126911000D02*
X196001000Y-129860000D01*
X196041000Y-121629000D02*
X196041000Y-124549000D01*
X196041000Y-126911000D02*
X196041000Y-129831000D01*
X196081000Y-121658000D02*
X196081000Y-124549000D01*
X196081000Y-126911000D02*
X196081000Y-129802000D01*
X196121000Y-121687000D02*
X196121000Y-124549000D01*
X196121000Y-126911000D02*
X196121000Y-129773000D01*
X196161000Y-121717000D02*
X196161000Y-124549000D01*
X196161000Y-126911000D02*
X196161000Y-129743000D01*
X196201000Y-121748000D02*
X196201000Y-124549000D01*
X196201000Y-126911000D02*
X196201000Y-129712000D01*
X196241000Y-121779000D02*
X196241000Y-124549000D01*
X196241000Y-126911000D02*
X196241000Y-129681000D01*
X196281000Y-121811000D02*
X196281000Y-124549000D01*
X196281000Y-126911000D02*
X196281000Y-129649000D01*
X196321000Y-121844000D02*
X196321000Y-124549000D01*
X196321000Y-126911000D02*
X196321000Y-129616000D01*
X196361000Y-121877000D02*
X196361000Y-124549000D01*
X196361000Y-126911000D02*
X196361000Y-129583000D01*
X196401000Y-121911000D02*
X196401000Y-124549000D01*
X196401000Y-126911000D02*
X196401000Y-129549000D01*
X196441000Y-121946000D02*
X196441000Y-124549000D01*
X196441000Y-126911000D02*
X196441000Y-129514000D01*
X196481000Y-121982000D02*
X196481000Y-124549000D01*
X196481000Y-126911000D02*
X196481000Y-129478000D01*
X196521000Y-122018000D02*
X196521000Y-124549000D01*
X196521000Y-126911000D02*
X196521000Y-129442000D01*
X196561000Y-122055000D02*
X196561000Y-124549000D01*
X196561000Y-126911000D02*
X196561000Y-129405000D01*
X196601000Y-122093000D02*
X196601000Y-124549000D01*
X196601000Y-126911000D02*
X196601000Y-129367000D01*
X196641000Y-122132000D02*
X196641000Y-124549000D01*
X196641000Y-126911000D02*
X196641000Y-129328000D01*
X196681000Y-122171000D02*
X196681000Y-124549000D01*
X196681000Y-126911000D02*
X196681000Y-129289000D01*
X196721000Y-122212000D02*
X196721000Y-124549000D01*
X196721000Y-126911000D02*
X196721000Y-129248000D01*
X196761000Y-122253000D02*
X196761000Y-129207000D01*
X196801000Y-122295000D02*
X196801000Y-129165000D01*
X196841000Y-122339000D02*
X196841000Y-129121000D01*
X196881000Y-122383000D02*
X196881000Y-129077000D01*
X196921000Y-122428000D02*
X196921000Y-129032000D01*
X196961000Y-122475000D02*
X196961000Y-128985000D01*
X197001000Y-122523000D02*
X197001000Y-128937000D01*
X197041000Y-122572000D02*
X197041000Y-128888000D01*
X197081000Y-122622000D02*
X197081000Y-128838000D01*
X197121000Y-122673000D02*
X197121000Y-128787000D01*
X197161000Y-122726000D02*
X197161000Y-128734000D01*
X197201000Y-122781000D02*
X197201000Y-128679000D01*
X197241000Y-122836000D02*
X197241000Y-128624000D01*
X197281000Y-122894000D02*
X197281000Y-128566000D01*
X197321000Y-122953000D02*
X197321000Y-128507000D01*
X197361000Y-123015000D02*
X197361000Y-128445000D01*
X197401000Y-123078000D02*
X197401000Y-128382000D01*
X197441000Y-123143000D02*
X197441000Y-128317000D01*
X197481000Y-123211000D02*
X197481000Y-128249000D01*
X197521000Y-123281000D02*
X197521000Y-128179000D01*
X197561000Y-123353000D02*
X197561000Y-128107000D01*
X197601000Y-123429000D02*
X197601000Y-128031000D01*
X197641000Y-123508000D02*
X197641000Y-127952000D01*
X197681000Y-123590000D02*
X197681000Y-127870000D01*
X197721000Y-123677000D02*
X197721000Y-127783000D01*
X197761000Y-123768000D02*
X197761000Y-127692000D01*
X197801000Y-123864000D02*
X197801000Y-127596000D01*
X197841000Y-123967000D02*
X197841000Y-127493000D01*
X197881000Y-124076000D02*
X197881000Y-127384000D01*
X197921000Y-124194000D02*
X197921000Y-127266000D01*
X197961000Y-124323000D02*
X197961000Y-127137000D01*
X198001000Y-124465000D02*
X198001000Y-126995000D01*
X198041000Y-124626000D02*
X198041000Y-126834000D01*
X198081000Y-124817000D02*
X198081000Y-126643000D01*
X198121000Y-125058000D02*
X198121000Y-126402000D01*
X198161000Y-125451000D02*
X198161000Y-126009000D01*
X187880000Y-125730000D02*
X189380000Y-125730000D01*
X188630000Y-124980000D02*
X188630000Y-126480000D01*
X196628437Y-79896736D02*
G75*
G03X186830643Y-79900000I-4898437J-1383264D01*
G01*
X196628437Y-82663264D02*
G75*
G02X186830643Y-82660000I-4898437J1383264D01*
G01*
X196628437Y-82663264D02*
G75*
G03X196629357Y-79900000I-4898437J1383264D01*
G01*
X191730000Y-76230000D02*
X191730000Y-86330000D01*
X191770000Y-76230000D02*
X191770000Y-86330000D01*
X191810000Y-76230000D02*
X191810000Y-86330000D01*
X191850000Y-76231000D02*
X191850000Y-86329000D01*
X191890000Y-76232000D02*
X191890000Y-86328000D01*
X191930000Y-76233000D02*
X191930000Y-86327000D01*
X191970000Y-76235000D02*
X191970000Y-86325000D01*
X192010000Y-76237000D02*
X192010000Y-86323000D01*
X192050000Y-76240000D02*
X192050000Y-86320000D01*
X192090000Y-76242000D02*
X192090000Y-86318000D01*
X192130000Y-76245000D02*
X192130000Y-86315000D01*
X192170000Y-76249000D02*
X192170000Y-86311000D01*
X192210000Y-76252000D02*
X192210000Y-86308000D01*
X192250000Y-76256000D02*
X192250000Y-86304000D01*
X192290000Y-76260000D02*
X192290000Y-86300000D01*
X192330000Y-76265000D02*
X192330000Y-86295000D01*
X192370000Y-76270000D02*
X192370000Y-86290000D01*
X192410000Y-76275000D02*
X192410000Y-86285000D01*
X192451000Y-76281000D02*
X192451000Y-86279000D01*
X192491000Y-76287000D02*
X192491000Y-86273000D01*
X192531000Y-76293000D02*
X192531000Y-86267000D01*
X192571000Y-76299000D02*
X192571000Y-86261000D01*
X192611000Y-76306000D02*
X192611000Y-86254000D01*
X192651000Y-76313000D02*
X192651000Y-86247000D01*
X192691000Y-76321000D02*
X192691000Y-86239000D01*
X192731000Y-76329000D02*
X192731000Y-86231000D01*
X192771000Y-76337000D02*
X192771000Y-86223000D01*
X192811000Y-76345000D02*
X192811000Y-86215000D01*
X192851000Y-76354000D02*
X192851000Y-86206000D01*
X192891000Y-76363000D02*
X192891000Y-86197000D01*
X192931000Y-76373000D02*
X192931000Y-86187000D01*
X192971000Y-76383000D02*
X192971000Y-86177000D01*
X193011000Y-76393000D02*
X193011000Y-86167000D01*
X193051000Y-76404000D02*
X193051000Y-80099000D01*
X193051000Y-82461000D02*
X193051000Y-86156000D01*
X193091000Y-76415000D02*
X193091000Y-80099000D01*
X193091000Y-82461000D02*
X193091000Y-86145000D01*
X193131000Y-76426000D02*
X193131000Y-80099000D01*
X193131000Y-82461000D02*
X193131000Y-86134000D01*
X193171000Y-76437000D02*
X193171000Y-80099000D01*
X193171000Y-82461000D02*
X193171000Y-86123000D01*
X193211000Y-76449000D02*
X193211000Y-80099000D01*
X193211000Y-82461000D02*
X193211000Y-86111000D01*
X193251000Y-76462000D02*
X193251000Y-80099000D01*
X193251000Y-82461000D02*
X193251000Y-86098000D01*
X193291000Y-76474000D02*
X193291000Y-80099000D01*
X193291000Y-82461000D02*
X193291000Y-86086000D01*
X193331000Y-76488000D02*
X193331000Y-80099000D01*
X193331000Y-82461000D02*
X193331000Y-86072000D01*
X193371000Y-76501000D02*
X193371000Y-80099000D01*
X193371000Y-82461000D02*
X193371000Y-86059000D01*
X193411000Y-76515000D02*
X193411000Y-80099000D01*
X193411000Y-82461000D02*
X193411000Y-86045000D01*
X193451000Y-76529000D02*
X193451000Y-80099000D01*
X193451000Y-82461000D02*
X193451000Y-86031000D01*
X193491000Y-76543000D02*
X193491000Y-80099000D01*
X193491000Y-82461000D02*
X193491000Y-86017000D01*
X193531000Y-76558000D02*
X193531000Y-80099000D01*
X193531000Y-82461000D02*
X193531000Y-86002000D01*
X193571000Y-76574000D02*
X193571000Y-80099000D01*
X193571000Y-82461000D02*
X193571000Y-85986000D01*
X193611000Y-76589000D02*
X193611000Y-80099000D01*
X193611000Y-82461000D02*
X193611000Y-85971000D01*
X193651000Y-76606000D02*
X193651000Y-80099000D01*
X193651000Y-82461000D02*
X193651000Y-85954000D01*
X193691000Y-76622000D02*
X193691000Y-80099000D01*
X193691000Y-82461000D02*
X193691000Y-85938000D01*
X193731000Y-76639000D02*
X193731000Y-80099000D01*
X193731000Y-82461000D02*
X193731000Y-85921000D01*
X193771000Y-76656000D02*
X193771000Y-80099000D01*
X193771000Y-82461000D02*
X193771000Y-85904000D01*
X193811000Y-76674000D02*
X193811000Y-80099000D01*
X193811000Y-82461000D02*
X193811000Y-85886000D01*
X193851000Y-76692000D02*
X193851000Y-80099000D01*
X193851000Y-82461000D02*
X193851000Y-85868000D01*
X193891000Y-76711000D02*
X193891000Y-80099000D01*
X193891000Y-82461000D02*
X193891000Y-85849000D01*
X193931000Y-76730000D02*
X193931000Y-80099000D01*
X193931000Y-82461000D02*
X193931000Y-85830000D01*
X193971000Y-76749000D02*
X193971000Y-80099000D01*
X193971000Y-82461000D02*
X193971000Y-85811000D01*
X194011000Y-76769000D02*
X194011000Y-80099000D01*
X194011000Y-82461000D02*
X194011000Y-85791000D01*
X194051000Y-76789000D02*
X194051000Y-80099000D01*
X194051000Y-82461000D02*
X194051000Y-85771000D01*
X194091000Y-76810000D02*
X194091000Y-80099000D01*
X194091000Y-82461000D02*
X194091000Y-85750000D01*
X194131000Y-76831000D02*
X194131000Y-80099000D01*
X194131000Y-82461000D02*
X194131000Y-85729000D01*
X194171000Y-76852000D02*
X194171000Y-80099000D01*
X194171000Y-82461000D02*
X194171000Y-85708000D01*
X194211000Y-76875000D02*
X194211000Y-80099000D01*
X194211000Y-82461000D02*
X194211000Y-85685000D01*
X194251000Y-76897000D02*
X194251000Y-80099000D01*
X194251000Y-82461000D02*
X194251000Y-85663000D01*
X194291000Y-76920000D02*
X194291000Y-80099000D01*
X194291000Y-82461000D02*
X194291000Y-85640000D01*
X194331000Y-76944000D02*
X194331000Y-80099000D01*
X194331000Y-82461000D02*
X194331000Y-85616000D01*
X194371000Y-76968000D02*
X194371000Y-80099000D01*
X194371000Y-82461000D02*
X194371000Y-85592000D01*
X194411000Y-76992000D02*
X194411000Y-80099000D01*
X194411000Y-82461000D02*
X194411000Y-85568000D01*
X194451000Y-77017000D02*
X194451000Y-80099000D01*
X194451000Y-82461000D02*
X194451000Y-85543000D01*
X194491000Y-77043000D02*
X194491000Y-80099000D01*
X194491000Y-82461000D02*
X194491000Y-85517000D01*
X194531000Y-77069000D02*
X194531000Y-80099000D01*
X194531000Y-82461000D02*
X194531000Y-85491000D01*
X194571000Y-77095000D02*
X194571000Y-80099000D01*
X194571000Y-82461000D02*
X194571000Y-85465000D01*
X194611000Y-77123000D02*
X194611000Y-80099000D01*
X194611000Y-82461000D02*
X194611000Y-85437000D01*
X194651000Y-77150000D02*
X194651000Y-80099000D01*
X194651000Y-82461000D02*
X194651000Y-85410000D01*
X194691000Y-77179000D02*
X194691000Y-80099000D01*
X194691000Y-82461000D02*
X194691000Y-85381000D01*
X194731000Y-77208000D02*
X194731000Y-80099000D01*
X194731000Y-82461000D02*
X194731000Y-85352000D01*
X194771000Y-77237000D02*
X194771000Y-80099000D01*
X194771000Y-82461000D02*
X194771000Y-85323000D01*
X194811000Y-77267000D02*
X194811000Y-80099000D01*
X194811000Y-82461000D02*
X194811000Y-85293000D01*
X194851000Y-77298000D02*
X194851000Y-80099000D01*
X194851000Y-82461000D02*
X194851000Y-85262000D01*
X194891000Y-77329000D02*
X194891000Y-80099000D01*
X194891000Y-82461000D02*
X194891000Y-85231000D01*
X194931000Y-77361000D02*
X194931000Y-80099000D01*
X194931000Y-82461000D02*
X194931000Y-85199000D01*
X194971000Y-77394000D02*
X194971000Y-80099000D01*
X194971000Y-82461000D02*
X194971000Y-85166000D01*
X195011000Y-77427000D02*
X195011000Y-80099000D01*
X195011000Y-82461000D02*
X195011000Y-85133000D01*
X195051000Y-77461000D02*
X195051000Y-80099000D01*
X195051000Y-82461000D02*
X195051000Y-85099000D01*
X195091000Y-77496000D02*
X195091000Y-80099000D01*
X195091000Y-82461000D02*
X195091000Y-85064000D01*
X195131000Y-77532000D02*
X195131000Y-80099000D01*
X195131000Y-82461000D02*
X195131000Y-85028000D01*
X195171000Y-77568000D02*
X195171000Y-80099000D01*
X195171000Y-82461000D02*
X195171000Y-84992000D01*
X195211000Y-77605000D02*
X195211000Y-80099000D01*
X195211000Y-82461000D02*
X195211000Y-84955000D01*
X195251000Y-77643000D02*
X195251000Y-80099000D01*
X195251000Y-82461000D02*
X195251000Y-84917000D01*
X195291000Y-77682000D02*
X195291000Y-80099000D01*
X195291000Y-82461000D02*
X195291000Y-84878000D01*
X195331000Y-77721000D02*
X195331000Y-80099000D01*
X195331000Y-82461000D02*
X195331000Y-84839000D01*
X195371000Y-77762000D02*
X195371000Y-80099000D01*
X195371000Y-82461000D02*
X195371000Y-84798000D01*
X195411000Y-77803000D02*
X195411000Y-84757000D01*
X195451000Y-77845000D02*
X195451000Y-84715000D01*
X195491000Y-77889000D02*
X195491000Y-84671000D01*
X195531000Y-77933000D02*
X195531000Y-84627000D01*
X195571000Y-77978000D02*
X195571000Y-84582000D01*
X195611000Y-78025000D02*
X195611000Y-84535000D01*
X195651000Y-78073000D02*
X195651000Y-84487000D01*
X195691000Y-78122000D02*
X195691000Y-84438000D01*
X195731000Y-78172000D02*
X195731000Y-84388000D01*
X195771000Y-78223000D02*
X195771000Y-84337000D01*
X195811000Y-78276000D02*
X195811000Y-84284000D01*
X195851000Y-78331000D02*
X195851000Y-84229000D01*
X195891000Y-78386000D02*
X195891000Y-84174000D01*
X195931000Y-78444000D02*
X195931000Y-84116000D01*
X195971000Y-78503000D02*
X195971000Y-84057000D01*
X196011000Y-78565000D02*
X196011000Y-83995000D01*
X196051000Y-78628000D02*
X196051000Y-83932000D01*
X196091000Y-78693000D02*
X196091000Y-83867000D01*
X196131000Y-78761000D02*
X196131000Y-83799000D01*
X196171000Y-78831000D02*
X196171000Y-83729000D01*
X196211000Y-78903000D02*
X196211000Y-83657000D01*
X196251000Y-78979000D02*
X196251000Y-83581000D01*
X196291000Y-79058000D02*
X196291000Y-83502000D01*
X196331000Y-79140000D02*
X196331000Y-83420000D01*
X196371000Y-79227000D02*
X196371000Y-83333000D01*
X196411000Y-79318000D02*
X196411000Y-83242000D01*
X196451000Y-79414000D02*
X196451000Y-83146000D01*
X196491000Y-79517000D02*
X196491000Y-83043000D01*
X196531000Y-79626000D02*
X196531000Y-82934000D01*
X196571000Y-79744000D02*
X196571000Y-82816000D01*
X196611000Y-79873000D02*
X196611000Y-82687000D01*
X196651000Y-80015000D02*
X196651000Y-82545000D01*
X196691000Y-80176000D02*
X196691000Y-82384000D01*
X196731000Y-80367000D02*
X196731000Y-82193000D01*
X196771000Y-80608000D02*
X196771000Y-81952000D01*
X196811000Y-81001000D02*
X196811000Y-81559000D01*
X186530000Y-81280000D02*
X188030000Y-81280000D01*
X187280000Y-80530000D02*
X187280000Y-82030000D01*
X216013264Y-107808437D02*
G75*
G03X216010000Y-98010643I-1383264J4898437D01*
G01*
X213246736Y-107808437D02*
G75*
G02X213250000Y-98010643I1383264J4898437D01*
G01*
X213246736Y-107808437D02*
G75*
G03X216010000Y-107809357I1383264J4898437D01*
G01*
X219680000Y-102910000D02*
X209580000Y-102910000D01*
X219680000Y-102950000D02*
X209580000Y-102950000D01*
X219680000Y-102990000D02*
X209580000Y-102990000D01*
X219679000Y-103030000D02*
X209581000Y-103030000D01*
X219678000Y-103070000D02*
X209582000Y-103070000D01*
X219677000Y-103110000D02*
X209583000Y-103110000D01*
X219675000Y-103150000D02*
X209585000Y-103150000D01*
X219673000Y-103190000D02*
X209587000Y-103190000D01*
X219670000Y-103230000D02*
X209590000Y-103230000D01*
X219668000Y-103270000D02*
X209592000Y-103270000D01*
X219665000Y-103310000D02*
X209595000Y-103310000D01*
X219661000Y-103350000D02*
X209599000Y-103350000D01*
X219658000Y-103390000D02*
X209602000Y-103390000D01*
X219654000Y-103430000D02*
X209606000Y-103430000D01*
X219650000Y-103470000D02*
X209610000Y-103470000D01*
X219645000Y-103510000D02*
X209615000Y-103510000D01*
X219640000Y-103550000D02*
X209620000Y-103550000D01*
X219635000Y-103590000D02*
X209625000Y-103590000D01*
X219629000Y-103631000D02*
X209631000Y-103631000D01*
X219623000Y-103671000D02*
X209637000Y-103671000D01*
X219617000Y-103711000D02*
X209643000Y-103711000D01*
X219611000Y-103751000D02*
X209649000Y-103751000D01*
X219604000Y-103791000D02*
X209656000Y-103791000D01*
X219597000Y-103831000D02*
X209663000Y-103831000D01*
X219589000Y-103871000D02*
X209671000Y-103871000D01*
X219581000Y-103911000D02*
X209679000Y-103911000D01*
X219573000Y-103951000D02*
X209687000Y-103951000D01*
X219565000Y-103991000D02*
X209695000Y-103991000D01*
X219556000Y-104031000D02*
X209704000Y-104031000D01*
X219547000Y-104071000D02*
X209713000Y-104071000D01*
X219537000Y-104111000D02*
X209723000Y-104111000D01*
X219527000Y-104151000D02*
X209733000Y-104151000D01*
X219517000Y-104191000D02*
X209743000Y-104191000D01*
X219506000Y-104231000D02*
X215811000Y-104231000D01*
X213449000Y-104231000D02*
X209754000Y-104231000D01*
X219495000Y-104271000D02*
X215811000Y-104271000D01*
X213449000Y-104271000D02*
X209765000Y-104271000D01*
X219484000Y-104311000D02*
X215811000Y-104311000D01*
X213449000Y-104311000D02*
X209776000Y-104311000D01*
X219473000Y-104351000D02*
X215811000Y-104351000D01*
X213449000Y-104351000D02*
X209787000Y-104351000D01*
X219461000Y-104391000D02*
X215811000Y-104391000D01*
X213449000Y-104391000D02*
X209799000Y-104391000D01*
X219448000Y-104431000D02*
X215811000Y-104431000D01*
X213449000Y-104431000D02*
X209812000Y-104431000D01*
X219436000Y-104471000D02*
X215811000Y-104471000D01*
X213449000Y-104471000D02*
X209824000Y-104471000D01*
X219422000Y-104511000D02*
X215811000Y-104511000D01*
X213449000Y-104511000D02*
X209838000Y-104511000D01*
X219409000Y-104551000D02*
X215811000Y-104551000D01*
X213449000Y-104551000D02*
X209851000Y-104551000D01*
X219395000Y-104591000D02*
X215811000Y-104591000D01*
X213449000Y-104591000D02*
X209865000Y-104591000D01*
X219381000Y-104631000D02*
X215811000Y-104631000D01*
X213449000Y-104631000D02*
X209879000Y-104631000D01*
X219367000Y-104671000D02*
X215811000Y-104671000D01*
X213449000Y-104671000D02*
X209893000Y-104671000D01*
X219352000Y-104711000D02*
X215811000Y-104711000D01*
X213449000Y-104711000D02*
X209908000Y-104711000D01*
X219336000Y-104751000D02*
X215811000Y-104751000D01*
X213449000Y-104751000D02*
X209924000Y-104751000D01*
X219321000Y-104791000D02*
X215811000Y-104791000D01*
X213449000Y-104791000D02*
X209939000Y-104791000D01*
X219304000Y-104831000D02*
X215811000Y-104831000D01*
X213449000Y-104831000D02*
X209956000Y-104831000D01*
X219288000Y-104871000D02*
X215811000Y-104871000D01*
X213449000Y-104871000D02*
X209972000Y-104871000D01*
X219271000Y-104911000D02*
X215811000Y-104911000D01*
X213449000Y-104911000D02*
X209989000Y-104911000D01*
X219254000Y-104951000D02*
X215811000Y-104951000D01*
X213449000Y-104951000D02*
X210006000Y-104951000D01*
X219236000Y-104991000D02*
X215811000Y-104991000D01*
X213449000Y-104991000D02*
X210024000Y-104991000D01*
X219218000Y-105031000D02*
X215811000Y-105031000D01*
X213449000Y-105031000D02*
X210042000Y-105031000D01*
X219199000Y-105071000D02*
X215811000Y-105071000D01*
X213449000Y-105071000D02*
X210061000Y-105071000D01*
X219180000Y-105111000D02*
X215811000Y-105111000D01*
X213449000Y-105111000D02*
X210080000Y-105111000D01*
X219161000Y-105151000D02*
X215811000Y-105151000D01*
X213449000Y-105151000D02*
X210099000Y-105151000D01*
X219141000Y-105191000D02*
X215811000Y-105191000D01*
X213449000Y-105191000D02*
X210119000Y-105191000D01*
X219121000Y-105231000D02*
X215811000Y-105231000D01*
X213449000Y-105231000D02*
X210139000Y-105231000D01*
X219100000Y-105271000D02*
X215811000Y-105271000D01*
X213449000Y-105271000D02*
X210160000Y-105271000D01*
X219079000Y-105311000D02*
X215811000Y-105311000D01*
X213449000Y-105311000D02*
X210181000Y-105311000D01*
X219058000Y-105351000D02*
X215811000Y-105351000D01*
X213449000Y-105351000D02*
X210202000Y-105351000D01*
X219035000Y-105391000D02*
X215811000Y-105391000D01*
X213449000Y-105391000D02*
X210225000Y-105391000D01*
X219013000Y-105431000D02*
X215811000Y-105431000D01*
X213449000Y-105431000D02*
X210247000Y-105431000D01*
X218990000Y-105471000D02*
X215811000Y-105471000D01*
X213449000Y-105471000D02*
X210270000Y-105471000D01*
X218966000Y-105511000D02*
X215811000Y-105511000D01*
X213449000Y-105511000D02*
X210294000Y-105511000D01*
X218942000Y-105551000D02*
X215811000Y-105551000D01*
X213449000Y-105551000D02*
X210318000Y-105551000D01*
X218918000Y-105591000D02*
X215811000Y-105591000D01*
X213449000Y-105591000D02*
X210342000Y-105591000D01*
X218893000Y-105631000D02*
X215811000Y-105631000D01*
X213449000Y-105631000D02*
X210367000Y-105631000D01*
X218867000Y-105671000D02*
X215811000Y-105671000D01*
X213449000Y-105671000D02*
X210393000Y-105671000D01*
X218841000Y-105711000D02*
X215811000Y-105711000D01*
X213449000Y-105711000D02*
X210419000Y-105711000D01*
X218815000Y-105751000D02*
X215811000Y-105751000D01*
X213449000Y-105751000D02*
X210445000Y-105751000D01*
X218787000Y-105791000D02*
X215811000Y-105791000D01*
X213449000Y-105791000D02*
X210473000Y-105791000D01*
X218760000Y-105831000D02*
X215811000Y-105831000D01*
X213449000Y-105831000D02*
X210500000Y-105831000D01*
X218731000Y-105871000D02*
X215811000Y-105871000D01*
X213449000Y-105871000D02*
X210529000Y-105871000D01*
X218702000Y-105911000D02*
X215811000Y-105911000D01*
X213449000Y-105911000D02*
X210558000Y-105911000D01*
X218673000Y-105951000D02*
X215811000Y-105951000D01*
X213449000Y-105951000D02*
X210587000Y-105951000D01*
X218643000Y-105991000D02*
X215811000Y-105991000D01*
X213449000Y-105991000D02*
X210617000Y-105991000D01*
X218612000Y-106031000D02*
X215811000Y-106031000D01*
X213449000Y-106031000D02*
X210648000Y-106031000D01*
X218581000Y-106071000D02*
X215811000Y-106071000D01*
X213449000Y-106071000D02*
X210679000Y-106071000D01*
X218549000Y-106111000D02*
X215811000Y-106111000D01*
X213449000Y-106111000D02*
X210711000Y-106111000D01*
X218516000Y-106151000D02*
X215811000Y-106151000D01*
X213449000Y-106151000D02*
X210744000Y-106151000D01*
X218483000Y-106191000D02*
X215811000Y-106191000D01*
X213449000Y-106191000D02*
X210777000Y-106191000D01*
X218449000Y-106231000D02*
X215811000Y-106231000D01*
X213449000Y-106231000D02*
X210811000Y-106231000D01*
X218414000Y-106271000D02*
X215811000Y-106271000D01*
X213449000Y-106271000D02*
X210846000Y-106271000D01*
X218378000Y-106311000D02*
X215811000Y-106311000D01*
X213449000Y-106311000D02*
X210882000Y-106311000D01*
X218342000Y-106351000D02*
X215811000Y-106351000D01*
X213449000Y-106351000D02*
X210918000Y-106351000D01*
X218305000Y-106391000D02*
X215811000Y-106391000D01*
X213449000Y-106391000D02*
X210955000Y-106391000D01*
X218267000Y-106431000D02*
X215811000Y-106431000D01*
X213449000Y-106431000D02*
X210993000Y-106431000D01*
X218228000Y-106471000D02*
X215811000Y-106471000D01*
X213449000Y-106471000D02*
X211032000Y-106471000D01*
X218189000Y-106511000D02*
X215811000Y-106511000D01*
X213449000Y-106511000D02*
X211071000Y-106511000D01*
X218148000Y-106551000D02*
X215811000Y-106551000D01*
X213449000Y-106551000D02*
X211112000Y-106551000D01*
X218107000Y-106591000D02*
X211153000Y-106591000D01*
X218065000Y-106631000D02*
X211195000Y-106631000D01*
X218021000Y-106671000D02*
X211239000Y-106671000D01*
X217977000Y-106711000D02*
X211283000Y-106711000D01*
X217932000Y-106751000D02*
X211328000Y-106751000D01*
X217885000Y-106791000D02*
X211375000Y-106791000D01*
X217837000Y-106831000D02*
X211423000Y-106831000D01*
X217788000Y-106871000D02*
X211472000Y-106871000D01*
X217738000Y-106911000D02*
X211522000Y-106911000D01*
X217687000Y-106951000D02*
X211573000Y-106951000D01*
X217634000Y-106991000D02*
X211626000Y-106991000D01*
X217579000Y-107031000D02*
X211681000Y-107031000D01*
X217524000Y-107071000D02*
X211736000Y-107071000D01*
X217466000Y-107111000D02*
X211794000Y-107111000D01*
X217407000Y-107151000D02*
X211853000Y-107151000D01*
X217345000Y-107191000D02*
X211915000Y-107191000D01*
X217282000Y-107231000D02*
X211978000Y-107231000D01*
X217217000Y-107271000D02*
X212043000Y-107271000D01*
X217149000Y-107311000D02*
X212111000Y-107311000D01*
X217079000Y-107351000D02*
X212181000Y-107351000D01*
X217007000Y-107391000D02*
X212253000Y-107391000D01*
X216931000Y-107431000D02*
X212329000Y-107431000D01*
X216852000Y-107471000D02*
X212408000Y-107471000D01*
X216770000Y-107511000D02*
X212490000Y-107511000D01*
X216683000Y-107551000D02*
X212577000Y-107551000D01*
X216592000Y-107591000D02*
X212668000Y-107591000D01*
X216496000Y-107631000D02*
X212764000Y-107631000D01*
X216393000Y-107671000D02*
X212867000Y-107671000D01*
X216284000Y-107711000D02*
X212976000Y-107711000D01*
X216166000Y-107751000D02*
X213094000Y-107751000D01*
X216037000Y-107791000D02*
X213223000Y-107791000D01*
X215895000Y-107831000D02*
X213365000Y-107831000D01*
X215734000Y-107871000D02*
X213526000Y-107871000D01*
X215543000Y-107911000D02*
X213717000Y-107911000D01*
X215302000Y-107951000D02*
X213958000Y-107951000D01*
X214909000Y-107991000D02*
X214351000Y-107991000D01*
X214630000Y-97710000D02*
X214630000Y-99210000D01*
X215380000Y-98460000D02*
X213880000Y-98460000D01*
X197898437Y-111646736D02*
G75*
G03X188100643Y-111650000I-4898437J-1383264D01*
G01*
X197898437Y-114413264D02*
G75*
G02X188100643Y-114410000I-4898437J1383264D01*
G01*
X197898437Y-114413264D02*
G75*
G03X197899357Y-111650000I-4898437J1383264D01*
G01*
X193000000Y-107980000D02*
X193000000Y-118080000D01*
X193040000Y-107980000D02*
X193040000Y-118080000D01*
X193080000Y-107980000D02*
X193080000Y-118080000D01*
X193120000Y-107981000D02*
X193120000Y-118079000D01*
X193160000Y-107982000D02*
X193160000Y-118078000D01*
X193200000Y-107983000D02*
X193200000Y-118077000D01*
X193240000Y-107985000D02*
X193240000Y-118075000D01*
X193280000Y-107987000D02*
X193280000Y-118073000D01*
X193320000Y-107990000D02*
X193320000Y-118070000D01*
X193360000Y-107992000D02*
X193360000Y-118068000D01*
X193400000Y-107995000D02*
X193400000Y-118065000D01*
X193440000Y-107999000D02*
X193440000Y-118061000D01*
X193480000Y-108002000D02*
X193480000Y-118058000D01*
X193520000Y-108006000D02*
X193520000Y-118054000D01*
X193560000Y-108010000D02*
X193560000Y-118050000D01*
X193600000Y-108015000D02*
X193600000Y-118045000D01*
X193640000Y-108020000D02*
X193640000Y-118040000D01*
X193680000Y-108025000D02*
X193680000Y-118035000D01*
X193721000Y-108031000D02*
X193721000Y-118029000D01*
X193761000Y-108037000D02*
X193761000Y-118023000D01*
X193801000Y-108043000D02*
X193801000Y-118017000D01*
X193841000Y-108049000D02*
X193841000Y-118011000D01*
X193881000Y-108056000D02*
X193881000Y-118004000D01*
X193921000Y-108063000D02*
X193921000Y-117997000D01*
X193961000Y-108071000D02*
X193961000Y-117989000D01*
X194001000Y-108079000D02*
X194001000Y-117981000D01*
X194041000Y-108087000D02*
X194041000Y-117973000D01*
X194081000Y-108095000D02*
X194081000Y-117965000D01*
X194121000Y-108104000D02*
X194121000Y-117956000D01*
X194161000Y-108113000D02*
X194161000Y-117947000D01*
X194201000Y-108123000D02*
X194201000Y-117937000D01*
X194241000Y-108133000D02*
X194241000Y-117927000D01*
X194281000Y-108143000D02*
X194281000Y-117917000D01*
X194321000Y-108154000D02*
X194321000Y-111849000D01*
X194321000Y-114211000D02*
X194321000Y-117906000D01*
X194361000Y-108165000D02*
X194361000Y-111849000D01*
X194361000Y-114211000D02*
X194361000Y-117895000D01*
X194401000Y-108176000D02*
X194401000Y-111849000D01*
X194401000Y-114211000D02*
X194401000Y-117884000D01*
X194441000Y-108187000D02*
X194441000Y-111849000D01*
X194441000Y-114211000D02*
X194441000Y-117873000D01*
X194481000Y-108199000D02*
X194481000Y-111849000D01*
X194481000Y-114211000D02*
X194481000Y-117861000D01*
X194521000Y-108212000D02*
X194521000Y-111849000D01*
X194521000Y-114211000D02*
X194521000Y-117848000D01*
X194561000Y-108224000D02*
X194561000Y-111849000D01*
X194561000Y-114211000D02*
X194561000Y-117836000D01*
X194601000Y-108238000D02*
X194601000Y-111849000D01*
X194601000Y-114211000D02*
X194601000Y-117822000D01*
X194641000Y-108251000D02*
X194641000Y-111849000D01*
X194641000Y-114211000D02*
X194641000Y-117809000D01*
X194681000Y-108265000D02*
X194681000Y-111849000D01*
X194681000Y-114211000D02*
X194681000Y-117795000D01*
X194721000Y-108279000D02*
X194721000Y-111849000D01*
X194721000Y-114211000D02*
X194721000Y-117781000D01*
X194761000Y-108293000D02*
X194761000Y-111849000D01*
X194761000Y-114211000D02*
X194761000Y-117767000D01*
X194801000Y-108308000D02*
X194801000Y-111849000D01*
X194801000Y-114211000D02*
X194801000Y-117752000D01*
X194841000Y-108324000D02*
X194841000Y-111849000D01*
X194841000Y-114211000D02*
X194841000Y-117736000D01*
X194881000Y-108339000D02*
X194881000Y-111849000D01*
X194881000Y-114211000D02*
X194881000Y-117721000D01*
X194921000Y-108356000D02*
X194921000Y-111849000D01*
X194921000Y-114211000D02*
X194921000Y-117704000D01*
X194961000Y-108372000D02*
X194961000Y-111849000D01*
X194961000Y-114211000D02*
X194961000Y-117688000D01*
X195001000Y-108389000D02*
X195001000Y-111849000D01*
X195001000Y-114211000D02*
X195001000Y-117671000D01*
X195041000Y-108406000D02*
X195041000Y-111849000D01*
X195041000Y-114211000D02*
X195041000Y-117654000D01*
X195081000Y-108424000D02*
X195081000Y-111849000D01*
X195081000Y-114211000D02*
X195081000Y-117636000D01*
X195121000Y-108442000D02*
X195121000Y-111849000D01*
X195121000Y-114211000D02*
X195121000Y-117618000D01*
X195161000Y-108461000D02*
X195161000Y-111849000D01*
X195161000Y-114211000D02*
X195161000Y-117599000D01*
X195201000Y-108480000D02*
X195201000Y-111849000D01*
X195201000Y-114211000D02*
X195201000Y-117580000D01*
X195241000Y-108499000D02*
X195241000Y-111849000D01*
X195241000Y-114211000D02*
X195241000Y-117561000D01*
X195281000Y-108519000D02*
X195281000Y-111849000D01*
X195281000Y-114211000D02*
X195281000Y-117541000D01*
X195321000Y-108539000D02*
X195321000Y-111849000D01*
X195321000Y-114211000D02*
X195321000Y-117521000D01*
X195361000Y-108560000D02*
X195361000Y-111849000D01*
X195361000Y-114211000D02*
X195361000Y-117500000D01*
X195401000Y-108581000D02*
X195401000Y-111849000D01*
X195401000Y-114211000D02*
X195401000Y-117479000D01*
X195441000Y-108602000D02*
X195441000Y-111849000D01*
X195441000Y-114211000D02*
X195441000Y-117458000D01*
X195481000Y-108625000D02*
X195481000Y-111849000D01*
X195481000Y-114211000D02*
X195481000Y-117435000D01*
X195521000Y-108647000D02*
X195521000Y-111849000D01*
X195521000Y-114211000D02*
X195521000Y-117413000D01*
X195561000Y-108670000D02*
X195561000Y-111849000D01*
X195561000Y-114211000D02*
X195561000Y-117390000D01*
X195601000Y-108694000D02*
X195601000Y-111849000D01*
X195601000Y-114211000D02*
X195601000Y-117366000D01*
X195641000Y-108718000D02*
X195641000Y-111849000D01*
X195641000Y-114211000D02*
X195641000Y-117342000D01*
X195681000Y-108742000D02*
X195681000Y-111849000D01*
X195681000Y-114211000D02*
X195681000Y-117318000D01*
X195721000Y-108767000D02*
X195721000Y-111849000D01*
X195721000Y-114211000D02*
X195721000Y-117293000D01*
X195761000Y-108793000D02*
X195761000Y-111849000D01*
X195761000Y-114211000D02*
X195761000Y-117267000D01*
X195801000Y-108819000D02*
X195801000Y-111849000D01*
X195801000Y-114211000D02*
X195801000Y-117241000D01*
X195841000Y-108845000D02*
X195841000Y-111849000D01*
X195841000Y-114211000D02*
X195841000Y-117215000D01*
X195881000Y-108873000D02*
X195881000Y-111849000D01*
X195881000Y-114211000D02*
X195881000Y-117187000D01*
X195921000Y-108900000D02*
X195921000Y-111849000D01*
X195921000Y-114211000D02*
X195921000Y-117160000D01*
X195961000Y-108929000D02*
X195961000Y-111849000D01*
X195961000Y-114211000D02*
X195961000Y-117131000D01*
X196001000Y-108958000D02*
X196001000Y-111849000D01*
X196001000Y-114211000D02*
X196001000Y-117102000D01*
X196041000Y-108987000D02*
X196041000Y-111849000D01*
X196041000Y-114211000D02*
X196041000Y-117073000D01*
X196081000Y-109017000D02*
X196081000Y-111849000D01*
X196081000Y-114211000D02*
X196081000Y-117043000D01*
X196121000Y-109048000D02*
X196121000Y-111849000D01*
X196121000Y-114211000D02*
X196121000Y-117012000D01*
X196161000Y-109079000D02*
X196161000Y-111849000D01*
X196161000Y-114211000D02*
X196161000Y-116981000D01*
X196201000Y-109111000D02*
X196201000Y-111849000D01*
X196201000Y-114211000D02*
X196201000Y-116949000D01*
X196241000Y-109144000D02*
X196241000Y-111849000D01*
X196241000Y-114211000D02*
X196241000Y-116916000D01*
X196281000Y-109177000D02*
X196281000Y-111849000D01*
X196281000Y-114211000D02*
X196281000Y-116883000D01*
X196321000Y-109211000D02*
X196321000Y-111849000D01*
X196321000Y-114211000D02*
X196321000Y-116849000D01*
X196361000Y-109246000D02*
X196361000Y-111849000D01*
X196361000Y-114211000D02*
X196361000Y-116814000D01*
X196401000Y-109282000D02*
X196401000Y-111849000D01*
X196401000Y-114211000D02*
X196401000Y-116778000D01*
X196441000Y-109318000D02*
X196441000Y-111849000D01*
X196441000Y-114211000D02*
X196441000Y-116742000D01*
X196481000Y-109355000D02*
X196481000Y-111849000D01*
X196481000Y-114211000D02*
X196481000Y-116705000D01*
X196521000Y-109393000D02*
X196521000Y-111849000D01*
X196521000Y-114211000D02*
X196521000Y-116667000D01*
X196561000Y-109432000D02*
X196561000Y-111849000D01*
X196561000Y-114211000D02*
X196561000Y-116628000D01*
X196601000Y-109471000D02*
X196601000Y-111849000D01*
X196601000Y-114211000D02*
X196601000Y-116589000D01*
X196641000Y-109512000D02*
X196641000Y-111849000D01*
X196641000Y-114211000D02*
X196641000Y-116548000D01*
X196681000Y-109553000D02*
X196681000Y-116507000D01*
X196721000Y-109595000D02*
X196721000Y-116465000D01*
X196761000Y-109639000D02*
X196761000Y-116421000D01*
X196801000Y-109683000D02*
X196801000Y-116377000D01*
X196841000Y-109728000D02*
X196841000Y-116332000D01*
X196881000Y-109775000D02*
X196881000Y-116285000D01*
X196921000Y-109823000D02*
X196921000Y-116237000D01*
X196961000Y-109872000D02*
X196961000Y-116188000D01*
X197001000Y-109922000D02*
X197001000Y-116138000D01*
X197041000Y-109973000D02*
X197041000Y-116087000D01*
X197081000Y-110026000D02*
X197081000Y-116034000D01*
X197121000Y-110081000D02*
X197121000Y-115979000D01*
X197161000Y-110136000D02*
X197161000Y-115924000D01*
X197201000Y-110194000D02*
X197201000Y-115866000D01*
X197241000Y-110253000D02*
X197241000Y-115807000D01*
X197281000Y-110315000D02*
X197281000Y-115745000D01*
X197321000Y-110378000D02*
X197321000Y-115682000D01*
X197361000Y-110443000D02*
X197361000Y-115617000D01*
X197401000Y-110511000D02*
X197401000Y-115549000D01*
X197441000Y-110581000D02*
X197441000Y-115479000D01*
X197481000Y-110653000D02*
X197481000Y-115407000D01*
X197521000Y-110729000D02*
X197521000Y-115331000D01*
X197561000Y-110808000D02*
X197561000Y-115252000D01*
X197601000Y-110890000D02*
X197601000Y-115170000D01*
X197641000Y-110977000D02*
X197641000Y-115083000D01*
X197681000Y-111068000D02*
X197681000Y-114992000D01*
X197721000Y-111164000D02*
X197721000Y-114896000D01*
X197761000Y-111267000D02*
X197761000Y-114793000D01*
X197801000Y-111376000D02*
X197801000Y-114684000D01*
X197841000Y-111494000D02*
X197841000Y-114566000D01*
X197881000Y-111623000D02*
X197881000Y-114437000D01*
X197921000Y-111765000D02*
X197921000Y-114295000D01*
X197961000Y-111926000D02*
X197961000Y-114134000D01*
X198001000Y-112117000D02*
X198001000Y-113943000D01*
X198041000Y-112358000D02*
X198041000Y-113702000D01*
X198081000Y-112751000D02*
X198081000Y-113309000D01*
X187800000Y-113030000D02*
X189300000Y-113030000D01*
X188550000Y-112280000D02*
X188550000Y-113780000D01*
X175210000Y-48150000D02*
X162610000Y-48150000D01*
X162610000Y-48150000D02*
X162610000Y-58500000D01*
X162610000Y-58500000D02*
X163560000Y-58500000D01*
X163560000Y-58500000D02*
X163310000Y-59000000D01*
X163310000Y-59000000D02*
X165210000Y-59000000D01*
X165210000Y-59000000D02*
X165260000Y-59000000D01*
X165260000Y-59000000D02*
X165010000Y-58500000D01*
X165010000Y-58500000D02*
X170410000Y-58500000D01*
X170410000Y-58500000D02*
X170110000Y-59000000D01*
X170110000Y-59000000D02*
X175210000Y-59000000D01*
X175210000Y-59000000D02*
X175210000Y-48150000D01*
X255320000Y-78770000D02*
X267920000Y-78770000D01*
X267920000Y-78770000D02*
X267920000Y-68420000D01*
X267920000Y-68420000D02*
X266970000Y-68420000D01*
X266970000Y-68420000D02*
X267220000Y-67920000D01*
X267220000Y-67920000D02*
X265320000Y-67920000D01*
X265320000Y-67920000D02*
X265270000Y-67920000D01*
X265270000Y-67920000D02*
X265520000Y-68420000D01*
X265520000Y-68420000D02*
X260120000Y-68420000D01*
X260120000Y-68420000D02*
X260420000Y-67920000D01*
X260420000Y-67920000D02*
X255320000Y-67920000D01*
X255320000Y-67920000D02*
X255320000Y-78770000D01*
X257640000Y-93980000D02*
X257640000Y-123980000D01*
X268140000Y-123980000D02*
X268140000Y-93980000D01*
X257640000Y-123980000D02*
G75*
G03X268140000Y-123980000I5250000J0D01*
G01*
X268140000Y-93980000D02*
G75*
G03X257640000Y-93980000I-5250000J0D01*
G01*
X172760000Y-112360000D02*
X170140000Y-112360000D01*
X170140000Y-112360000D02*
X170140000Y-118780000D01*
X170140000Y-118780000D02*
X172760000Y-118780000D01*
X172760000Y-118780000D02*
X172760000Y-112360000D01*
X171450000Y-108930000D02*
X171450000Y-112360000D01*
X171450000Y-122210000D02*
X171450000Y-118780000D01*
X188560000Y-102830000D02*
X188560000Y-105450000D01*
X188560000Y-105450000D02*
X194980000Y-105450000D01*
X194980000Y-105450000D02*
X194980000Y-102830000D01*
X194980000Y-102830000D02*
X188560000Y-102830000D01*
X185130000Y-104140000D02*
X188560000Y-104140000D01*
X198410000Y-104140000D02*
X194980000Y-104140000D01*
X184190000Y-75530000D02*
X181570000Y-75530000D01*
X181570000Y-75530000D02*
X181570000Y-81950000D01*
X181570000Y-81950000D02*
X184190000Y-81950000D01*
X184190000Y-81950000D02*
X184190000Y-75530000D01*
X182880000Y-72100000D02*
X182880000Y-75530000D01*
X182880000Y-85380000D02*
X182880000Y-81950000D01*
X233010000Y-116800000D02*
X233010000Y-119420000D01*
X233010000Y-119420000D02*
X239430000Y-119420000D01*
X239430000Y-119420000D02*
X239430000Y-116800000D01*
X239430000Y-116800000D02*
X233010000Y-116800000D01*
X229580000Y-118110000D02*
X233010000Y-118110000D01*
X242860000Y-118110000D02*
X239430000Y-118110000D01*
X201970000Y-81880000D02*
X199350000Y-81880000D01*
X199350000Y-81880000D02*
X199350000Y-88300000D01*
X199350000Y-88300000D02*
X201970000Y-88300000D01*
X201970000Y-88300000D02*
X201970000Y-81880000D01*
X200660000Y-78450000D02*
X200660000Y-81880000D01*
X200660000Y-91730000D02*
X200660000Y-88300000D01*
X163790000Y-40040000D02*
X166410000Y-40040000D01*
X166410000Y-40040000D02*
X166410000Y-33620000D01*
X166410000Y-33620000D02*
X163790000Y-33620000D01*
X163790000Y-33620000D02*
X163790000Y-40040000D01*
X165100000Y-43470000D02*
X165100000Y-40040000D01*
X165100000Y-30190000D02*
X165100000Y-33620000D01*
X177840000Y-75530000D02*
X175220000Y-75530000D01*
X175220000Y-75530000D02*
X175220000Y-81950000D01*
X175220000Y-81950000D02*
X177840000Y-81950000D01*
X177840000Y-81950000D02*
X177840000Y-75530000D01*
X176530000Y-72100000D02*
X176530000Y-75530000D01*
X176530000Y-85380000D02*
X176530000Y-81950000D01*
X219110000Y-114340000D02*
X219110000Y-111720000D01*
X219110000Y-111720000D02*
X212690000Y-111720000D01*
X212690000Y-111720000D02*
X212690000Y-114340000D01*
X212690000Y-114340000D02*
X219110000Y-114340000D01*
X222540000Y-113030000D02*
X219110000Y-113030000D01*
X209260000Y-113030000D02*
X212690000Y-113030000D01*
X195620000Y-60290000D02*
X193000000Y-60290000D01*
X193000000Y-60290000D02*
X193000000Y-66710000D01*
X193000000Y-66710000D02*
X195620000Y-66710000D01*
X195620000Y-66710000D02*
X195620000Y-60290000D01*
X194310000Y-56860000D02*
X194310000Y-60290000D01*
X194310000Y-70140000D02*
X194310000Y-66710000D01*
X205780000Y-102200000D02*
X203160000Y-102200000D01*
X203160000Y-102200000D02*
X203160000Y-108620000D01*
X203160000Y-108620000D02*
X205780000Y-108620000D01*
X205780000Y-108620000D02*
X205780000Y-102200000D01*
X204470000Y-98770000D02*
X204470000Y-102200000D01*
X204470000Y-112050000D02*
X204470000Y-108620000D01*
X198080000Y-64170000D02*
X200700000Y-64170000D01*
X200700000Y-64170000D02*
X200700000Y-57750000D01*
X200700000Y-57750000D02*
X198080000Y-57750000D01*
X198080000Y-57750000D02*
X198080000Y-64170000D01*
X199390000Y-67600000D02*
X199390000Y-64170000D01*
X199390000Y-54320000D02*
X199390000Y-57750000D01*
X210150000Y-59650000D02*
X210150000Y-62270000D01*
X210150000Y-62270000D02*
X216570000Y-62270000D01*
X216570000Y-62270000D02*
X216570000Y-59650000D01*
X216570000Y-59650000D02*
X210150000Y-59650000D01*
X206720000Y-60960000D02*
X210150000Y-60960000D01*
X220000000Y-60960000D02*
X216570000Y-60960000D01*
X234350000Y-107990000D02*
X234350000Y-105370000D01*
X234350000Y-105370000D02*
X227930000Y-105370000D01*
X227930000Y-105370000D02*
X227930000Y-107990000D01*
X227930000Y-107990000D02*
X234350000Y-107990000D01*
X237780000Y-106680000D02*
X234350000Y-106680000D01*
X224500000Y-106680000D02*
X227930000Y-106680000D01*
X216570000Y-57190000D02*
X216570000Y-54570000D01*
X216570000Y-54570000D02*
X210150000Y-54570000D01*
X210150000Y-54570000D02*
X210150000Y-57190000D01*
X210150000Y-57190000D02*
X216570000Y-57190000D01*
X220000000Y-55880000D02*
X216570000Y-55880000D01*
X206720000Y-55880000D02*
X210150000Y-55880000D01*
X233010000Y-111720000D02*
X233010000Y-114340000D01*
X233010000Y-114340000D02*
X239430000Y-114340000D01*
X239430000Y-114340000D02*
X239430000Y-111720000D01*
X239430000Y-111720000D02*
X233010000Y-111720000D01*
X229580000Y-113030000D02*
X233010000Y-113030000D01*
X242860000Y-113030000D02*
X239430000Y-113030000D01*
X227930000Y-50760000D02*
X227930000Y-53380000D01*
X227930000Y-53380000D02*
X234350000Y-53380000D01*
X234350000Y-53380000D02*
X234350000Y-50760000D01*
X234350000Y-50760000D02*
X227930000Y-50760000D01*
X224500000Y-52070000D02*
X227930000Y-52070000D01*
X237780000Y-52070000D02*
X234350000Y-52070000D01*
X215860000Y-76870000D02*
X218480000Y-76870000D01*
X218480000Y-76870000D02*
X218480000Y-70450000D01*
X218480000Y-70450000D02*
X215860000Y-70450000D01*
X215860000Y-70450000D02*
X215860000Y-76870000D01*
X217170000Y-80300000D02*
X217170000Y-76870000D01*
X217170000Y-67020000D02*
X217170000Y-70450000D01*
X254600000Y-43140000D02*
X254600000Y-45760000D01*
X254600000Y-45760000D02*
X261020000Y-45760000D01*
X261020000Y-45760000D02*
X261020000Y-43140000D01*
X261020000Y-43140000D02*
X254600000Y-43140000D01*
X251170000Y-44450000D02*
X254600000Y-44450000D01*
X264450000Y-44450000D02*
X261020000Y-44450000D01*
X234350000Y-102910000D02*
X234350000Y-100290000D01*
X234350000Y-100290000D02*
X227930000Y-100290000D01*
X227930000Y-100290000D02*
X227930000Y-102910000D01*
X227930000Y-102910000D02*
X234350000Y-102910000D01*
X237780000Y-101600000D02*
X234350000Y-101600000D01*
X224500000Y-101600000D02*
X227930000Y-101600000D01*
X245150000Y-94580000D02*
X242530000Y-94580000D01*
X242530000Y-94580000D02*
X242530000Y-101000000D01*
X242530000Y-101000000D02*
X245150000Y-101000000D01*
X245150000Y-101000000D02*
X245150000Y-94580000D01*
X243840000Y-91150000D02*
X243840000Y-94580000D01*
X243840000Y-104430000D02*
X243840000Y-101000000D01*
X254600000Y-53300000D02*
X254600000Y-55920000D01*
X254600000Y-55920000D02*
X261020000Y-55920000D01*
X261020000Y-55920000D02*
X261020000Y-53300000D01*
X261020000Y-53300000D02*
X254600000Y-53300000D01*
X251170000Y-54610000D02*
X254600000Y-54610000D01*
X264450000Y-54610000D02*
X261020000Y-54610000D01*
X250230000Y-94580000D02*
X247610000Y-94580000D01*
X247610000Y-94580000D02*
X247610000Y-101000000D01*
X247610000Y-101000000D02*
X250230000Y-101000000D01*
X250230000Y-101000000D02*
X250230000Y-94580000D01*
X248920000Y-91150000D02*
X248920000Y-94580000D01*
X248920000Y-104430000D02*
X248920000Y-101000000D01*
X254600000Y-48220000D02*
X254600000Y-50840000D01*
X254600000Y-50840000D02*
X261020000Y-50840000D01*
X261020000Y-50840000D02*
X261020000Y-48220000D01*
X261020000Y-48220000D02*
X254600000Y-48220000D01*
X251170000Y-49530000D02*
X254600000Y-49530000D01*
X264450000Y-49530000D02*
X261020000Y-49530000D01*
X255310000Y-94580000D02*
X252690000Y-94580000D01*
X252690000Y-94580000D02*
X252690000Y-101000000D01*
X252690000Y-101000000D02*
X255310000Y-101000000D01*
X255310000Y-101000000D02*
X255310000Y-94580000D01*
X254000000Y-91150000D02*
X254000000Y-94580000D01*
X254000000Y-104430000D02*
X254000000Y-101000000D01*
X229200000Y-59650000D02*
X229200000Y-62270000D01*
X229200000Y-62270000D02*
X235620000Y-62270000D01*
X235620000Y-62270000D02*
X235620000Y-59650000D01*
X235620000Y-59650000D02*
X229200000Y-59650000D01*
X225770000Y-60960000D02*
X229200000Y-60960000D01*
X239050000Y-60960000D02*
X235620000Y-60960000D01*
D11*
X185000000Y-97790000D02*
G75*
G03X185000000Y-97790000I-400000J0D01*
G01*
X183800000Y-97790000D02*
G75*
G03X183800000Y-97790000I-4000000J0D01*
G01*
X185400000Y-97790000D02*
G75*
G03X185400000Y-97790000I-5600000J0D01*
G01*
X208680000Y-86100000D02*
G75*
G03X208680000Y-86100000I-400000J0D01*
G01*
X212280000Y-90900000D02*
G75*
G03X212280000Y-90900000I-4000000J0D01*
G01*
X213880000Y-90900000D02*
G75*
G03X213880000Y-90900000I-5600000J0D01*
G01*
D12*
X189415000Y-40900000D02*
X183965000Y-40900000D01*
X183965000Y-40900000D02*
X183965000Y-50540000D01*
X183965000Y-50540000D02*
X189415000Y-50540000D01*
X189415000Y-50540000D02*
X189415000Y-40900000D01*
X186690000Y-39480000D02*
X186690000Y-40900000D01*
X186690000Y-51960000D02*
X186690000Y-50540000D01*
X189415000Y-42388000D02*
X183965000Y-42388000D01*
X175520000Y-27755000D02*
X175520000Y-33205000D01*
X175520000Y-33205000D02*
X185160000Y-33205000D01*
X185160000Y-33205000D02*
X185160000Y-27755000D01*
X185160000Y-27755000D02*
X175520000Y-27755000D01*
X174100000Y-30480000D02*
X175520000Y-30480000D01*
X186580000Y-30480000D02*
X185160000Y-30480000D01*
X177008000Y-27755000D02*
X177008000Y-33205000D01*
X222435000Y-33280000D02*
X216985000Y-33280000D01*
X216985000Y-33280000D02*
X216985000Y-42920000D01*
X216985000Y-42920000D02*
X222435000Y-42920000D01*
X222435000Y-42920000D02*
X222435000Y-33280000D01*
X219710000Y-31860000D02*
X219710000Y-33280000D01*
X219710000Y-44340000D02*
X219710000Y-42920000D01*
X222435000Y-34768000D02*
X216985000Y-34768000D01*
X200920000Y-27755000D02*
X200920000Y-33205000D01*
X200920000Y-33205000D02*
X210560000Y-33205000D01*
X210560000Y-33205000D02*
X210560000Y-27755000D01*
X210560000Y-27755000D02*
X200920000Y-27755000D01*
X199500000Y-30480000D02*
X200920000Y-30480000D01*
X211980000Y-30480000D02*
X210560000Y-30480000D01*
X202408000Y-27755000D02*
X202408000Y-33205000D01*
X210560000Y-42095000D02*
X210560000Y-36645000D01*
X210560000Y-36645000D02*
X200920000Y-36645000D01*
X200920000Y-36645000D02*
X200920000Y-42095000D01*
X200920000Y-42095000D02*
X210560000Y-42095000D01*
X211980000Y-39370000D02*
X210560000Y-39370000D01*
X199500000Y-39370000D02*
X200920000Y-39370000D01*
X209072000Y-42095000D02*
X209072000Y-36645000D01*
X200920000Y-44265000D02*
X200920000Y-49715000D01*
X200920000Y-49715000D02*
X210560000Y-49715000D01*
X210560000Y-49715000D02*
X210560000Y-44265000D01*
X210560000Y-44265000D02*
X200920000Y-44265000D01*
X199500000Y-46990000D02*
X200920000Y-46990000D01*
X211980000Y-46990000D02*
X210560000Y-46990000D01*
X202408000Y-44265000D02*
X202408000Y-49715000D01*
X225700000Y-48090000D02*
X225200000Y-48690000D01*
X225200000Y-48690000D02*
X224600000Y-47990000D01*
X224600000Y-47990000D02*
X225100000Y-47590000D01*
X233200000Y-44490000D02*
G75*
G03X233200000Y-44490000I-4600000J0D01*
G01*
D11*
X223920000Y-90620000D02*
G75*
G03X223920000Y-90620000I-400000J0D01*
G01*
X227520000Y-85820000D02*
G75*
G03X227520000Y-85820000I-4000000J0D01*
G01*
X229120000Y-85820000D02*
G75*
G03X229120000Y-85820000I-5600000J0D01*
G01*
D12*
X248280000Y-50800000D02*
X241940000Y-50800000D01*
X248280000Y-58420000D02*
X241940000Y-58420000D01*
X246380000Y-58420000D02*
X246380000Y-50800000D01*
X248280000Y-50800000D02*
X248280000Y-58420000D01*
X241940000Y-58420000D02*
X241940000Y-50800000D01*
X249560000Y-87630000D02*
X255900000Y-87630000D01*
X249560000Y-80010000D02*
X255900000Y-80010000D01*
X251460000Y-80010000D02*
X251460000Y-87630000D01*
X249560000Y-87630000D02*
X249560000Y-80010000D01*
X255900000Y-80010000D02*
X255900000Y-87630000D01*
X226320000Y-92525000D02*
X226320000Y-97975000D01*
X226320000Y-97975000D02*
X235960000Y-97975000D01*
X235960000Y-97975000D02*
X235960000Y-92525000D01*
X235960000Y-92525000D02*
X226320000Y-92525000D01*
X224900000Y-95250000D02*
X226320000Y-95250000D01*
X237380000Y-95250000D02*
X235960000Y-95250000D01*
X227808000Y-92525000D02*
X227808000Y-97975000D01*
X170140000Y-99730000D02*
X172760000Y-99730000D01*
X172760000Y-99730000D02*
X172760000Y-93310000D01*
X172760000Y-93310000D02*
X170140000Y-93310000D01*
X170140000Y-93310000D02*
X170140000Y-99730000D01*
X171450000Y-103160000D02*
X171450000Y-99730000D01*
X171450000Y-89880000D02*
X171450000Y-93310000D01*
D13*
X190620000Y-49215000D02*
X195450000Y-49215000D01*
X195450000Y-49215000D02*
X195450000Y-39685000D01*
X195450000Y-39685000D02*
X190620000Y-39685000D01*
X190620000Y-39685000D02*
X190620000Y-49215000D01*
X210505000Y-120530000D02*
X210505000Y-115700000D01*
X210505000Y-115700000D02*
X200975000Y-115700000D01*
X200975000Y-115700000D02*
X200975000Y-120530000D01*
X200975000Y-120530000D02*
X210505000Y-120530000D01*
D12*
X263906000Y-33020000D02*
G75*
G03X263906000Y-33020000I-2286000J0D01*
G01*
X253746000Y-114300000D02*
G75*
G03X253746000Y-114300000I-2286000J0D01*
G01*
X183896000Y-60960000D02*
G75*
G03X183896000Y-60960000I-2286000J0D01*
G01*
X182626000Y-124460000D02*
G75*
G03X182626000Y-124460000I-2286000J0D01*
G01*
D11*
X240014286Y-35742381D02*
X240347619Y-36742381D01*
X240680953Y-35742381D01*
X241538096Y-36742381D02*
X240966667Y-36742381D01*
X241252381Y-36742381D02*
X241252381Y-35742381D01*
X241157143Y-35885238D01*
X241061905Y-35980476D01*
X240966667Y-36028095D01*
X242395239Y-36075714D02*
X242395239Y-36742381D01*
X242157143Y-35694762D02*
X241919048Y-36409048D01*
X242538096Y-36409048D01*
X168783334Y-71437143D02*
X168735715Y-71484762D01*
X168592858Y-71532381D01*
X168497620Y-71532381D01*
X168354762Y-71484762D01*
X168259524Y-71389524D01*
X168211905Y-71294286D01*
X168164286Y-71103810D01*
X168164286Y-70960952D01*
X168211905Y-70770476D01*
X168259524Y-70675238D01*
X168354762Y-70580000D01*
X168497620Y-70532381D01*
X168592858Y-70532381D01*
X168735715Y-70580000D01*
X168783334Y-70627619D01*
X169735715Y-71532381D02*
X169164286Y-71532381D01*
X169450000Y-71532381D02*
X169450000Y-70532381D01*
X169354762Y-70675238D01*
X169259524Y-70770476D01*
X169164286Y-70818095D01*
X178260476Y-35742381D02*
X178593809Y-36742381D01*
X178927143Y-35742381D01*
X179165238Y-35742381D02*
X179784286Y-35742381D01*
X179450952Y-36123333D01*
X179593810Y-36123333D01*
X179689048Y-36170952D01*
X179736667Y-36218571D01*
X179784286Y-36313810D01*
X179784286Y-36551905D01*
X179736667Y-36647143D01*
X179689048Y-36694762D01*
X179593810Y-36742381D01*
X179308095Y-36742381D01*
X179212857Y-36694762D01*
X179165238Y-36647143D01*
X261604286Y-57872381D02*
X261937619Y-58872381D01*
X262270953Y-57872381D01*
X263128096Y-58872381D02*
X262556667Y-58872381D01*
X262842381Y-58872381D02*
X262842381Y-57872381D01*
X262747143Y-58015238D01*
X262651905Y-58110476D01*
X262556667Y-58158095D01*
X263985239Y-57872381D02*
X263794762Y-57872381D01*
X263699524Y-57920000D01*
X263651905Y-57967619D01*
X263556667Y-58110476D01*
X263509048Y-58300952D01*
X263509048Y-58681905D01*
X263556667Y-58777143D01*
X263604286Y-58824762D01*
X263699524Y-58872381D01*
X263890001Y-58872381D01*
X263985239Y-58824762D01*
X264032858Y-58777143D01*
X264080477Y-58681905D01*
X264080477Y-58443810D01*
X264032858Y-58348571D01*
X263985239Y-58300952D01*
X263890001Y-58253333D01*
X263699524Y-58253333D01*
X263604286Y-58300952D01*
X263556667Y-58348571D01*
X263509048Y-58443810D01*
X237323334Y-65127143D02*
X237275715Y-65174762D01*
X237132858Y-65222381D01*
X237037620Y-65222381D01*
X236894762Y-65174762D01*
X236799524Y-65079524D01*
X236751905Y-64984286D01*
X236704286Y-64793810D01*
X236704286Y-64650952D01*
X236751905Y-64460476D01*
X236799524Y-64365238D01*
X236894762Y-64270000D01*
X237037620Y-64222381D01*
X237132858Y-64222381D01*
X237275715Y-64270000D01*
X237323334Y-64317619D01*
X237656667Y-64222381D02*
X238323334Y-64222381D01*
X237894762Y-65222381D01*
X193500476Y-88352381D02*
X193833809Y-89352381D01*
X194167143Y-88352381D01*
X195024286Y-89352381D02*
X194452857Y-89352381D01*
X194738571Y-89352381D02*
X194738571Y-88352381D01*
X194643333Y-88495238D01*
X194548095Y-88590476D01*
X194452857Y-88638095D01*
X230072381Y-87645714D02*
X231072381Y-87312381D01*
X230072381Y-86979047D01*
X231072381Y-86121904D02*
X231072381Y-86693333D01*
X231072381Y-86407619D02*
X230072381Y-86407619D01*
X230215238Y-86502857D01*
X230310476Y-86598095D01*
X230358095Y-86693333D01*
X230072381Y-85217142D02*
X230072381Y-85693333D01*
X230548571Y-85740952D01*
X230500952Y-85693333D01*
X230453333Y-85598095D01*
X230453333Y-85359999D01*
X230500952Y-85264761D01*
X230548571Y-85217142D01*
X230643810Y-85169523D01*
X230881905Y-85169523D01*
X230977143Y-85217142D01*
X231024762Y-85264761D01*
X231072381Y-85359999D01*
X231072381Y-85598095D01*
X231024762Y-85693333D01*
X230977143Y-85740952D01*
X206994286Y-62952381D02*
X207327619Y-63952381D01*
X207660953Y-62952381D01*
X208518096Y-63952381D02*
X207946667Y-63952381D01*
X208232381Y-63952381D02*
X208232381Y-62952381D01*
X208137143Y-63095238D01*
X208041905Y-63190476D01*
X207946667Y-63238095D01*
X208899048Y-63047619D02*
X208946667Y-63000000D01*
X209041905Y-62952381D01*
X209280001Y-62952381D01*
X209375239Y-63000000D01*
X209422858Y-63047619D01*
X209470477Y-63142857D01*
X209470477Y-63238095D01*
X209422858Y-63380952D01*
X208851429Y-63952381D01*
X209470477Y-63952381D01*
X187372381Y-64142857D02*
X186896190Y-64476191D01*
X187372381Y-64714286D02*
X186372381Y-64714286D01*
X186372381Y-64333333D01*
X186420000Y-64238095D01*
X186467619Y-64190476D01*
X186562857Y-64142857D01*
X186705714Y-64142857D01*
X186800952Y-64190476D01*
X186848571Y-64238095D01*
X186896190Y-64333333D01*
X186896190Y-64714286D01*
X187372381Y-63190476D02*
X187372381Y-63761905D01*
X187372381Y-63476191D02*
X186372381Y-63476191D01*
X186515238Y-63571429D01*
X186610476Y-63666667D01*
X186658095Y-63761905D01*
X187372381Y-62238095D02*
X187372381Y-62809524D01*
X187372381Y-62523810D02*
X186372381Y-62523810D01*
X186515238Y-62619048D01*
X186610476Y-62714286D01*
X186658095Y-62809524D01*
X180173334Y-107037143D02*
X180125715Y-107084762D01*
X179982858Y-107132381D01*
X179887620Y-107132381D01*
X179744762Y-107084762D01*
X179649524Y-106989524D01*
X179601905Y-106894286D01*
X179554286Y-106703810D01*
X179554286Y-106560952D01*
X179601905Y-106370476D01*
X179649524Y-106275238D01*
X179744762Y-106180000D01*
X179887620Y-106132381D01*
X179982858Y-106132381D01*
X180125715Y-106180000D01*
X180173334Y-106227619D01*
X180554286Y-106227619D02*
X180601905Y-106180000D01*
X180697143Y-106132381D01*
X180935239Y-106132381D01*
X181030477Y-106180000D01*
X181078096Y-106227619D01*
X181125715Y-106322857D01*
X181125715Y-106418095D01*
X181078096Y-106560952D01*
X180506667Y-107132381D01*
X181125715Y-107132381D01*
X192873334Y-119737143D02*
X192825715Y-119784762D01*
X192682858Y-119832381D01*
X192587620Y-119832381D01*
X192444762Y-119784762D01*
X192349524Y-119689524D01*
X192301905Y-119594286D01*
X192254286Y-119403810D01*
X192254286Y-119260952D01*
X192301905Y-119070476D01*
X192349524Y-118975238D01*
X192444762Y-118880000D01*
X192587620Y-118832381D01*
X192682858Y-118832381D01*
X192825715Y-118880000D01*
X192873334Y-118927619D01*
X193206667Y-118832381D02*
X193825715Y-118832381D01*
X193492381Y-119213333D01*
X193635239Y-119213333D01*
X193730477Y-119260952D01*
X193778096Y-119308571D01*
X193825715Y-119403810D01*
X193825715Y-119641905D01*
X193778096Y-119737143D01*
X193730477Y-119784762D01*
X193635239Y-119832381D01*
X193349524Y-119832381D01*
X193254286Y-119784762D01*
X193206667Y-119737143D01*
X189063334Y-75287143D02*
X189015715Y-75334762D01*
X188872858Y-75382381D01*
X188777620Y-75382381D01*
X188634762Y-75334762D01*
X188539524Y-75239524D01*
X188491905Y-75144286D01*
X188444286Y-74953810D01*
X188444286Y-74810952D01*
X188491905Y-74620476D01*
X188539524Y-74525238D01*
X188634762Y-74430000D01*
X188777620Y-74382381D01*
X188872858Y-74382381D01*
X189015715Y-74430000D01*
X189063334Y-74477619D01*
X189920477Y-74715714D02*
X189920477Y-75382381D01*
X189682381Y-74334762D02*
X189444286Y-75049048D01*
X190063334Y-75049048D01*
X221297143Y-103076666D02*
X221344762Y-103124285D01*
X221392381Y-103267142D01*
X221392381Y-103362380D01*
X221344762Y-103505238D01*
X221249524Y-103600476D01*
X221154286Y-103648095D01*
X220963810Y-103695714D01*
X220820952Y-103695714D01*
X220630476Y-103648095D01*
X220535238Y-103600476D01*
X220440000Y-103505238D01*
X220392381Y-103362380D01*
X220392381Y-103267142D01*
X220440000Y-103124285D01*
X220487619Y-103076666D01*
X220392381Y-102171904D02*
X220392381Y-102648095D01*
X220868571Y-102695714D01*
X220820952Y-102648095D01*
X220773333Y-102552857D01*
X220773333Y-102314761D01*
X220820952Y-102219523D01*
X220868571Y-102171904D01*
X220963810Y-102124285D01*
X221201905Y-102124285D01*
X221297143Y-102171904D01*
X221344762Y-102219523D01*
X221392381Y-102314761D01*
X221392381Y-102552857D01*
X221344762Y-102648095D01*
X221297143Y-102695714D01*
X192833334Y-107077143D02*
X192785715Y-107124762D01*
X192642858Y-107172381D01*
X192547620Y-107172381D01*
X192404762Y-107124762D01*
X192309524Y-107029524D01*
X192261905Y-106934286D01*
X192214286Y-106743810D01*
X192214286Y-106600952D01*
X192261905Y-106410476D01*
X192309524Y-106315238D01*
X192404762Y-106220000D01*
X192547620Y-106172381D01*
X192642858Y-106172381D01*
X192785715Y-106220000D01*
X192833334Y-106267619D01*
X193690477Y-106172381D02*
X193500000Y-106172381D01*
X193404762Y-106220000D01*
X193357143Y-106267619D01*
X193261905Y-106410476D01*
X193214286Y-106600952D01*
X193214286Y-106981905D01*
X193261905Y-107077143D01*
X193309524Y-107124762D01*
X193404762Y-107172381D01*
X193595239Y-107172381D01*
X193690477Y-107124762D01*
X193738096Y-107077143D01*
X193785715Y-106981905D01*
X193785715Y-106743810D01*
X193738096Y-106648571D01*
X193690477Y-106600952D01*
X193595239Y-106553333D01*
X193404762Y-106553333D01*
X193309524Y-106600952D01*
X193261905Y-106648571D01*
X193214286Y-106743810D01*
X161742381Y-55459048D02*
X160742381Y-55459048D01*
X161075714Y-54982858D02*
X161742381Y-54982858D01*
X161170952Y-54982858D02*
X161123333Y-54935239D01*
X161075714Y-54840001D01*
X161075714Y-54697143D01*
X161123333Y-54601905D01*
X161218571Y-54554286D01*
X161742381Y-54554286D01*
X161075714Y-54078096D02*
X162075714Y-54078096D01*
X161123333Y-54078096D02*
X161075714Y-53982858D01*
X161075714Y-53792381D01*
X161123333Y-53697143D01*
X161170952Y-53649524D01*
X161266190Y-53601905D01*
X161551905Y-53601905D01*
X161647143Y-53649524D01*
X161694762Y-53697143D01*
X161742381Y-53792381D01*
X161742381Y-53982858D01*
X161694762Y-54078096D01*
X161075714Y-52744762D02*
X161742381Y-52744762D01*
X161075714Y-53173334D02*
X161599524Y-53173334D01*
X161694762Y-53125715D01*
X161742381Y-53030477D01*
X161742381Y-52887619D01*
X161694762Y-52792381D01*
X161647143Y-52744762D01*
X161075714Y-52411429D02*
X161075714Y-52030477D01*
X160742381Y-52268572D02*
X161599524Y-52268572D01*
X161694762Y-52220953D01*
X161742381Y-52125715D01*
X161742381Y-52030477D01*
X161742381Y-51173333D02*
X161742381Y-51744762D01*
X161742381Y-51459048D02*
X160742381Y-51459048D01*
X160885238Y-51554286D01*
X160980476Y-51649524D01*
X161028095Y-51744762D01*
X268692381Y-76080001D02*
X268692381Y-75889524D01*
X268740000Y-75794286D01*
X268835238Y-75699048D01*
X269025714Y-75651429D01*
X269359048Y-75651429D01*
X269549524Y-75699048D01*
X269644762Y-75794286D01*
X269692381Y-75889524D01*
X269692381Y-76080001D01*
X269644762Y-76175239D01*
X269549524Y-76270477D01*
X269359048Y-76318096D01*
X269025714Y-76318096D01*
X268835238Y-76270477D01*
X268740000Y-76175239D01*
X268692381Y-76080001D01*
X269025714Y-74794286D02*
X269692381Y-74794286D01*
X269025714Y-75222858D02*
X269549524Y-75222858D01*
X269644762Y-75175239D01*
X269692381Y-75080001D01*
X269692381Y-74937143D01*
X269644762Y-74841905D01*
X269597143Y-74794286D01*
X269025714Y-74460953D02*
X269025714Y-74080001D01*
X268692381Y-74318096D02*
X269549524Y-74318096D01*
X269644762Y-74270477D01*
X269692381Y-74175239D01*
X269692381Y-74080001D01*
X269025714Y-73746667D02*
X270025714Y-73746667D01*
X269073333Y-73746667D02*
X269025714Y-73651429D01*
X269025714Y-73460952D01*
X269073333Y-73365714D01*
X269120952Y-73318095D01*
X269216190Y-73270476D01*
X269501905Y-73270476D01*
X269597143Y-73318095D01*
X269644762Y-73365714D01*
X269692381Y-73460952D01*
X269692381Y-73651429D01*
X269644762Y-73746667D01*
X269025714Y-72413333D02*
X269692381Y-72413333D01*
X269025714Y-72841905D02*
X269549524Y-72841905D01*
X269644762Y-72794286D01*
X269692381Y-72699048D01*
X269692381Y-72556190D01*
X269644762Y-72460952D01*
X269597143Y-72413333D01*
X269025714Y-72080000D02*
X269025714Y-71699048D01*
X268692381Y-71937143D02*
X269549524Y-71937143D01*
X269644762Y-71889524D01*
X269692381Y-71794286D01*
X269692381Y-71699048D01*
X269692381Y-70841904D02*
X269692381Y-71413333D01*
X269692381Y-71127619D02*
X268692381Y-71127619D01*
X268835238Y-71222857D01*
X268930476Y-71318095D01*
X268978095Y-71413333D01*
X269692381Y-111672381D02*
X268692381Y-111672381D01*
X268692381Y-111291428D01*
X268740000Y-111196190D01*
X268787619Y-111148571D01*
X268882857Y-111100952D01*
X269025714Y-111100952D01*
X269120952Y-111148571D01*
X269168571Y-111196190D01*
X269216190Y-111291428D01*
X269216190Y-111672381D01*
X269692381Y-110529524D02*
X269644762Y-110624762D01*
X269597143Y-110672381D01*
X269501905Y-110720000D01*
X269216190Y-110720000D01*
X269120952Y-110672381D01*
X269073333Y-110624762D01*
X269025714Y-110529524D01*
X269025714Y-110386666D01*
X269073333Y-110291428D01*
X269120952Y-110243809D01*
X269216190Y-110196190D01*
X269501905Y-110196190D01*
X269597143Y-110243809D01*
X269644762Y-110291428D01*
X269692381Y-110386666D01*
X269692381Y-110529524D01*
X269025714Y-109862857D02*
X269692381Y-109672381D01*
X269216190Y-109481904D01*
X269692381Y-109291428D01*
X269025714Y-109100952D01*
X269644762Y-108339047D02*
X269692381Y-108434285D01*
X269692381Y-108624762D01*
X269644762Y-108720000D01*
X269549524Y-108767619D01*
X269168571Y-108767619D01*
X269073333Y-108720000D01*
X269025714Y-108624762D01*
X269025714Y-108434285D01*
X269073333Y-108339047D01*
X269168571Y-108291428D01*
X269263810Y-108291428D01*
X269359048Y-108767619D01*
X269692381Y-107862857D02*
X269025714Y-107862857D01*
X269216190Y-107862857D02*
X269120952Y-107815238D01*
X269073333Y-107767619D01*
X269025714Y-107672381D01*
X269025714Y-107577142D01*
X269692381Y-106719999D02*
X269692381Y-107291428D01*
X269692381Y-107005714D02*
X268692381Y-107005714D01*
X268835238Y-107100952D01*
X268930476Y-107196190D01*
X268978095Y-107291428D01*
X174212381Y-115736666D02*
X173736190Y-116070000D01*
X174212381Y-116308095D02*
X173212381Y-116308095D01*
X173212381Y-115927142D01*
X173260000Y-115831904D01*
X173307619Y-115784285D01*
X173402857Y-115736666D01*
X173545714Y-115736666D01*
X173640952Y-115784285D01*
X173688571Y-115831904D01*
X173736190Y-115927142D01*
X173736190Y-116308095D01*
X173307619Y-115355714D02*
X173260000Y-115308095D01*
X173212381Y-115212857D01*
X173212381Y-114974761D01*
X173260000Y-114879523D01*
X173307619Y-114831904D01*
X173402857Y-114784285D01*
X173498095Y-114784285D01*
X173640952Y-114831904D01*
X174212381Y-115403333D01*
X174212381Y-114784285D01*
X191603334Y-102282381D02*
X191270000Y-101806190D01*
X191031905Y-102282381D02*
X191031905Y-101282381D01*
X191412858Y-101282381D01*
X191508096Y-101330000D01*
X191555715Y-101377619D01*
X191603334Y-101472857D01*
X191603334Y-101615714D01*
X191555715Y-101710952D01*
X191508096Y-101758571D01*
X191412858Y-101806190D01*
X191031905Y-101806190D01*
X191936667Y-101282381D02*
X192555715Y-101282381D01*
X192222381Y-101663333D01*
X192365239Y-101663333D01*
X192460477Y-101710952D01*
X192508096Y-101758571D01*
X192555715Y-101853810D01*
X192555715Y-102091905D01*
X192508096Y-102187143D01*
X192460477Y-102234762D01*
X192365239Y-102282381D01*
X192079524Y-102282381D01*
X191984286Y-102234762D01*
X191936667Y-102187143D01*
X185642381Y-78906666D02*
X185166190Y-79240000D01*
X185642381Y-79478095D02*
X184642381Y-79478095D01*
X184642381Y-79097142D01*
X184690000Y-79001904D01*
X184737619Y-78954285D01*
X184832857Y-78906666D01*
X184975714Y-78906666D01*
X185070952Y-78954285D01*
X185118571Y-79001904D01*
X185166190Y-79097142D01*
X185166190Y-79478095D01*
X184975714Y-78049523D02*
X185642381Y-78049523D01*
X184594762Y-78287619D02*
X185309048Y-78525714D01*
X185309048Y-77906666D01*
X236053334Y-116252381D02*
X235720000Y-115776190D01*
X235481905Y-116252381D02*
X235481905Y-115252381D01*
X235862858Y-115252381D01*
X235958096Y-115300000D01*
X236005715Y-115347619D01*
X236053334Y-115442857D01*
X236053334Y-115585714D01*
X236005715Y-115680952D01*
X235958096Y-115728571D01*
X235862858Y-115776190D01*
X235481905Y-115776190D01*
X236910477Y-115252381D02*
X236720000Y-115252381D01*
X236624762Y-115300000D01*
X236577143Y-115347619D01*
X236481905Y-115490476D01*
X236434286Y-115680952D01*
X236434286Y-116061905D01*
X236481905Y-116157143D01*
X236529524Y-116204762D01*
X236624762Y-116252381D01*
X236815239Y-116252381D01*
X236910477Y-116204762D01*
X236958096Y-116157143D01*
X237005715Y-116061905D01*
X237005715Y-115823810D01*
X236958096Y-115728571D01*
X236910477Y-115680952D01*
X236815239Y-115633333D01*
X236624762Y-115633333D01*
X236529524Y-115680952D01*
X236481905Y-115728571D01*
X236434286Y-115823810D01*
X203422381Y-85256666D02*
X202946190Y-85590000D01*
X203422381Y-85828095D02*
X202422381Y-85828095D01*
X202422381Y-85447142D01*
X202470000Y-85351904D01*
X202517619Y-85304285D01*
X202612857Y-85256666D01*
X202755714Y-85256666D01*
X202850952Y-85304285D01*
X202898571Y-85351904D01*
X202946190Y-85447142D01*
X202946190Y-85828095D01*
X202422381Y-84923333D02*
X202422381Y-84256666D01*
X203422381Y-84685238D01*
X163242381Y-36996666D02*
X162766190Y-37330000D01*
X163242381Y-37568095D02*
X162242381Y-37568095D01*
X162242381Y-37187142D01*
X162290000Y-37091904D01*
X162337619Y-37044285D01*
X162432857Y-36996666D01*
X162575714Y-36996666D01*
X162670952Y-37044285D01*
X162718571Y-37091904D01*
X162766190Y-37187142D01*
X162766190Y-37568095D01*
X162670952Y-36425238D02*
X162623333Y-36520476D01*
X162575714Y-36568095D01*
X162480476Y-36615714D01*
X162432857Y-36615714D01*
X162337619Y-36568095D01*
X162290000Y-36520476D01*
X162242381Y-36425238D01*
X162242381Y-36234761D01*
X162290000Y-36139523D01*
X162337619Y-36091904D01*
X162432857Y-36044285D01*
X162480476Y-36044285D01*
X162575714Y-36091904D01*
X162623333Y-36139523D01*
X162670952Y-36234761D01*
X162670952Y-36425238D01*
X162718571Y-36520476D01*
X162766190Y-36568095D01*
X162861429Y-36615714D01*
X163051905Y-36615714D01*
X163147143Y-36568095D01*
X163194762Y-36520476D01*
X163242381Y-36425238D01*
X163242381Y-36234761D01*
X163194762Y-36139523D01*
X163147143Y-36091904D01*
X163051905Y-36044285D01*
X162861429Y-36044285D01*
X162766190Y-36091904D01*
X162718571Y-36139523D01*
X162670952Y-36234761D01*
X174442381Y-78906666D02*
X173966190Y-79240000D01*
X174442381Y-79478095D02*
X173442381Y-79478095D01*
X173442381Y-79097142D01*
X173490000Y-79001904D01*
X173537619Y-78954285D01*
X173632857Y-78906666D01*
X173775714Y-78906666D01*
X173870952Y-78954285D01*
X173918571Y-79001904D01*
X173966190Y-79097142D01*
X173966190Y-79478095D01*
X174442381Y-78430476D02*
X174442381Y-78240000D01*
X174394762Y-78144761D01*
X174347143Y-78097142D01*
X174204286Y-78001904D01*
X174013810Y-77954285D01*
X173632857Y-77954285D01*
X173537619Y-78001904D01*
X173490000Y-78049523D01*
X173442381Y-78144761D01*
X173442381Y-78335238D01*
X173490000Y-78430476D01*
X173537619Y-78478095D01*
X173632857Y-78525714D01*
X173870952Y-78525714D01*
X173966190Y-78478095D01*
X174013810Y-78430476D01*
X174061429Y-78335238D01*
X174061429Y-78144761D01*
X174013810Y-78049523D01*
X173966190Y-78001904D01*
X173870952Y-77954285D01*
X215257143Y-110942381D02*
X214923809Y-110466190D01*
X214685714Y-110942381D02*
X214685714Y-109942381D01*
X215066667Y-109942381D01*
X215161905Y-109990000D01*
X215209524Y-110037619D01*
X215257143Y-110132857D01*
X215257143Y-110275714D01*
X215209524Y-110370952D01*
X215161905Y-110418571D01*
X215066667Y-110466190D01*
X214685714Y-110466190D01*
X216209524Y-110942381D02*
X215638095Y-110942381D01*
X215923809Y-110942381D02*
X215923809Y-109942381D01*
X215828571Y-110085238D01*
X215733333Y-110180476D01*
X215638095Y-110228095D01*
X216828571Y-109942381D02*
X216923810Y-109942381D01*
X217019048Y-109990000D01*
X217066667Y-110037619D01*
X217114286Y-110132857D01*
X217161905Y-110323333D01*
X217161905Y-110561429D01*
X217114286Y-110751905D01*
X217066667Y-110847143D01*
X217019048Y-110894762D01*
X216923810Y-110942381D01*
X216828571Y-110942381D01*
X216733333Y-110894762D01*
X216685714Y-110847143D01*
X216638095Y-110751905D01*
X216590476Y-110561429D01*
X216590476Y-110323333D01*
X216638095Y-110132857D01*
X216685714Y-110037619D01*
X216733333Y-109990000D01*
X216828571Y-109942381D01*
X197302381Y-64142857D02*
X196826190Y-64476191D01*
X197302381Y-64714286D02*
X196302381Y-64714286D01*
X196302381Y-64333333D01*
X196350000Y-64238095D01*
X196397619Y-64190476D01*
X196492857Y-64142857D01*
X196635714Y-64142857D01*
X196730952Y-64190476D01*
X196778571Y-64238095D01*
X196826190Y-64333333D01*
X196826190Y-64714286D01*
X197302381Y-63190476D02*
X197302381Y-63761905D01*
X197302381Y-63476191D02*
X196302381Y-63476191D01*
X196445238Y-63571429D01*
X196540476Y-63666667D01*
X196588095Y-63761905D01*
X196397619Y-62809524D02*
X196350000Y-62761905D01*
X196302381Y-62666667D01*
X196302381Y-62428571D01*
X196350000Y-62333333D01*
X196397619Y-62285714D01*
X196492857Y-62238095D01*
X196588095Y-62238095D01*
X196730952Y-62285714D01*
X197302381Y-62857143D01*
X197302381Y-62238095D01*
X202382381Y-106052857D02*
X201906190Y-106386191D01*
X202382381Y-106624286D02*
X201382381Y-106624286D01*
X201382381Y-106243333D01*
X201430000Y-106148095D01*
X201477619Y-106100476D01*
X201572857Y-106052857D01*
X201715714Y-106052857D01*
X201810952Y-106100476D01*
X201858571Y-106148095D01*
X201906190Y-106243333D01*
X201906190Y-106624286D01*
X202382381Y-105100476D02*
X202382381Y-105671905D01*
X202382381Y-105386191D02*
X201382381Y-105386191D01*
X201525238Y-105481429D01*
X201620476Y-105576667D01*
X201668095Y-105671905D01*
X201382381Y-104767143D02*
X201382381Y-104148095D01*
X201763333Y-104481429D01*
X201763333Y-104338571D01*
X201810952Y-104243333D01*
X201858571Y-104195714D01*
X201953810Y-104148095D01*
X202191905Y-104148095D01*
X202287143Y-104195714D01*
X202334762Y-104243333D01*
X202382381Y-104338571D01*
X202382381Y-104624286D01*
X202334762Y-104719524D01*
X202287143Y-104767143D01*
X202382381Y-60332857D02*
X201906190Y-60666191D01*
X202382381Y-60904286D02*
X201382381Y-60904286D01*
X201382381Y-60523333D01*
X201430000Y-60428095D01*
X201477619Y-60380476D01*
X201572857Y-60332857D01*
X201715714Y-60332857D01*
X201810952Y-60380476D01*
X201858571Y-60428095D01*
X201906190Y-60523333D01*
X201906190Y-60904286D01*
X202382381Y-59380476D02*
X202382381Y-59951905D01*
X202382381Y-59666191D02*
X201382381Y-59666191D01*
X201525238Y-59761429D01*
X201620476Y-59856667D01*
X201668095Y-59951905D01*
X201715714Y-58523333D02*
X202382381Y-58523333D01*
X201334762Y-58761429D02*
X202049048Y-58999524D01*
X202049048Y-58380476D01*
X212717143Y-58872381D02*
X212383809Y-58396190D01*
X212145714Y-58872381D02*
X212145714Y-57872381D01*
X212526667Y-57872381D01*
X212621905Y-57920000D01*
X212669524Y-57967619D01*
X212717143Y-58062857D01*
X212717143Y-58205714D01*
X212669524Y-58300952D01*
X212621905Y-58348571D01*
X212526667Y-58396190D01*
X212145714Y-58396190D01*
X213669524Y-58872381D02*
X213098095Y-58872381D01*
X213383809Y-58872381D02*
X213383809Y-57872381D01*
X213288571Y-58015238D01*
X213193333Y-58110476D01*
X213098095Y-58158095D01*
X214574286Y-57872381D02*
X214098095Y-57872381D01*
X214050476Y-58348571D01*
X214098095Y-58300952D01*
X214193333Y-58253333D01*
X214431429Y-58253333D01*
X214526667Y-58300952D01*
X214574286Y-58348571D01*
X214621905Y-58443810D01*
X214621905Y-58681905D01*
X214574286Y-58777143D01*
X214526667Y-58824762D01*
X214431429Y-58872381D01*
X214193333Y-58872381D01*
X214098095Y-58824762D01*
X214050476Y-58777143D01*
X230497143Y-104592381D02*
X230163809Y-104116190D01*
X229925714Y-104592381D02*
X229925714Y-103592381D01*
X230306667Y-103592381D01*
X230401905Y-103640000D01*
X230449524Y-103687619D01*
X230497143Y-103782857D01*
X230497143Y-103925714D01*
X230449524Y-104020952D01*
X230401905Y-104068571D01*
X230306667Y-104116190D01*
X229925714Y-104116190D01*
X231449524Y-104592381D02*
X230878095Y-104592381D01*
X231163809Y-104592381D02*
X231163809Y-103592381D01*
X231068571Y-103735238D01*
X230973333Y-103830476D01*
X230878095Y-103878095D01*
X232306667Y-103592381D02*
X232116190Y-103592381D01*
X232020952Y-103640000D01*
X231973333Y-103687619D01*
X231878095Y-103830476D01*
X231830476Y-104020952D01*
X231830476Y-104401905D01*
X231878095Y-104497143D01*
X231925714Y-104544762D01*
X232020952Y-104592381D01*
X232211429Y-104592381D01*
X232306667Y-104544762D01*
X232354286Y-104497143D01*
X232401905Y-104401905D01*
X232401905Y-104163810D01*
X232354286Y-104068571D01*
X232306667Y-104020952D01*
X232211429Y-103973333D01*
X232020952Y-103973333D01*
X231925714Y-104020952D01*
X231878095Y-104068571D01*
X231830476Y-104163810D01*
X212717143Y-53792381D02*
X212383809Y-53316190D01*
X212145714Y-53792381D02*
X212145714Y-52792381D01*
X212526667Y-52792381D01*
X212621905Y-52840000D01*
X212669524Y-52887619D01*
X212717143Y-52982857D01*
X212717143Y-53125714D01*
X212669524Y-53220952D01*
X212621905Y-53268571D01*
X212526667Y-53316190D01*
X212145714Y-53316190D01*
X213669524Y-53792381D02*
X213098095Y-53792381D01*
X213383809Y-53792381D02*
X213383809Y-52792381D01*
X213288571Y-52935238D01*
X213193333Y-53030476D01*
X213098095Y-53078095D01*
X214002857Y-52792381D02*
X214669524Y-52792381D01*
X214240952Y-53792381D01*
X235577143Y-111172381D02*
X235243809Y-110696190D01*
X235005714Y-111172381D02*
X235005714Y-110172381D01*
X235386667Y-110172381D01*
X235481905Y-110220000D01*
X235529524Y-110267619D01*
X235577143Y-110362857D01*
X235577143Y-110505714D01*
X235529524Y-110600952D01*
X235481905Y-110648571D01*
X235386667Y-110696190D01*
X235005714Y-110696190D01*
X236529524Y-111172381D02*
X235958095Y-111172381D01*
X236243809Y-111172381D02*
X236243809Y-110172381D01*
X236148571Y-110315238D01*
X236053333Y-110410476D01*
X235958095Y-110458095D01*
X237005714Y-111172381D02*
X237196190Y-111172381D01*
X237291429Y-111124762D01*
X237339048Y-111077143D01*
X237434286Y-110934286D01*
X237481905Y-110743810D01*
X237481905Y-110362857D01*
X237434286Y-110267619D01*
X237386667Y-110220000D01*
X237291429Y-110172381D01*
X237100952Y-110172381D01*
X237005714Y-110220000D01*
X236958095Y-110267619D01*
X236910476Y-110362857D01*
X236910476Y-110600952D01*
X236958095Y-110696190D01*
X237005714Y-110743810D01*
X237100952Y-110791429D01*
X237291429Y-110791429D01*
X237386667Y-110743810D01*
X237434286Y-110696190D01*
X237481905Y-110600952D01*
X230497143Y-50212381D02*
X230163809Y-49736190D01*
X229925714Y-50212381D02*
X229925714Y-49212381D01*
X230306667Y-49212381D01*
X230401905Y-49260000D01*
X230449524Y-49307619D01*
X230497143Y-49402857D01*
X230497143Y-49545714D01*
X230449524Y-49640952D01*
X230401905Y-49688571D01*
X230306667Y-49736190D01*
X229925714Y-49736190D01*
X230878095Y-49307619D02*
X230925714Y-49260000D01*
X231020952Y-49212381D01*
X231259048Y-49212381D01*
X231354286Y-49260000D01*
X231401905Y-49307619D01*
X231449524Y-49402857D01*
X231449524Y-49498095D01*
X231401905Y-49640952D01*
X230830476Y-50212381D01*
X231449524Y-50212381D01*
X232068571Y-49212381D02*
X232163810Y-49212381D01*
X232259048Y-49260000D01*
X232306667Y-49307619D01*
X232354286Y-49402857D01*
X232401905Y-49593333D01*
X232401905Y-49831429D01*
X232354286Y-50021905D01*
X232306667Y-50117143D01*
X232259048Y-50164762D01*
X232163810Y-50212381D01*
X232068571Y-50212381D01*
X231973333Y-50164762D01*
X231925714Y-50117143D01*
X231878095Y-50021905D01*
X231830476Y-49831429D01*
X231830476Y-49593333D01*
X231878095Y-49402857D01*
X231925714Y-49307619D01*
X231973333Y-49260000D01*
X232068571Y-49212381D01*
X215082381Y-74302857D02*
X214606190Y-74636191D01*
X215082381Y-74874286D02*
X214082381Y-74874286D01*
X214082381Y-74493333D01*
X214130000Y-74398095D01*
X214177619Y-74350476D01*
X214272857Y-74302857D01*
X214415714Y-74302857D01*
X214510952Y-74350476D01*
X214558571Y-74398095D01*
X214606190Y-74493333D01*
X214606190Y-74874286D01*
X214177619Y-73921905D02*
X214130000Y-73874286D01*
X214082381Y-73779048D01*
X214082381Y-73540952D01*
X214130000Y-73445714D01*
X214177619Y-73398095D01*
X214272857Y-73350476D01*
X214368095Y-73350476D01*
X214510952Y-73398095D01*
X215082381Y-73969524D01*
X215082381Y-73350476D01*
X215082381Y-72398095D02*
X215082381Y-72969524D01*
X215082381Y-72683810D02*
X214082381Y-72683810D01*
X214225238Y-72779048D01*
X214320476Y-72874286D01*
X214368095Y-72969524D01*
X257167143Y-42592381D02*
X256833809Y-42116190D01*
X256595714Y-42592381D02*
X256595714Y-41592381D01*
X256976667Y-41592381D01*
X257071905Y-41640000D01*
X257119524Y-41687619D01*
X257167143Y-41782857D01*
X257167143Y-41925714D01*
X257119524Y-42020952D01*
X257071905Y-42068571D01*
X256976667Y-42116190D01*
X256595714Y-42116190D01*
X257548095Y-41687619D02*
X257595714Y-41640000D01*
X257690952Y-41592381D01*
X257929048Y-41592381D01*
X258024286Y-41640000D01*
X258071905Y-41687619D01*
X258119524Y-41782857D01*
X258119524Y-41878095D01*
X258071905Y-42020952D01*
X257500476Y-42592381D01*
X258119524Y-42592381D01*
X258500476Y-41687619D02*
X258548095Y-41640000D01*
X258643333Y-41592381D01*
X258881429Y-41592381D01*
X258976667Y-41640000D01*
X259024286Y-41687619D01*
X259071905Y-41782857D01*
X259071905Y-41878095D01*
X259024286Y-42020952D01*
X258452857Y-42592381D01*
X259071905Y-42592381D01*
X230497143Y-99512381D02*
X230163809Y-99036190D01*
X229925714Y-99512381D02*
X229925714Y-98512381D01*
X230306667Y-98512381D01*
X230401905Y-98560000D01*
X230449524Y-98607619D01*
X230497143Y-98702857D01*
X230497143Y-98845714D01*
X230449524Y-98940952D01*
X230401905Y-98988571D01*
X230306667Y-99036190D01*
X229925714Y-99036190D01*
X230878095Y-98607619D02*
X230925714Y-98560000D01*
X231020952Y-98512381D01*
X231259048Y-98512381D01*
X231354286Y-98560000D01*
X231401905Y-98607619D01*
X231449524Y-98702857D01*
X231449524Y-98798095D01*
X231401905Y-98940952D01*
X230830476Y-99512381D01*
X231449524Y-99512381D01*
X231782857Y-98512381D02*
X232401905Y-98512381D01*
X232068571Y-98893333D01*
X232211429Y-98893333D01*
X232306667Y-98940952D01*
X232354286Y-98988571D01*
X232401905Y-99083810D01*
X232401905Y-99321905D01*
X232354286Y-99417143D01*
X232306667Y-99464762D01*
X232211429Y-99512381D01*
X231925714Y-99512381D01*
X231830476Y-99464762D01*
X231782857Y-99417143D01*
X246602381Y-98432857D02*
X246126190Y-98766191D01*
X246602381Y-99004286D02*
X245602381Y-99004286D01*
X245602381Y-98623333D01*
X245650000Y-98528095D01*
X245697619Y-98480476D01*
X245792857Y-98432857D01*
X245935714Y-98432857D01*
X246030952Y-98480476D01*
X246078571Y-98528095D01*
X246126190Y-98623333D01*
X246126190Y-99004286D01*
X245697619Y-98051905D02*
X245650000Y-98004286D01*
X245602381Y-97909048D01*
X245602381Y-97670952D01*
X245650000Y-97575714D01*
X245697619Y-97528095D01*
X245792857Y-97480476D01*
X245888095Y-97480476D01*
X246030952Y-97528095D01*
X246602381Y-98099524D01*
X246602381Y-97480476D01*
X245935714Y-96623333D02*
X246602381Y-96623333D01*
X245554762Y-96861429D02*
X246269048Y-97099524D01*
X246269048Y-96480476D01*
X257167143Y-52752381D02*
X256833809Y-52276190D01*
X256595714Y-52752381D02*
X256595714Y-51752381D01*
X256976667Y-51752381D01*
X257071905Y-51800000D01*
X257119524Y-51847619D01*
X257167143Y-51942857D01*
X257167143Y-52085714D01*
X257119524Y-52180952D01*
X257071905Y-52228571D01*
X256976667Y-52276190D01*
X256595714Y-52276190D01*
X257548095Y-51847619D02*
X257595714Y-51800000D01*
X257690952Y-51752381D01*
X257929048Y-51752381D01*
X258024286Y-51800000D01*
X258071905Y-51847619D01*
X258119524Y-51942857D01*
X258119524Y-52038095D01*
X258071905Y-52180952D01*
X257500476Y-52752381D01*
X258119524Y-52752381D01*
X259024286Y-51752381D02*
X258548095Y-51752381D01*
X258500476Y-52228571D01*
X258548095Y-52180952D01*
X258643333Y-52133333D01*
X258881429Y-52133333D01*
X258976667Y-52180952D01*
X259024286Y-52228571D01*
X259071905Y-52323810D01*
X259071905Y-52561905D01*
X259024286Y-52657143D01*
X258976667Y-52704762D01*
X258881429Y-52752381D01*
X258643333Y-52752381D01*
X258548095Y-52704762D01*
X258500476Y-52657143D01*
X251682381Y-98432857D02*
X251206190Y-98766191D01*
X251682381Y-99004286D02*
X250682381Y-99004286D01*
X250682381Y-98623333D01*
X250730000Y-98528095D01*
X250777619Y-98480476D01*
X250872857Y-98432857D01*
X251015714Y-98432857D01*
X251110952Y-98480476D01*
X251158571Y-98528095D01*
X251206190Y-98623333D01*
X251206190Y-99004286D01*
X250777619Y-98051905D02*
X250730000Y-98004286D01*
X250682381Y-97909048D01*
X250682381Y-97670952D01*
X250730000Y-97575714D01*
X250777619Y-97528095D01*
X250872857Y-97480476D01*
X250968095Y-97480476D01*
X251110952Y-97528095D01*
X251682381Y-98099524D01*
X251682381Y-97480476D01*
X250682381Y-96623333D02*
X250682381Y-96813810D01*
X250730000Y-96909048D01*
X250777619Y-96956667D01*
X250920476Y-97051905D01*
X251110952Y-97099524D01*
X251491905Y-97099524D01*
X251587143Y-97051905D01*
X251634762Y-97004286D01*
X251682381Y-96909048D01*
X251682381Y-96718571D01*
X251634762Y-96623333D01*
X251587143Y-96575714D01*
X251491905Y-96528095D01*
X251253810Y-96528095D01*
X251158571Y-96575714D01*
X251110952Y-96623333D01*
X251063333Y-96718571D01*
X251063333Y-96909048D01*
X251110952Y-97004286D01*
X251158571Y-97051905D01*
X251253810Y-97099524D01*
X257167143Y-47672381D02*
X256833809Y-47196190D01*
X256595714Y-47672381D02*
X256595714Y-46672381D01*
X256976667Y-46672381D01*
X257071905Y-46720000D01*
X257119524Y-46767619D01*
X257167143Y-46862857D01*
X257167143Y-47005714D01*
X257119524Y-47100952D01*
X257071905Y-47148571D01*
X256976667Y-47196190D01*
X256595714Y-47196190D01*
X257548095Y-46767619D02*
X257595714Y-46720000D01*
X257690952Y-46672381D01*
X257929048Y-46672381D01*
X258024286Y-46720000D01*
X258071905Y-46767619D01*
X258119524Y-46862857D01*
X258119524Y-46958095D01*
X258071905Y-47100952D01*
X257500476Y-47672381D01*
X258119524Y-47672381D01*
X258452857Y-46672381D02*
X259119524Y-46672381D01*
X258690952Y-47672381D01*
X256762381Y-98432857D02*
X256286190Y-98766191D01*
X256762381Y-99004286D02*
X255762381Y-99004286D01*
X255762381Y-98623333D01*
X255810000Y-98528095D01*
X255857619Y-98480476D01*
X255952857Y-98432857D01*
X256095714Y-98432857D01*
X256190952Y-98480476D01*
X256238571Y-98528095D01*
X256286190Y-98623333D01*
X256286190Y-99004286D01*
X255857619Y-98051905D02*
X255810000Y-98004286D01*
X255762381Y-97909048D01*
X255762381Y-97670952D01*
X255810000Y-97575714D01*
X255857619Y-97528095D01*
X255952857Y-97480476D01*
X256048095Y-97480476D01*
X256190952Y-97528095D01*
X256762381Y-98099524D01*
X256762381Y-97480476D01*
X256190952Y-96909048D02*
X256143333Y-97004286D01*
X256095714Y-97051905D01*
X256000476Y-97099524D01*
X255952857Y-97099524D01*
X255857619Y-97051905D01*
X255810000Y-97004286D01*
X255762381Y-96909048D01*
X255762381Y-96718571D01*
X255810000Y-96623333D01*
X255857619Y-96575714D01*
X255952857Y-96528095D01*
X256000476Y-96528095D01*
X256095714Y-96575714D01*
X256143333Y-96623333D01*
X256190952Y-96718571D01*
X256190952Y-96909048D01*
X256238571Y-97004286D01*
X256286190Y-97051905D01*
X256381429Y-97099524D01*
X256571905Y-97099524D01*
X256667143Y-97051905D01*
X256714762Y-97004286D01*
X256762381Y-96909048D01*
X256762381Y-96718571D01*
X256714762Y-96623333D01*
X256667143Y-96575714D01*
X256571905Y-96528095D01*
X256381429Y-96528095D01*
X256286190Y-96575714D01*
X256238571Y-96623333D01*
X256190952Y-96718571D01*
X231767143Y-59102381D02*
X231433809Y-58626190D01*
X231195714Y-59102381D02*
X231195714Y-58102381D01*
X231576667Y-58102381D01*
X231671905Y-58150000D01*
X231719524Y-58197619D01*
X231767143Y-58292857D01*
X231767143Y-58435714D01*
X231719524Y-58530952D01*
X231671905Y-58578571D01*
X231576667Y-58626190D01*
X231195714Y-58626190D01*
X232148095Y-58197619D02*
X232195714Y-58150000D01*
X232290952Y-58102381D01*
X232529048Y-58102381D01*
X232624286Y-58150000D01*
X232671905Y-58197619D01*
X232719524Y-58292857D01*
X232719524Y-58388095D01*
X232671905Y-58530952D01*
X232100476Y-59102381D01*
X232719524Y-59102381D01*
X233195714Y-59102381D02*
X233386190Y-59102381D01*
X233481429Y-59054762D01*
X233529048Y-59007143D01*
X233624286Y-58864286D01*
X233671905Y-58673810D01*
X233671905Y-58292857D01*
X233624286Y-58197619D01*
X233576667Y-58150000D01*
X233481429Y-58102381D01*
X233290952Y-58102381D01*
X233195714Y-58150000D01*
X233148095Y-58197619D01*
X233100476Y-58292857D01*
X233100476Y-58530952D01*
X233148095Y-58626190D01*
X233195714Y-58673810D01*
X233290952Y-58721429D01*
X233481429Y-58721429D01*
X233576667Y-58673810D01*
X233624286Y-58626190D01*
X233671905Y-58530952D01*
X178450476Y-90892381D02*
X178783809Y-91892381D01*
X179117143Y-90892381D01*
X179402857Y-90987619D02*
X179450476Y-90940000D01*
X179545714Y-90892381D01*
X179783810Y-90892381D01*
X179879048Y-90940000D01*
X179926667Y-90987619D01*
X179974286Y-91082857D01*
X179974286Y-91178095D01*
X179926667Y-91320952D01*
X179355238Y-91892381D01*
X179974286Y-91892381D01*
X204930476Y-83272381D02*
X205263809Y-84272381D01*
X205597143Y-83272381D01*
X206359048Y-83605714D02*
X206359048Y-84272381D01*
X206120952Y-83224762D02*
X205882857Y-83939048D01*
X206501905Y-83939048D01*
X182332381Y-46529524D02*
X183332381Y-46196191D01*
X182332381Y-45862857D01*
X182332381Y-45053333D02*
X182332381Y-45529524D01*
X182808571Y-45577143D01*
X182760952Y-45529524D01*
X182713333Y-45434286D01*
X182713333Y-45196190D01*
X182760952Y-45100952D01*
X182808571Y-45053333D01*
X182903810Y-45005714D01*
X183141905Y-45005714D01*
X183237143Y-45053333D01*
X183284762Y-45100952D01*
X183332381Y-45196190D01*
X183332381Y-45434286D01*
X183284762Y-45529524D01*
X183237143Y-45577143D01*
X179530476Y-26122381D02*
X179863809Y-27122381D01*
X180197143Y-26122381D01*
X180959048Y-26122381D02*
X180768571Y-26122381D01*
X180673333Y-26170000D01*
X180625714Y-26217619D01*
X180530476Y-26360476D01*
X180482857Y-26550952D01*
X180482857Y-26931905D01*
X180530476Y-27027143D01*
X180578095Y-27074762D01*
X180673333Y-27122381D01*
X180863810Y-27122381D01*
X180959048Y-27074762D01*
X181006667Y-27027143D01*
X181054286Y-26931905D01*
X181054286Y-26693810D01*
X181006667Y-26598571D01*
X180959048Y-26550952D01*
X180863810Y-26503333D01*
X180673333Y-26503333D01*
X180578095Y-26550952D01*
X180530476Y-26598571D01*
X180482857Y-26693810D01*
X222972381Y-38909524D02*
X223972381Y-38576191D01*
X222972381Y-38242857D01*
X222972381Y-38004762D02*
X222972381Y-37338095D01*
X223972381Y-37766667D01*
X204930476Y-26207381D02*
X205263809Y-27207381D01*
X205597143Y-26207381D01*
X206073333Y-26635952D02*
X205978095Y-26588333D01*
X205930476Y-26540714D01*
X205882857Y-26445476D01*
X205882857Y-26397857D01*
X205930476Y-26302619D01*
X205978095Y-26255000D01*
X206073333Y-26207381D01*
X206263810Y-26207381D01*
X206359048Y-26255000D01*
X206406667Y-26302619D01*
X206454286Y-26397857D01*
X206454286Y-26445476D01*
X206406667Y-26540714D01*
X206359048Y-26588333D01*
X206263810Y-26635952D01*
X206073333Y-26635952D01*
X205978095Y-26683571D01*
X205930476Y-26731190D01*
X205882857Y-26826429D01*
X205882857Y-27016905D01*
X205930476Y-27112143D01*
X205978095Y-27159762D01*
X206073333Y-27207381D01*
X206263810Y-27207381D01*
X206359048Y-27159762D01*
X206406667Y-27112143D01*
X206454286Y-27016905D01*
X206454286Y-26826429D01*
X206406667Y-26731190D01*
X206359048Y-26683571D01*
X206263810Y-26635952D01*
X204930476Y-35012381D02*
X205263809Y-36012381D01*
X205597143Y-35012381D01*
X205978095Y-36012381D02*
X206168571Y-36012381D01*
X206263810Y-35964762D01*
X206311429Y-35917143D01*
X206406667Y-35774286D01*
X206454286Y-35583810D01*
X206454286Y-35202857D01*
X206406667Y-35107619D01*
X206359048Y-35060000D01*
X206263810Y-35012381D01*
X206073333Y-35012381D01*
X205978095Y-35060000D01*
X205930476Y-35107619D01*
X205882857Y-35202857D01*
X205882857Y-35440952D01*
X205930476Y-35536190D01*
X205978095Y-35583810D01*
X206073333Y-35631429D01*
X206263810Y-35631429D01*
X206359048Y-35583810D01*
X206406667Y-35536190D01*
X206454286Y-35440952D01*
X204454286Y-42632381D02*
X204787619Y-43632381D01*
X205120953Y-42632381D01*
X205978096Y-43632381D02*
X205406667Y-43632381D01*
X205692381Y-43632381D02*
X205692381Y-42632381D01*
X205597143Y-42775238D01*
X205501905Y-42870476D01*
X205406667Y-42918095D01*
X206597143Y-42632381D02*
X206692382Y-42632381D01*
X206787620Y-42680000D01*
X206835239Y-42727619D01*
X206882858Y-42822857D01*
X206930477Y-43013333D01*
X206930477Y-43251429D01*
X206882858Y-43441905D01*
X206835239Y-43537143D01*
X206787620Y-43584762D01*
X206692382Y-43632381D01*
X206597143Y-43632381D01*
X206501905Y-43584762D01*
X206454286Y-43537143D01*
X206406667Y-43441905D01*
X206359048Y-43251429D01*
X206359048Y-43013333D01*
X206406667Y-42822857D01*
X206454286Y-42727619D01*
X206501905Y-42680000D01*
X206597143Y-42632381D01*
X227314286Y-37552381D02*
X227647619Y-38552381D01*
X227980953Y-37552381D01*
X228838096Y-38552381D02*
X228266667Y-38552381D01*
X228552381Y-38552381D02*
X228552381Y-37552381D01*
X228457143Y-37695238D01*
X228361905Y-37790476D01*
X228266667Y-37838095D01*
X229790477Y-38552381D02*
X229219048Y-38552381D01*
X229504762Y-38552381D02*
X229504762Y-37552381D01*
X229409524Y-37695238D01*
X229314286Y-37790476D01*
X229219048Y-37838095D01*
X216622381Y-90185714D02*
X217622381Y-89852381D01*
X216622381Y-89519047D01*
X217622381Y-88661904D02*
X217622381Y-89233333D01*
X217622381Y-88947619D02*
X216622381Y-88947619D01*
X216765238Y-89042857D01*
X216860476Y-89138095D01*
X216908095Y-89233333D01*
X216622381Y-88328571D02*
X216622381Y-87709523D01*
X217003333Y-88042857D01*
X217003333Y-87899999D01*
X217050952Y-87804761D01*
X217098571Y-87757142D01*
X217193810Y-87709523D01*
X217431905Y-87709523D01*
X217527143Y-87757142D01*
X217574762Y-87804761D01*
X217622381Y-87899999D01*
X217622381Y-88185714D01*
X217574762Y-88280952D01*
X217527143Y-88328571D01*
X243824286Y-59142381D02*
X244157619Y-60142381D01*
X244490953Y-59142381D01*
X245348096Y-60142381D02*
X244776667Y-60142381D01*
X245062381Y-60142381D02*
X245062381Y-59142381D01*
X244967143Y-59285238D01*
X244871905Y-59380476D01*
X244776667Y-59428095D01*
X245681429Y-59142381D02*
X246348096Y-59142381D01*
X245919524Y-60142381D01*
X255992381Y-85105714D02*
X256992381Y-84772381D01*
X255992381Y-84439047D01*
X256992381Y-83581904D02*
X256992381Y-84153333D01*
X256992381Y-83867619D02*
X255992381Y-83867619D01*
X256135238Y-83962857D01*
X256230476Y-84058095D01*
X256278095Y-84153333D01*
X256420952Y-83010476D02*
X256373333Y-83105714D01*
X256325714Y-83153333D01*
X256230476Y-83200952D01*
X256182857Y-83200952D01*
X256087619Y-83153333D01*
X256040000Y-83105714D01*
X255992381Y-83010476D01*
X255992381Y-82819999D01*
X256040000Y-82724761D01*
X256087619Y-82677142D01*
X256182857Y-82629523D01*
X256230476Y-82629523D01*
X256325714Y-82677142D01*
X256373333Y-82724761D01*
X256420952Y-82819999D01*
X256420952Y-83010476D01*
X256468571Y-83105714D01*
X256516190Y-83153333D01*
X256611429Y-83200952D01*
X256801905Y-83200952D01*
X256897143Y-83153333D01*
X256944762Y-83105714D01*
X256992381Y-83010476D01*
X256992381Y-82819999D01*
X256944762Y-82724761D01*
X256897143Y-82677142D01*
X256801905Y-82629523D01*
X256611429Y-82629523D01*
X256516190Y-82677142D01*
X256468571Y-82724761D01*
X256420952Y-82819999D01*
X229854286Y-90977381D02*
X230187619Y-91977381D01*
X230520953Y-90977381D01*
X231378096Y-91977381D02*
X230806667Y-91977381D01*
X231092381Y-91977381D02*
X231092381Y-90977381D01*
X230997143Y-91120238D01*
X230901905Y-91215476D01*
X230806667Y-91263095D01*
X231854286Y-91977381D02*
X232044762Y-91977381D01*
X232140001Y-91929762D01*
X232187620Y-91882143D01*
X232282858Y-91739286D01*
X232330477Y-91548810D01*
X232330477Y-91167857D01*
X232282858Y-91072619D01*
X232235239Y-91025000D01*
X232140001Y-90977381D01*
X231949524Y-90977381D01*
X231854286Y-91025000D01*
X231806667Y-91072619D01*
X231759048Y-91167857D01*
X231759048Y-91405952D01*
X231806667Y-91501190D01*
X231854286Y-91548810D01*
X231949524Y-91596429D01*
X232140001Y-91596429D01*
X232235239Y-91548810D01*
X232282858Y-91501190D01*
X232330477Y-91405952D01*
X169592381Y-96686666D02*
X169116190Y-97020000D01*
X169592381Y-97258095D02*
X168592381Y-97258095D01*
X168592381Y-96877142D01*
X168640000Y-96781904D01*
X168687619Y-96734285D01*
X168782857Y-96686666D01*
X168925714Y-96686666D01*
X169020952Y-96734285D01*
X169068571Y-96781904D01*
X169116190Y-96877142D01*
X169116190Y-97258095D01*
X169592381Y-95734285D02*
X169592381Y-96305714D01*
X169592381Y-96020000D02*
X168592381Y-96020000D01*
X168735238Y-96115238D01*
X168830476Y-96210476D01*
X168878095Y-96305714D01*
D14*
X192961971Y-51268404D02*
X192627855Y-50791095D01*
X192389200Y-51268404D02*
X192389200Y-50266054D01*
X192771047Y-50266054D01*
X192866509Y-50313785D01*
X192914240Y-50361516D01*
X192961971Y-50456978D01*
X192961971Y-50600171D01*
X192914240Y-50695633D01*
X192866509Y-50743364D01*
X192771047Y-50791095D01*
X192389200Y-50791095D01*
X193916590Y-51268404D02*
X193343819Y-51268404D01*
X193630205Y-51268404D02*
X193630205Y-50266054D01*
X193534743Y-50409247D01*
X193439281Y-50504709D01*
X193343819Y-50552440D01*
X194489362Y-50695633D02*
X194393900Y-50647902D01*
X194346169Y-50600171D01*
X194298438Y-50504709D01*
X194298438Y-50456978D01*
X194346169Y-50361516D01*
X194393900Y-50313785D01*
X194489362Y-50266054D01*
X194680285Y-50266054D01*
X194775747Y-50313785D01*
X194823478Y-50361516D01*
X194871209Y-50456978D01*
X194871209Y-50504709D01*
X194823478Y-50600171D01*
X194775747Y-50647902D01*
X194680285Y-50695633D01*
X194489362Y-50695633D01*
X194393900Y-50743364D01*
X194346169Y-50791095D01*
X194298438Y-50886556D01*
X194298438Y-51077480D01*
X194346169Y-51172942D01*
X194393900Y-51220673D01*
X194489362Y-51268404D01*
X194680285Y-51268404D01*
X194775747Y-51220673D01*
X194823478Y-51172942D01*
X194871209Y-51077480D01*
X194871209Y-50886556D01*
X194823478Y-50791095D01*
X194775747Y-50743364D01*
X194680285Y-50695633D01*
X192842553Y-37867531D02*
X192842553Y-38536044D01*
X192603799Y-37485523D02*
X192365044Y-38201787D01*
X192985806Y-38201787D01*
X193272312Y-37533274D02*
X193940825Y-37533274D01*
X193511067Y-38536044D01*
X194513837Y-37533274D02*
X194609338Y-37533274D01*
X194704840Y-37581025D01*
X194752591Y-37628776D01*
X194800342Y-37724278D01*
X194848093Y-37915282D01*
X194848093Y-38154036D01*
X194800342Y-38345040D01*
X194752591Y-38440542D01*
X194704840Y-38488293D01*
X194609338Y-38536044D01*
X194513837Y-38536044D01*
X194418335Y-38488293D01*
X194370584Y-38440542D01*
X194322833Y-38345040D01*
X194275082Y-38154036D01*
X194275082Y-37915282D01*
X194322833Y-37724278D01*
X194370584Y-37628776D01*
X194418335Y-37581025D01*
X194513837Y-37533274D01*
X212558404Y-117710719D02*
X212081095Y-118044835D01*
X212558404Y-118283490D02*
X211556054Y-118283490D01*
X211556054Y-117901643D01*
X211603785Y-117806181D01*
X211651516Y-117758450D01*
X211746978Y-117710719D01*
X211890171Y-117710719D01*
X211985633Y-117758450D01*
X212033364Y-117806181D01*
X212081095Y-117901643D01*
X212081095Y-118283490D01*
X211556054Y-116803831D02*
X211556054Y-117281140D01*
X212033364Y-117328871D01*
X211985633Y-117281140D01*
X211937902Y-117185678D01*
X211937902Y-116947024D01*
X211985633Y-116851562D01*
X212033364Y-116803831D01*
X212128825Y-116756100D01*
X212367480Y-116756100D01*
X212462942Y-116803831D01*
X212510673Y-116851562D01*
X212558404Y-116947024D01*
X212558404Y-117185678D01*
X212510673Y-117281140D01*
X212462942Y-117328871D01*
X199826044Y-118713330D02*
X199826044Y-119286341D01*
X199826044Y-118999835D02*
X198823274Y-118999835D01*
X198966527Y-119095337D01*
X199062029Y-119190839D01*
X199109780Y-119286341D01*
X198823274Y-118092567D02*
X198823274Y-117997066D01*
X198871025Y-117901564D01*
X198918776Y-117853813D01*
X199014278Y-117806062D01*
X199205282Y-117758311D01*
X199444036Y-117758311D01*
X199635040Y-117806062D01*
X199730542Y-117853813D01*
X199778293Y-117901564D01*
X199826044Y-117997066D01*
X199826044Y-118092567D01*
X199778293Y-118188069D01*
X199730542Y-118235820D01*
X199635040Y-118283571D01*
X199444036Y-118331322D01*
X199205282Y-118331322D01*
X199014278Y-118283571D01*
X198918776Y-118235820D01*
X198871025Y-118188069D01*
X198823274Y-118092567D01*
X198823274Y-117137548D02*
X198823274Y-117042047D01*
X198871025Y-116946545D01*
X198918776Y-116898794D01*
X199014278Y-116851043D01*
X199205282Y-116803292D01*
X199444036Y-116803292D01*
X199635040Y-116851043D01*
X199730542Y-116898794D01*
X199778293Y-116946545D01*
X199826044Y-117042047D01*
X199826044Y-117137548D01*
X199778293Y-117233050D01*
X199730542Y-117280801D01*
X199635040Y-117328552D01*
X199444036Y-117376303D01*
X199205282Y-117376303D01*
X199014278Y-117328552D01*
X198918776Y-117280801D01*
X198871025Y-117233050D01*
X198823274Y-117137548D01*
X199826044Y-116373533D02*
X198823274Y-116373533D01*
X199826044Y-115800522D02*
X199253033Y-116230280D01*
X198823274Y-115800522D02*
X199396285Y-116373533D01*
M02*
