M48
;DRILL file {KiCad 4.0.7} date 06/11/18 00:00:28
;FORMAT={-:-/ absolute / metric / decimal}
FMAT,2
METRIC,TZ
T1C0.600
T2C0.760
T3C0.800
T4C1.000
T5C1.200
T6C1.320
T7C3.200
T8C6.100
%
G90
G05
M71
T1
X205.82Y-69.85
X208.32Y-67.35
X210.82Y-69.85
X228.6Y-41.99
X228.6Y-46.99
X231.1Y-44.49
X236.22Y-82.63
X236.22Y-87.63
X238.72Y-85.13
X255.31Y-62.23
X257.81Y-64.73
X260.31Y-62.23
T2
X191.77Y-44.45
X194.31Y-41.91
X194.31Y-46.99
X203.2Y-116.84
X205.74Y-119.38
X208.28Y-116.84
T3
X165.1Y-29.21
X165.1Y-44.45
X171.45Y-88.9
X171.45Y-104.14
X171.45Y-107.95
X171.45Y-123.19
X173.99Y-39.37
X173.99Y-43.37
X175.99Y-41.37
X176.53Y-71.12
X176.53Y-86.36
X177.8Y-97.79
X179.8Y-99.79
X181.8Y-97.79
X182.88Y-71.12
X182.88Y-86.36
X184.15Y-104.14
X189.23Y-55.88
X189.23Y-71.12
X191.04Y-95.25
X193.04Y-93.25
X193.04Y-97.25
X194.31Y-55.88
X194.31Y-71.12
X199.39Y-53.34
X199.39Y-68.58
X199.39Y-104.14
X200.66Y-77.47
X200.66Y-92.71
X204.47Y-97.79
X204.47Y-113.03
X205.74Y-55.88
X205.74Y-60.96
X208.28Y-88.9
X208.28Y-90.9
X208.28Y-92.9
X208.28Y-113.03
X217.17Y-66.04
X217.17Y-81.28
X220.98Y-55.88
X220.98Y-60.96
X223.52Y-52.07
X223.52Y-83.82
X223.52Y-85.82
X223.52Y-87.82
X223.52Y-101.6
X223.52Y-106.68
X223.52Y-113.03
X224.79Y-60.96
X228.6Y-113.03
X228.6Y-118.11
X238.76Y-52.07
X238.76Y-101.6
X238.76Y-106.68
X240.03Y-60.96
X241.84Y-41.91
X241.84Y-45.91
X243.84Y-43.91
X243.84Y-90.17
X243.84Y-105.41
X243.84Y-113.03
X243.84Y-118.11
X248.92Y-90.17
X248.92Y-105.41
X250.19Y-44.45
X250.19Y-49.53
X250.19Y-54.61
X254.Y-90.17
X254.Y-105.41
X265.43Y-44.45
X265.43Y-49.53
X265.43Y-54.61
T4
X166.45Y-64.77
X171.45Y-64.77
X181.61Y-110.57
X181.61Y-115.57
X189.23Y-81.28
X190.5Y-113.03
X190.58Y-125.73
X194.23Y-81.28
X195.5Y-113.03
X195.58Y-125.73
X214.63Y-100.41
X214.63Y-105.41
X245.11Y-52.07
X245.11Y-54.61
X245.11Y-57.15
X252.73Y-81.28
X252.73Y-83.82
X252.73Y-86.36
T5
X172.72Y-30.48
X186.69Y-38.1
X186.69Y-53.34
X187.96Y-30.48
X198.12Y-30.48
X198.12Y-39.37
X198.12Y-46.99
X213.36Y-30.48
X213.36Y-39.37
X213.36Y-46.99
X219.71Y-30.48
X219.71Y-45.72
X222.69Y-72.39
X223.52Y-95.25
X238.76Y-95.25
X250.19Y-72.39
T6
X168.91Y-50.8
X168.91Y-55.8
X261.62Y-71.12
X261.62Y-76.12
T7
X180.34Y-124.46
X181.61Y-60.96
X251.46Y-114.3
X261.62Y-33.02
T8
X262.89Y-93.98
X262.89Y-123.95
T0
M30
